<svg width="100" height="81" viewBox="0 0 100 81" fill="none" xmlns="http://www.w3.org/2000/svg">
<g clip-path="url(#clip0_1245_1209)">
<mask id="path-1-inside-1_1245_1209" fill="white">
<path d="M0 0H100V81H0V0Z"/>
</mask>
<path d="M54.8547 23.2479L28.9365 47.1044L20.6898 41.3121L45.8226 18.241L43.6627 24.3278H9.30145V13.2341H54.8547V23.2479ZM29.4273 49.4606H20.6898V41.3121C21.9333 40.3304 23.5696 39.6759 25.5985 39.3486C27.6275 38.9559 29.5255 38.7596 31.2927 38.7596C34.6961 38.7596 37.9358 39.2832 41.012 40.3304C44.0881 41.3776 46.8043 42.9156 49.1605 44.9446C51.5822 46.9081 53.4802 49.3625 54.8547 52.3077C56.2291 55.1875 56.9163 58.4927 56.9163 62.2234C56.9163 67.1321 55.771 71.3864 53.4802 74.9861C51.1895 78.5859 48.0479 81.3675 44.0554 83.331C40.1284 85.2945 35.7433 86.2763 30.9 86.2763C26.1876 86.2763 21.9333 85.36 18.1372 83.5274C14.4066 81.6293 11.4286 78.8804 9.20328 75.2807C7.04343 71.6809 5.9635 67.2958 5.9635 62.1252H18.3336C18.3336 66.2486 19.4789 69.4556 21.7697 71.7464C24.1259 73.9717 27.2348 75.0843 31.0963 75.0843C35.0233 75.0843 38.1649 73.9062 40.5211 71.55C42.9428 69.1284 44.1536 65.954 44.1536 62.027C44.1536 58.4273 42.9428 55.4493 40.5211 53.0931C38.0995 50.6715 34.4015 49.4606 29.4273 49.4606Z" fill="#FC4F1C" fill-opacity="0.3"/>
</g>
<path d="M100 80H0V82H100V80Z" fill="#313131" mask="url(#path-1-inside-1_1245_1209)"/>
<defs>
<clipPath id="clip0_1245_1209">
<path d="M0 0H100V81H0V0Z" fill="white"/>
</clipPath>
</defs>
</svg>
