<svg width="57" height="57" viewBox="0 0 57 57" fill="none" xmlns="http://www.w3.org/2000/svg">
<rect x="0.5" y="0.5" width="56" height="56" rx="5.5" stroke="#2C2C2C"/>
<path opacity="0.4" d="M41.3332 21.3332V28.1331C41.3332 29.8265 40.7732 31.2532 39.7732 32.2398C38.7865 33.2398 37.3598 33.7998 35.6665 33.7998V36.2131C35.6665 37.1198 34.6532 37.6665 33.9065 37.1598L32.6132 36.3065C32.7332 35.8931 32.7865 35.4398 32.7865 34.9598V29.5332C32.7865 26.8132 30.9732 24.9998 28.2532 24.9998H19.1998C19.0132 24.9998 18.8398 25.0132 18.6665 25.0265V21.3332C18.6665 17.9332 20.9332 15.6665 24.3332 15.6665H35.6665C39.0665 15.6665 41.3332 17.9332 41.3332 21.3332Z" fill="#FC4F1C"/>
<path d="M32.7865 29.5334V34.96C32.7865 35.44 32.7332 35.8933 32.6132 36.3066C32.1198 38.2666 30.4932 39.4933 28.2532 39.4933H24.6265L20.5998 42.1733C19.9998 42.5867 19.1998 42.1467 19.1998 41.4267V39.4933C17.8398 39.4933 16.7065 39.04 15.9198 38.2533C15.1198 37.4533 14.6665 36.32 14.6665 34.96V29.5334C14.6665 27 16.2398 25.2534 18.6665 25.0267C18.8398 25.0134 19.0132 25 19.1998 25H28.2532C30.9732 25 32.7865 26.8134 32.7865 29.5334Z" fill="#FC4F1C"/>
</svg>
