<svg width="70" height="71" viewBox="0 0 70 71" fill="none" xmlns="http://www.w3.org/2000/svg">
<rect x="0.614035" y="1.11404" width="68.7719" height="68.7719" rx="6.75439" stroke="#2C2C2C" stroke-width="1.22807"/>
<path d="M46.2167 25.4667L35.7667 19.8333C34.6667 19.2333 33.3334 19.2333 32.2334 19.8333L21.7834 25.4667C21.0167 25.8833 20.55 26.6833 20.55 27.6C20.55 28.5 21.0167 29.3167 21.7834 29.7333L32.2334 35.3667C32.7834 35.6667 33.4 35.8167 34 35.8167C34.6 35.8167 35.2167 35.6667 35.7667 35.3667L46.2167 29.7333C46.9834 29.3167 47.45 28.5167 47.45 27.6C47.45 26.6833 46.9834 25.8833 46.2167 25.4667Z" fill="#FC4F1C"/>
<path opacity="0.4" d="M30.5167 37.3167L20.7834 32.45C20.0334 32.0833 19.1667 32.1167 18.4667 32.55C17.75 33 17.3334 33.75 17.3334 34.5833V43.7667C17.3334 45.35 18.2167 46.7833 19.6334 47.5L29.35 52.3667C29.6834 52.5333 30.05 52.6167 30.4167 52.6167C30.85 52.6167 31.2834 52.5 31.6667 52.2667C32.3834 51.8333 32.8 51.0667 32.8 50.2333V41.05C32.8167 39.45 31.9334 38.0167 30.5167 37.3167Z" fill="#FC4F1C"/>
<path opacity="0.4" d="M49.5333 32.55C48.8166 32.1167 47.95 32.0667 47.2166 32.45L37.5 37.3167C36.0833 38.0333 35.2 39.45 35.2 41.05V50.2333C35.2 51.0667 35.6166 51.8333 36.3333 52.2667C36.7166 52.5 37.15 52.6167 37.5833 52.6167C37.95 52.6167 38.3166 52.5333 38.65 52.3667L48.3666 47.5C49.7833 46.7833 50.6666 45.3667 50.6666 43.7667V34.5833C50.6666 33.75 50.2499 33 49.5333 32.55Z" fill="#FC4F1C"/>
</svg>
