<svg width="24" height="25" viewBox="0 0 24 25" fill="none" xmlns="http://www.w3.org/2000/svg">
<path d="M15.228 15.2891C14.6489 15.8031 13.9254 16.4424 12.6132 16.4424H11.8284C11.3791 16.4507 10.9326 16.3692 10.5152 16.2027C10.0977 16.0362 9.71772 15.7881 9.39739 15.4729C8.78585 14.8422 8.44926 13.9949 8.46135 13.1165V12.0427C8.44951 11.1646 8.78609 10.3177 9.39739 9.68728C9.71772 9.37207 10.0977 9.12396 10.5152 8.95748C10.9326 8.791 11.3791 8.7095 11.8284 8.71775H12.6132C13.9263 8.71775 14.6489 9.35613 15.228 9.86626C15.83 10.3965 16.3487 10.8597 17.7327 10.8597C17.9439 10.8595 18.1548 10.8426 18.3634 10.809L18.3577 10.7965C18.2759 10.5907 18.18 10.3909 18.0705 10.1984L17.145 8.5962C16.7278 7.87394 16.1279 7.2742 15.4055 6.85722C14.6831 6.44024 13.8636 6.22072 13.0295 6.2207H11.1757C10.3416 6.22072 9.52214 6.44024 8.79974 6.85722C8.07734 7.2742 7.4774 7.87394 7.06018 8.5962L6.13467 10.1984C5.71798 10.9211 5.49864 11.7406 5.49864 12.5748C5.49864 13.409 5.71798 14.2286 6.13467 14.9513L7.06018 16.5534C7.47735 17.2758 8.07726 17.8757 8.79965 18.2928C9.52204 18.71 10.3415 18.9297 11.1757 18.9299H13.0267C13.8608 18.9297 14.6803 18.71 15.4027 18.2928C16.1251 17.8757 16.725 17.2758 17.1422 16.5534L18.0677 14.9532C18.1773 14.7611 18.2732 14.5615 18.3548 14.356L18.3605 14.3445C18.1521 14.3093 17.9411 14.2917 17.7298 14.2918C16.3459 14.2918 15.8271 14.7522 15.2251 15.2843" fill="#006BFF"/>
<path d="M12.615 9.69043H11.8302C10.385 9.69043 9.4375 10.7222 9.4375 12.043V13.1168C9.4375 14.4385 10.3869 15.4703 11.8302 15.4703H12.615C14.7206 15.4703 14.5551 13.3235 17.7345 13.3235C18.0357 13.3227 18.3363 13.3502 18.6323 13.4058C18.7289 12.8598 18.7289 12.301 18.6323 11.7549C18.3361 11.8096 18.0356 11.8371 17.7345 11.8372C14.5541 11.8372 14.7206 9.69043 12.615 9.69043" fill="#006BFF"/>
<path d="M20.458 14.1904C19.9166 13.7936 19.2922 13.525 18.6319 13.4047V13.4209C18.5744 13.7372 18.4856 14.0469 18.3668 14.3455C18.9121 14.4303 19.4294 14.6435 19.8761 14.9676C19.877 14.9723 19.877 14.9772 19.8761 14.982C19.561 16.0042 19.0476 16.9543 18.3651 17.7779C17.6827 18.6016 16.8446 19.2827 15.8988 19.7824C14.9529 20.282 13.9179 20.5903 12.8529 20.6897C11.7878 20.7891 10.7136 20.6777 9.6917 20.3618C8.66983 20.0463 7.72014 19.5325 6.89687 18.8499C6.07361 18.1673 5.39291 17.3292 4.89366 16.3834C4.39442 15.4376 4.08642 14.4027 3.98725 13.3379C3.88809 12.273 3.99971 11.1991 4.31573 10.1774C4.63067 9.15558 5.14394 8.20591 5.82619 7.38265C6.50843 6.55939 7.34628 5.87869 8.2918 5.37948C9.23732 4.88028 10.272 4.57235 11.3366 4.47332C12.4012 4.37429 13.4749 4.4861 14.4963 4.80235C15.763 5.19226 16.9153 5.88577 17.8529 6.82254C18.7905 7.75931 19.485 8.91098 19.8761 10.1774C19.8752 10.1824 19.8752 10.1876 19.8761 10.1927C19.4295 10.5166 18.9121 10.7292 18.3668 10.8129C18.4855 11.1122 18.5743 11.4225 18.6319 11.7393C18.6309 11.7444 18.6309 11.7496 18.6319 11.7546C19.292 11.6342 19.9163 11.3659 20.458 10.9698C20.9787 10.587 20.8772 10.1487 20.7987 9.89119C20.0853 7.57904 18.4828 5.64491 16.3435 4.51417C14.2043 3.38342 11.7035 3.14867 9.39118 3.86153C7.07902 4.57492 5.14489 6.17747 4.01415 8.31672C2.88341 10.456 2.64865 12.9568 3.36152 15.2691C4.07469 17.5814 5.6772 19.5157 7.81652 20.6465C9.95585 21.7772 12.4567 22.0119 14.7691 21.2987C16.1892 20.8607 17.4808 20.0825 18.5316 19.0317C19.5825 17.9808 20.3607 16.6892 20.7987 15.2691C20.8772 15.0116 20.9787 14.5761 20.458 14.1914" fill="#006BFF"/>
<path d="M18.3634 10.8139C18.1552 10.8481 17.9446 10.8657 17.7336 10.8665C16.3496 10.8665 15.8299 10.4062 15.2299 9.87306C14.6489 9.35814 13.9273 8.71881 12.6141 8.71881H11.8293C11.3799 8.71073 10.9334 8.79241 10.516 8.95905C10.0986 9.1257 9.71859 9.37396 9.39831 9.6893C8.78701 10.3197 8.45043 11.1667 8.46227 12.0447V13.1185C8.45018 13.9969 8.78678 14.8443 9.39831 15.4749C9.71864 15.7901 10.0987 16.0382 10.5161 16.2047C10.9335 16.3712 11.38 16.4527 11.8293 16.4444H12.6141C13.9273 16.4444 14.6489 15.8051 15.2299 15.2959C15.8299 14.7657 16.3496 14.3025 17.7336 14.3025C17.9445 14.3026 18.1551 14.3196 18.3634 14.3532C18.4847 14.0531 18.5748 13.7414 18.6323 13.4229V13.4066C18.3358 13.3523 18.035 13.3251 17.7336 13.3253C14.5532 13.3253 14.7197 15.473 12.6141 15.473H11.8293C10.3841 15.473 9.43659 14.4403 9.43659 13.1185V12.0428C9.43659 10.722 10.3851 9.69025 11.8293 9.69025H12.6141C14.7197 9.69025 14.5541 11.837 17.7336 11.837C18.0351 11.8371 18.336 11.8092 18.6323 11.7537V11.7394C18.575 11.4227 18.4858 11.1126 18.3662 10.8139" fill="#0AE8F0"/>
</svg>
