<svg width="70" height="71" viewBox="0 0 70 71" fill="none" xmlns="http://www.w3.org/2000/svg">
<rect x="0.614035" y="1.11404" width="68.7719" height="68.7719" rx="6.75439" stroke="#2C2C2C" stroke-width="1.22807"/>
<path opacity="0.4" d="M31.0953 45.2918C38.3209 45.2918 44.1784 39.4343 44.1784 32.2088C44.1784 24.9832 38.3209 19.1257 31.0953 19.1257C23.8698 19.1257 18.0123 24.9832 18.0123 32.2088C18.0123 39.4343 23.8698 45.2918 31.0953 45.2918Z" fill="#FC4F1C"/>
<path d="M50.7116 42.0334C50.7116 47.4369 46.3233 51.8252 40.9198 51.8252C37.5795 51.8252 34.6485 50.155 32.8801 47.617C40.0192 46.8146 45.7011 41.1328 46.5035 33.9936C49.0415 35.762 50.7116 38.693 50.7116 42.0334Z" fill="#FC4F1C"/>
<path d="M33.486 31.7502L29.5561 30.3748C29.1632 30.2438 29.0813 30.2111 29.0813 29.638C29.0813 29.2122 29.376 28.8684 29.7526 28.8684H32.2088C32.7328 28.8684 33.1585 29.3432 33.1585 29.9327C33.1585 30.604 33.7152 31.1608 34.3866 31.1608C35.0579 31.1608 35.6146 30.604 35.6146 29.9327C35.6146 28.0496 34.1573 26.5105 32.3398 26.4286V26.3467C32.3398 25.6754 31.783 25.1187 31.1117 25.1187C30.4404 25.1187 29.8836 25.659 29.8836 26.3467V26.4286H29.7363C28.017 26.4286 26.6088 27.8695 26.6088 29.6543C26.6088 31.2099 27.2965 32.2087 28.7211 32.6999L32.6673 34.0754C33.0602 34.2064 33.1421 34.2391 33.1421 34.8122C33.1421 35.238 32.8474 35.5818 32.4708 35.5818H30.0146C29.4907 35.5818 29.0649 35.107 29.0649 34.5175C29.0649 33.8461 28.5082 33.2894 27.8369 33.2894C27.1655 33.2894 26.6088 33.8461 26.6088 34.5175C26.6088 36.4005 28.0661 37.9397 29.8836 38.0216V38.1198C29.8836 38.7912 30.4404 39.3479 31.1117 39.3479C31.783 39.3479 32.3398 38.7912 32.3398 38.1198V38.038H32.4871C34.2064 38.038 35.6146 36.597 35.6146 34.8122C35.6146 33.2567 34.9105 32.2578 33.486 31.7502Z" fill="#FC4F1C"/>
</svg>
