<svg width="70" height="71" viewBox="0 0 70 71" fill="none" xmlns="http://www.w3.org/2000/svg">
<rect x="0.614035" y="1.11404" width="68.7719" height="68.7719" rx="6.75439" stroke="#2C2C2C" stroke-width="1.22807"/>
<path opacity="0.4" d="M45.5666 25.0334L36.9499 20.05C35.2999 19.1 32.7166 19.1 31.0666 20.05L22.3666 25.0667C18.9166 27.4 18.7166 27.75 18.7166 31.4667V40.5167C18.7166 44.2334 18.9166 44.6 22.4332 46.9667L31.0499 51.95C31.8832 52.4334 32.9499 52.6667 33.9999 52.6667C35.0499 52.6667 36.1166 52.4334 36.9332 51.95L45.6332 46.9334C49.0832 44.6 49.2832 44.25 49.2832 40.5334V31.4667C49.2832 27.75 49.0832 27.4 45.5666 25.0334Z" fill="#FC4F1C"/>
<path d="M34 41.4166C36.9916 41.4166 39.4167 38.9915 39.4167 36C39.4167 33.0084 36.9916 30.5833 34 30.5833C31.0085 30.5833 28.5834 33.0084 28.5834 36C28.5834 38.9915 31.0085 41.4166 34 41.4166Z" fill="#FC4F1C"/>
</svg>
