<svg width="57" height="57" viewBox="0 0 57 57" fill="none" xmlns="http://www.w3.org/2000/svg">
<rect x="0.5" y="0.5" width="56" height="56" rx="5.5" stroke="#2C2C2C"/>
<path d="M37.7733 20.2668L29.4133 15.7601C28.5333 15.2801 27.4667 15.2801 26.5867 15.7601L18.2267 20.2668C17.6133 20.6001 17.24 21.2401 17.24 21.9735C17.24 22.6935 17.6133 23.3468 18.2267 23.6801L26.5867 28.1868C27.0267 28.4268 27.52 28.5468 28 28.5468C28.48 28.5468 28.9733 28.4268 29.4133 28.1868L37.7733 23.6801C38.3867 23.3468 38.76 22.7068 38.76 21.9735C38.76 21.2401 38.3867 20.6001 37.7733 20.2668Z" fill="#FC4F1C"/>
<path opacity="0.4" d="M25.2134 29.7469L17.4267 25.8535C16.8267 25.5602 16.1334 25.5869 15.5734 25.9335C15.0001 26.2935 14.6667 26.8935 14.6667 27.5602V34.9069C14.6667 36.1735 15.3734 37.3202 16.5067 37.8935L24.2801 41.7869C24.5467 41.9202 24.8401 41.9869 25.1334 41.9869C25.4801 41.9869 25.8267 41.8935 26.1334 41.7069C26.7067 41.3602 27.0401 40.7469 27.0401 40.0802V32.7335C27.0534 31.4535 26.3467 30.3069 25.2134 29.7469Z" fill="#FC4F1C"/>
<path opacity="0.4" d="M40.4266 25.9335C39.8533 25.5869 39.16 25.5469 38.5733 25.8535L30.8 29.7469C29.6666 30.3202 28.96 31.4535 28.96 32.7335V40.0802C28.96 40.7469 29.2933 41.3602 29.8666 41.7069C30.1733 41.8935 30.52 41.9869 30.8666 41.9869C31.16 41.9869 31.4533 41.9202 31.72 41.7869L39.4933 37.8935C40.6266 37.3202 41.3333 36.1869 41.3333 34.9069V27.5602C41.3333 26.8935 41 26.2935 40.4266 25.9335Z" fill="#FC4F1C"/>
</svg>
