<svg width="184" height="48" viewBox="0 0 184 48" fill="none" xmlns="http://www.w3.org/2000/svg">
<path d="M31.052 10.7867C34.3163 9.07399 34.0382 6.39503 34.0382 6.39503H20.8533C17.6146 6.39056 14.4734 7.50378 11.9603 9.54676C9.44708 11.5897 7.71583 14.4373 7.05878 17.6088C6.40173 20.7802 6.85913 24.0812 8.35375 26.9545C9.84838 29.8279 12.2887 32.0974 15.2627 33.3801C18.2366 34.6628 21.5621 34.88 24.6777 33.995C27.7932 33.1101 30.508 31.1772 32.3636 28.5227C34.2193 25.8682 35.1022 22.6547 34.8632 19.4248C34.6243 16.1948 33.2781 13.1462 31.052 10.7937V10.7867ZM20.8533 28.9264C19.1742 28.9264 17.5327 28.4284 16.1365 27.4955C14.7403 26.5626 13.6521 25.2366 13.0095 23.6853C12.3669 22.1339 12.1988 20.4269 12.5264 18.7799C12.854 17.133 13.6626 15.6202 14.85 14.4329C16.0373 13.2455 17.5501 12.4369 19.197 12.1093C20.8439 11.7817 22.551 11.9499 24.1024 12.5925C25.6537 13.235 26.9797 14.3232 27.9126 15.7194C28.8455 17.1156 29.3434 18.7571 29.3434 20.4363C29.3409 22.6872 28.4455 24.8452 26.8539 26.4368C25.2623 28.0285 23.1043 28.9238 20.8533 28.9264Z" fill="#909090"/>
<path d="M21.5568 42.4228C19.8948 42.4213 18.2381 42.2348 16.6173 41.8667C12.202 40.8686 9.23526 38.8597 9.11014 38.7749L10.5713 36.6409L12.0254 34.4986C13.8462 35.6166 15.8443 36.4158 17.9339 36.862C22.4396 37.8351 26.6645 37.0371 30.4904 34.4902L33.357 38.7999C29.7382 41.1967 25.7261 42.4228 21.5568 42.4228Z" fill="#909090"/>
<path d="M57.6692 30.9173C58.2627 30.9148 58.8533 30.8354 59.4264 30.681C60.0089 30.5333 60.5565 30.272 61.0377 29.9122V25.3926C61.0377 24.9977 61.2337 24.8003 61.6285 24.8003H64.2588C64.3957 24.8005 64.5293 24.8417 64.6425 24.9185C64.7607 24.9977 64.8191 25.1562 64.8191 25.3926V32.099C64.8205 32.2224 64.7949 32.3446 64.744 32.457C64.693 32.5694 64.6181 32.6693 64.5244 32.7496C63.5674 33.3956 62.5291 33.9121 61.4367 34.2858C60.2255 34.7066 58.9513 34.9167 57.6692 34.9072C56.1564 34.9158 54.6578 34.614 53.2663 34.0203C51.9189 33.4487 50.6923 32.6264 49.6518 31.5971C48.6127 30.5651 47.7845 29.3407 47.2133 27.9923C46.6288 26.6007 46.3278 25.1065 46.3278 23.5971C46.3278 22.0877 46.6288 20.5935 47.2133 19.2019C47.78 17.8681 48.5958 16.6545 49.617 15.6263C50.6695 14.5838 51.9171 13.7588 53.2884 13.1985C54.6597 12.6382 56.128 12.3535 57.6094 12.3606C58.8354 12.3417 60.0553 12.537 61.2142 12.9376C62.2952 13.3302 63.3111 13.8827 64.2282 14.5766C64.2959 14.6198 64.3543 14.6759 64.4001 14.7418C64.4459 14.8076 64.4782 14.8819 64.4952 14.9603C64.5045 15.0293 64.4987 15.0994 64.4783 15.1658C64.4579 15.2323 64.4234 15.2936 64.377 15.3454L62.6337 17.8562C62.5355 17.9548 62.4133 18.0262 62.2792 18.0633C62.1963 18.0799 62.1108 18.0779 62.0289 18.0575C61.9469 18.037 61.8705 17.9987 61.8051 17.9451C61.2314 17.5107 60.6003 17.158 59.9297 16.8969C59.208 16.6229 58.4411 16.4876 57.6692 16.4979C56.6919 16.4887 55.7225 16.6745 54.8178 17.0443C53.9671 17.3913 53.1936 17.9035 52.542 18.5513C51.8817 19.2122 51.36 19.9982 51.0074 20.8633C50.6548 21.7285 50.4784 22.6553 50.4887 23.5894C50.4813 24.5675 50.6704 25.5371 51.0448 26.4408C51.4021 27.3113 51.9178 28.1079 52.5657 28.7903C53.2111 29.4639 53.9849 30.0013 54.8415 30.3709C55.7326 30.7581 56.698 30.9446 57.6692 30.9173Z" fill="#FAFAFA"/>
<path d="M69.3554 34.0199V13.2764C69.3554 12.883 69.5417 12.6855 69.9115 12.6855H84.3656C84.7586 12.6855 84.9555 12.8825 84.9564 13.2764V16.143C84.9564 16.5369 84.7595 16.7339 84.3656 16.7339H73.6692V21.1951H81.8243C82.258 21.1951 82.4749 21.392 82.4749 21.7859V24.5942C82.4749 24.9881 82.258 25.185 81.8243 25.185H73.6692V30.5916H84.6325C85.0459 30.5916 85.2526 30.789 85.2526 31.1838V34.0199C85.2526 34.4147 85.0454 34.6107 84.6325 34.6107H69.917C69.5417 34.6163 69.3554 34.4147 69.3554 34.0199Z" fill="#FAFAFA"/>
<path d="M89.7874 34.0199V13.2764C89.7857 13.1258 89.8346 12.9789 89.9265 12.8594C89.9782 12.7974 90.0442 12.749 90.1188 12.7182C90.1934 12.6875 90.2743 12.6753 90.3546 12.6828H99.7512C100.715 12.6738 101.669 12.8809 102.543 13.2889C103.376 13.6747 104.124 14.2219 104.745 14.8988C105.358 15.5739 105.844 16.355 106.178 17.2038C106.521 18.0588 106.696 18.9715 106.695 19.8925C106.696 21.133 106.342 22.3479 105.676 23.3945C105.007 24.4777 104.077 25.3766 102.972 26.0095L106.99 33.988C107.029 34.05 107.051 34.1212 107.054 34.1944C107.056 34.2677 107.04 34.3403 107.005 34.405C106.967 34.4753 106.908 34.5325 106.837 34.5694C106.766 34.6063 106.686 34.6212 106.606 34.6122H102.789C102.493 34.6122 102.267 34.4453 102.109 34.1103L98.5931 27.0202H94.1013V34.0227C94.1013 34.4175 93.9039 34.6136 93.5104 34.6136H90.3491C89.9751 34.6163 89.7874 34.4148 89.7874 34.0199ZM98.7113 16.5031H94.1013V23.122H98.7057C99.7308 23.122 100.583 22.8115 101.262 22.1905C101.595 21.8919 101.858 21.5244 102.034 21.1136C102.21 20.7028 102.295 20.2586 102.281 19.8119C102.285 19.3596 102.195 18.9116 102.014 18.4967C101.841 18.0979 101.585 17.7406 101.262 17.4485C100.93 17.1483 100.544 16.9126 100.125 16.7534C99.6718 16.5813 99.1906 16.4946 98.7057 16.4976L98.7113 16.5031Z" fill="#FAFAFA"/>
<path d="M111.583 34.0199V13.3056C111.583 12.8885 111.779 12.6855 112.174 12.6855H115.372C115.744 12.6855 115.928 12.8927 115.928 13.3056V34.0199C115.928 34.4147 115.74 34.6107 115.372 34.6107H112.174C111.774 34.6163 111.583 34.4147 111.583 34.0199Z" fill="#FAFAFA"/>
<path d="M120.461 13.3059C120.458 13.2169 120.474 13.1282 120.507 13.0457C120.541 12.9631 120.591 12.8885 120.655 12.8268C120.719 12.765 120.796 12.7174 120.879 12.6872C120.963 12.6569 121.052 12.6446 121.141 12.6511H124.155C124.569 12.6511 124.786 12.8675 124.806 13.3003V30.5919H133.433C133.522 30.5893 133.61 30.6054 133.692 30.6391C133.774 30.6727 133.848 30.7232 133.91 30.7873C133.971 30.8513 134.018 30.9276 134.048 31.011C134.078 31.0945 134.091 31.1833 134.084 31.2717V33.9604C134.084 34.3747 133.867 34.5916 133.433 34.611H121.112C120.678 34.611 120.461 34.3942 120.461 33.9604V13.3059Z" fill="#FAFAFA"/>
<path d="M138.619 13.306C138.616 13.2169 138.631 13.1281 138.665 13.0454C138.698 12.9628 138.749 12.8881 138.813 12.8263C138.877 12.7645 138.954 12.717 139.038 12.6868C139.122 12.6566 139.211 12.6445 139.3 12.6512H142.314C142.731 12.6512 142.944 12.8681 142.965 13.3004V30.592H151.593C151.763 30.5896 151.927 30.6534 152.051 30.77C152.117 30.8351 152.168 30.9136 152.202 31.0001C152.235 31.0867 152.249 31.1793 152.243 31.2718V33.9605C152.243 34.3748 152.026 34.5917 151.593 34.6112H139.271C138.837 34.6112 138.62 34.3943 138.62 33.9605L138.619 13.306Z" fill="#FAFAFA"/>
<path d="M156.853 33.991L165.186 13.2475C165.364 12.8768 165.61 12.6914 165.924 12.6914H168.407C168.762 12.6914 169.008 12.8768 169.145 13.2475L177.478 33.991C177.577 34.187 177.583 34.3399 177.494 34.4484C177.439 34.5062 177.373 34.5509 177.298 34.5791C177.224 34.6073 177.145 34.6182 177.066 34.611H173.844C173.68 34.6166 173.518 34.5673 173.384 34.4709C173.251 34.3745 173.153 34.2365 173.106 34.0786L171.692 30.5335H162.621L161.231 34.0786C161.184 34.2365 161.086 34.3745 160.953 34.4709C160.819 34.5673 160.657 34.6166 160.493 34.611H157.234C156.803 34.6147 156.676 34.4081 156.853 33.991ZM167.166 18.3593L164.004 26.7215H170.269L167.166 18.3593Z" fill="#FAFAFA"/>
</svg>
