<svg width="70" height="71" viewBox="0 0 70 71" fill="none" xmlns="http://www.w3.org/2000/svg">
<rect x="0.614035" y="1.11404" width="68.7719" height="68.7719" rx="6.75439" stroke="#2C2C2C" stroke-width="1.22807"/>
<path opacity="0.4" d="M40.9833 19.3333H27.0166C20.95 19.3333 17.3333 22.95 17.3333 29.0166V42.9666C17.3333 49.05 20.95 52.6666 27.0166 52.6666H40.9666C47.0333 52.6666 50.65 49.05 50.65 42.9833V29.0166C50.6666 22.95 47.05 19.3333 40.9833 19.3333Z" fill="#FC4F1C"/>
<path d="M40.4833 29.5167C38.0167 27.0667 34.0167 27.0667 31.5667 29.5167C29.85 31.2167 29.3333 33.6834 30 35.85L26.0833 39.7667C25.8167 40.05 25.6167 40.6 25.6833 41L25.9333 42.8167C26.0167 43.4167 26.5833 43.9834 27.1833 44.0667L29 44.3334C29.4 44.3834 29.95 44.2167 30.2333 43.9167L30.9167 43.2334C31.0833 43.0834 31.0833 42.8167 30.9167 42.65L29.3 41.0334C29.0667 40.8 29.0667 40.4 29.3 40.15C29.5333 39.9167 29.9333 39.9167 30.1833 40.15L31.8 41.7667C31.95 41.9167 32.2167 41.9167 32.3833 41.7667L34.15 40.0167C36.3 40.6834 38.7667 40.1667 40.4833 38.4667C42.95 35.9834 42.95 31.9834 40.4833 29.5167ZM36.0833 36C34.9333 36 34 35.0667 34 33.9167C34 32.7667 34.9333 31.8334 36.0833 31.8334C37.2333 31.8334 38.1667 32.7667 38.1667 33.9167C38.1667 35.0667 37.2333 36 36.0833 36Z" fill="#FC4F1C"/>
</svg>
