<svg width="189" height="36" viewBox="0 0 189 36" fill="none" xmlns="http://www.w3.org/2000/svg">
<path d="M42.8392 25.5791V10.9591H48.6592C51.5392 10.9591 53.2992 12.4591 53.2992 14.8991C53.2992 16.5191 52.5792 17.6791 51.1992 18.2591C52.7392 18.7591 53.5192 19.9191 53.5192 21.6191C53.5192 24.1191 51.7792 25.5791 48.7592 25.5791H42.8392ZM48.4392 13.2191H45.3992V17.1991H48.4992C49.8992 17.1991 50.6792 16.4591 50.6792 15.1591C50.6792 13.8991 49.8792 13.2191 48.4392 13.2191ZM48.6592 19.3591H45.3992V23.3191H48.6592C50.0992 23.3191 50.8992 22.6191 50.8992 21.2991C50.8992 20.0591 50.0792 19.3591 48.6592 19.3591ZM57.9666 25.5791H55.5466V10.6991H57.9666V25.5791ZM64.9461 25.8391C62.0061 25.8391 59.9461 23.6991 59.9461 20.6391C59.9461 17.5391 61.9661 15.3991 64.8661 15.3991C67.8261 15.3991 69.7061 17.3791 69.7061 20.4591V21.1991L62.2661 21.2191C62.4461 22.9591 63.3661 23.8391 64.9861 23.8391C66.3261 23.8391 67.2061 23.3191 67.4861 22.3791H69.7461C69.3261 24.5391 67.5261 25.8391 64.9461 25.8391ZM64.8861 17.3991C63.4461 17.3991 62.5661 18.1791 62.3261 19.6591H67.2861C67.2861 18.2991 66.3461 17.3991 64.8861 17.3991ZM74.0989 25.5791H71.6589V15.6991H73.9189L74.1189 16.9791C74.7389 15.9791 75.9389 15.3991 77.2789 15.3991C79.7589 15.3991 81.0389 16.9391 81.0389 19.4991V25.5791H78.5989V20.0791C78.5989 18.4191 77.7789 17.6191 76.5189 17.6191C75.0189 17.6191 74.0989 18.6591 74.0989 20.2591V25.5791ZM87.4963 25.8391C84.6363 25.8391 82.8563 23.7391 82.8563 20.6791C82.8563 17.5991 84.6563 15.3991 87.6363 15.3991C89.0163 15.3991 90.2363 15.9791 90.8563 16.9591V10.6991H93.2763V25.5791H91.0363L90.8763 24.0391C90.2763 25.1791 88.9963 25.8391 87.4963 25.8391ZM88.0363 23.5991C89.7363 23.5991 90.8363 22.3791 90.8363 20.5991C90.8363 18.8191 89.7363 17.5791 88.0363 17.5791C86.3363 17.5791 85.2963 18.8391 85.2963 20.5991C85.2963 22.3591 86.3363 23.5991 88.0363 23.5991ZM97.0391 13.7191C96.1991 13.7191 95.5391 13.0591 95.5391 12.2391C95.5391 11.4191 96.1991 10.7791 97.0391 10.7791C97.8391 10.7791 98.4991 11.4191 98.4991 12.2391C98.4991 13.0591 97.8391 13.7191 97.0391 13.7191ZM95.8191 25.5791V15.6991H98.2591V25.5791H95.8191ZM103.22 25.5791H100.78V15.6991H103.04L103.24 16.9791C103.86 15.9791 105.06 15.3991 106.4 15.3991C108.88 15.3991 110.16 16.9391 110.16 19.4991V25.5791H107.72V20.0791C107.72 18.4191 106.9 17.6191 105.64 17.6191C104.14 17.6191 103.22 18.6591 103.22 20.2591V25.5791ZM111.997 20.4191C111.997 17.5391 113.877 15.3791 116.697 15.3791C118.177 15.3791 119.337 15.9991 119.917 17.0591L120.057 15.6991H122.317V25.0791C122.317 28.3791 120.337 30.4391 117.137 30.4391C114.297 30.4391 112.357 28.8191 112.057 26.1791H114.497C114.657 27.4591 115.637 28.2191 117.137 28.2191C118.817 28.2191 119.897 27.1591 119.897 25.5191V23.8791C119.277 24.7991 118.057 25.3791 116.637 25.3791C113.837 25.3791 111.997 23.2791 111.997 20.4191ZM114.457 20.3591C114.457 22.0191 115.517 23.2591 117.117 23.2591C118.797 23.2591 119.837 22.0791 119.837 20.3591C119.837 18.6791 118.817 17.5191 117.117 17.5191C115.497 17.5191 114.457 18.7391 114.457 20.3591ZM133.153 10.9591V23.2191H139.273V25.5791H130.593V10.9591H133.153ZM143.935 25.8391C141.835 25.8391 140.555 24.6191 140.555 22.7591C140.555 20.9391 141.875 19.7991 144.215 19.6191L147.175 19.3991V19.1791C147.175 17.8391 146.375 17.2991 145.135 17.2991C143.695 17.2991 142.895 17.8991 142.895 18.9391H140.815C140.815 16.7991 142.575 15.3991 145.255 15.3991C147.915 15.3991 149.555 16.8391 149.555 19.5791V25.5791H147.415L147.235 24.1191C146.815 25.1391 145.475 25.8391 143.935 25.8391ZM144.735 23.9991C146.235 23.9991 147.195 23.0991 147.195 21.5791V21.0591L145.135 21.2191C143.615 21.3591 143.035 21.8591 143.035 22.6591C143.035 23.5591 143.635 23.9991 144.735 23.9991ZM154.212 25.5791H151.952V10.6991H154.392V17.1391C155.032 16.0391 156.352 15.3791 157.852 15.3791C160.672 15.3791 162.392 17.5791 162.392 20.6991C162.392 23.7391 160.532 25.8391 157.692 25.8391C156.212 25.8391 154.952 25.1791 154.372 24.0391L154.212 25.5791ZM154.412 20.5991C154.412 22.3791 155.512 23.5991 157.192 23.5991C158.912 23.5991 159.932 22.3591 159.932 20.5991C159.932 18.8391 158.912 17.5791 157.192 17.5791C155.512 17.5791 154.412 18.8191 154.412 20.5991Z" fill="#F8F8F8"/>
<path d="M18.3159 5.53691C18.3159 3.86442 20.3499 3.04013 21.5142 4.24073L32.2431 15.3035C32.9497 16.032 33.3448 17.0071 33.3448 18.022V30.827C33.3448 32.4995 31.3109 33.3238 30.1465 32.1232L19.4177 21.0605C18.7111 20.3319 18.3159 19.3569 18.3159 18.3419V5.53691Z" fill="#F45F26"/>
<path d="M9.00195 5.17314C9.00195 3.50065 11.0359 2.67636 12.2003 3.87696L22.7708 14.7764C23.5789 15.6097 24.0308 16.7249 24.0308 17.8857V30.4633C24.0308 32.1358 21.9969 32.9601 20.8325 31.7595L10.1037 20.6967C9.39711 19.9681 9.00195 18.9931 9.00195 17.9782V5.17314Z" fill="#717CE3"/>
<path d="M0 5.53691C0 3.86442 2.03396 3.04013 3.19832 4.24073L13.9272 15.3035C14.6337 16.032 15.0289 17.0071 15.0289 18.022V30.827C15.0289 32.4995 12.9949 33.3238 11.8306 32.1232L1.10175 21.0605C0.395159 20.3319 0 19.3569 0 18.3419V5.53691Z" fill="#F45F26"/>
</svg>
