<svg width="70" height="71" viewBox="0 0 70 71" fill="none" xmlns="http://www.w3.org/2000/svg">
<rect x="0.614035" y="1.11404" width="68.7719" height="68.7719" rx="6.75439" stroke="#2C2C2C" stroke-width="1.22807"/>
<path d="M43.0809 34.2719C43.1136 34.6977 42.9662 35.1397 42.6388 35.4672L32.7815 45.3246C30.6037 47.5024 28.4095 47.5024 26.2154 45.3246L19.6493 38.7585C18.5358 37.6287 17.9791 36.4988 18.0119 35.369H18.1265L42.8844 34.2883L43.0809 34.2719Z" fill="#FC4F1C"/>
<path opacity="0.4" d="M42.6386 33.2731L30.6035 21.2379L29.1789 19.8134C28.7041 19.3385 27.9181 19.3385 27.4432 19.8134C26.9684 20.2882 26.9684 21.0742 27.4432 21.5491L28.8678 22.9736L19.6491 32.1923C18.6011 33.2403 18.0444 34.3046 18.0117 35.3689H18.1263L42.8842 34.2883L43.0807 34.2719C43.0643 33.9117 42.9005 33.5351 42.6386 33.2731Z" fill="#FC4F1C"/>
<path d="M40.9356 53.1024H19.6491C18.9777 53.1024 18.421 52.5457 18.421 51.8743C18.421 51.203 18.9777 50.6462 19.6491 50.6462H40.9356C41.607 50.6462 42.1637 51.203 42.1637 51.8743C42.1637 52.5457 41.607 53.1024 40.9356 53.1024Z" fill="#FC4F1C"/>
<path d="M46.421 40.0521C45.9953 39.5936 45.2093 39.5936 44.7836 40.0521C44.276 40.6088 41.7543 43.4579 41.7543 45.6029C41.7543 47.7315 43.4736 49.4509 45.6023 49.4509C47.7309 49.4509 49.4502 47.7315 49.4502 45.6029C49.4502 43.4579 46.9286 40.6088 46.421 40.0521Z" fill="#FC4F1C"/>
</svg>
