<svg width="19" height="18" viewBox="0 0 19 18" fill="none" xmlns="http://www.w3.org/2000/svg">
<path d="M14.075 13.3125H4.925C3.185 13.3125 2.1875 12.315 2.1875 10.575V1.5C2.1875 1.1925 2.4425 0.9375 2.75 0.9375H16.25C16.5575 0.9375 16.8125 1.1925 16.8125 1.5V10.575C16.8125 12.315 15.815 13.3125 14.075 13.3125ZM3.3125 2.0625V10.575C3.3125 11.6925 3.8075 12.1875 4.925 12.1875H14.0675C15.185 12.1875 15.68 11.6925 15.68 10.575V2.0625H3.3125Z" fill="#429758"/>
<path d="M17 2.0625H2C1.6925 2.0625 1.4375 1.8075 1.4375 1.5C1.4375 1.1925 1.6925 0.9375 2 0.9375H17C17.3075 0.9375 17.5625 1.1925 17.5625 1.5C17.5625 1.8075 17.3075 2.0625 17 2.0625Z" fill="#429758"/>
<path d="M6.5002 17.0625C6.2902 17.0625 6.09519 16.95 5.99769 16.755C5.85519 16.4775 5.96771 16.14 6.25271 15.9975L8.9377 14.655V12.75C8.9377 12.4425 9.1927 12.1875 9.5002 12.1875C9.8077 12.1875 10.0627 12.4425 10.0627 12.75V15C10.0627 15.21 9.94269 15.405 9.74769 15.5025L6.74769 17.0025C6.67269 17.04 6.5827 17.0625 6.5002 17.0625Z" fill="#429758"/>
<path d="M12.5 17.0624C12.4175 17.0624 12.3275 17.0399 12.2525 17.0024L9.25247 15.5024C8.97497 15.3599 8.86245 15.0224 8.99745 14.7449C9.13995 14.4674 9.47746 14.3549 9.75496 14.4899L12.755 15.9899C13.0325 16.1324 13.145 16.4699 13.01 16.7474C12.905 16.9499 12.7025 17.0624 12.5 17.0624Z" fill="#429758"/>
<path d="M6.12494 8.81251C5.96744 8.81251 5.80245 8.74502 5.68995 8.61002C5.48745 8.37002 5.52494 8.01752 5.76494 7.81502L8.12745 5.84251C8.34495 5.66251 8.62244 5.58751 8.88494 5.63251C9.15494 5.67751 9.38745 5.8425 9.52995 6.0825L10.3174 7.395L12.5149 5.56502C12.7549 5.37002 13.1074 5.4 13.3099 5.64C13.5124 5.88 13.475 6.2325 13.235 6.435L10.8724 8.4075C10.6549 8.5875 10.3775 8.6625 10.115 8.6175C9.84495 8.5725 9.61244 8.40752 9.46994 8.16752L8.68245 6.85502L6.48495 8.685C6.37995 8.7675 6.25244 8.81251 6.12494 8.81251Z" fill="#429758"/>
</svg>
