<svg width="48" height="48" viewBox="0 0 48 48" fill="none" xmlns="http://www.w3.org/2000/svg">
<rect width="48" height="48" rx="8" fill="#F1F1F1"/>
<path d="M23.9998 10.6666C16.6398 10.6666 10.6665 16.64 10.6665 24C10.6665 31.36 16.6398 37.3333 23.9998 37.3333C31.3598 37.3333 37.3332 31.36 37.3332 24C37.3332 16.64 31.3598 10.6666 23.9998 10.6666ZM23.9998 19.6666C23.4532 19.6666 22.9998 19.2133 22.9998 18.6666C22.9998 18.12 23.4532 17.6666 23.9998 17.6666C27.4932 17.6666 30.3332 20.5066 30.3332 24C30.3332 27.4933 27.4932 30.3333 23.9998 30.3333C23.4532 30.3333 22.9998 29.88 22.9998 29.3333C22.9998 28.7866 23.4532 28.3333 23.9998 28.3333C26.3865 28.3333 28.3332 26.3866 28.3332 24C28.3332 21.6133 26.3865 19.6666 23.9998 19.6666ZM23.9998 34.3333C18.3065 34.3333 13.6665 29.6933 13.6665 24C13.6665 23.4533 14.1198 23 14.6665 23C15.2132 23 15.6665 23.4533 15.6665 24C15.6665 28.6 19.3998 32.3333 23.9998 32.3333C28.5998 32.3333 32.3332 28.6 32.3332 24C32.3332 19.4 28.5998 15.6666 23.9998 15.6666C23.4532 15.6666 22.9998 15.2133 22.9998 14.6666C22.9998 14.12 23.4532 13.6666 23.9998 13.6666C29.6932 13.6666 34.3332 18.3066 34.3332 24C34.3332 29.6933 29.6932 34.3333 23.9998 34.3333Z" fill="#1D1C1A"/>
</svg>
