<svg width="48" height="48" viewBox="0 0 48 48" fill="none" xmlns="http://www.w3.org/2000/svg">
<rect width="48" height="48" rx="8" fill="#F1F1F1"/>
<path d="M26.3972 9.34787L28.1572 12.6657C28.3972 13.1181 29.0372 13.5706 29.5705 13.646L32.7572 14.1487C34.7972 14.4754 35.2772 15.8579 33.8105 17.2403L31.3305 19.5779C30.9172 19.9674 30.6772 20.7341 30.8105 21.287L31.5172 24.1901C32.0772 26.4774 30.7839 27.3697 28.6372 26.1758L25.6505 24.5043C25.1038 24.2027 24.2239 24.2027 23.6772 24.5043L20.6905 26.1758C18.5438 27.3697 17.2505 26.4774 17.8105 24.1901L18.5172 21.287C18.6505 20.7466 18.4105 19.98 17.9972 19.5779L15.5172 17.2403C14.0505 15.8579 14.5305 14.4629 16.5705 14.1487L19.7572 13.646C20.2905 13.558 20.9305 13.1181 21.1705 12.6657L22.9305 9.34787C23.8772 7.55071 25.4505 7.55071 26.3972 9.34787Z" fill="#171616"/>
<path d="M17 39.3333C16.4533 39.3333 16 38.88 16 38.3333V29C16 28.4533 16.4533 28 17 28C17.5467 28 18 28.4533 18 29V38.3333C18 38.88 17.5467 39.3333 17 39.3333Z" fill="#171616"/>
<path d="M33 39.3333C32.4533 39.3333 32 38.88 32 38.3333V29C32 28.4533 32.4533 28 33 28C33.5467 28 34 28.4533 34 29V38.3333C34 38.88 33.5467 39.3333 33 39.3333Z" fill="#171616"/>
<path d="M25 32.6667C24.4533 32.6667 24 32.2133 24 31.6667V29C24 28.4533 24.4533 28 25 28C25.5467 28 26 28.4533 26 29V31.6667C26 32.2133 25.5467 32.6667 25 32.6667Z" fill="#171616"/>
</svg>
