<svg width="605" height="136" viewBox="0 0 605 136" fill="none" xmlns="http://www.w3.org/2000/svg">
<g clip-path="url(#clip0_186_2116)">
<path d="M581 0H24C10.7452 0 0 10.7452 0 24V111.939C0 125.194 10.7452 135.939 24 135.939H581C594.255 135.939 605 125.194 605 111.939V24C605 10.7452 594.255 0 581 0Z" fill="url(#paint0_linear_186_2116)"/>
<path d="M136.46 58.3571V77.3171H146V80.0471H133.52V58.3571H136.46ZM154.751 80.4071C150.431 80.4071 147.461 77.2871 147.461 72.7271C147.461 68.1371 150.371 64.9571 154.631 64.9571C158.801 64.9571 161.531 67.8371 161.531 72.1871V73.2371L150.191 73.2671C150.401 76.3571 152.021 78.0671 154.811 78.0671C157.001 78.0671 158.441 77.1671 158.921 75.4871H161.561C160.841 78.6371 158.381 80.4071 154.751 80.4071ZM154.631 67.3271C152.171 67.3271 150.611 68.7971 150.251 71.3771H158.711C158.711 68.9471 157.121 67.3271 154.631 67.3271ZM168.674 80.0471H165.854V67.7471H162.974V65.3771H165.854V60.7871H168.674V65.3771H171.554V67.7471H168.674V80.0471ZM178.045 60.5471C178.045 62.7371 176.515 64.5071 174.415 64.7771V63.5171C175.585 63.3071 176.425 62.5271 176.425 61.5671C176.215 61.6871 175.945 61.7471 175.585 61.7471C174.685 61.7471 173.905 61.0871 173.905 59.9171C173.905 58.7771 174.685 57.9371 175.885 57.9371C177.085 57.9371 178.045 58.9271 178.045 60.5471ZM179.272 75.7871H181.972C181.972 77.2871 183.112 78.1871 184.972 78.1871C186.952 78.1871 188.092 77.3771 188.092 76.0271C188.092 75.0371 187.612 74.4371 186.082 74.0471L183.502 73.4471C180.892 72.8171 179.662 71.5271 179.662 69.3671C179.662 66.6671 181.942 64.9571 185.182 64.9571C188.392 64.9571 190.492 66.7571 190.552 69.5471H187.852C187.792 68.0771 186.802 67.1471 185.092 67.1471C183.322 67.1471 182.332 67.9271 182.332 69.2771C182.332 70.2671 183.052 70.9271 184.492 71.2871L187.072 71.9171C189.562 72.5171 190.792 73.6571 190.792 75.8471C190.792 78.6371 188.392 80.4071 184.912 80.4071C181.462 80.4071 179.272 78.5771 179.272 75.7871ZM208.002 80.4071C203.742 80.4071 201.162 77.2271 201.162 72.7571C201.162 68.2571 203.772 64.9571 208.122 64.9571C210.372 64.9571 212.262 65.9471 213.252 67.7471V57.9671H216.042V80.0471H213.522L213.282 77.3771C212.322 79.3871 210.342 80.4071 208.002 80.4071ZM208.572 77.8571C211.452 77.8571 213.222 75.7271 213.222 72.6671C213.222 69.6671 211.452 67.5071 208.572 67.5071C205.692 67.5071 204.012 69.6671 204.012 72.6671C204.012 75.6971 205.692 77.8571 208.572 77.8571ZM221.49 61.8971C220.47 61.8971 219.63 61.0571 219.63 60.0371C219.63 58.9871 220.47 58.1771 221.49 58.1771C222.51 58.1771 223.35 58.9871 223.35 60.0371C223.35 61.0571 222.51 61.8971 221.49 61.8971ZM220.11 80.0471V65.3771H222.93V80.0471H220.11ZM225.824 75.7871H228.524C228.524 77.2871 229.664 78.1871 231.524 78.1871C233.504 78.1871 234.644 77.3771 234.644 76.0271C234.644 75.0371 234.164 74.4371 232.634 74.0471L230.054 73.4471C227.444 72.8171 226.214 71.5271 226.214 69.3671C226.214 66.6671 228.494 64.9571 231.734 64.9571C234.944 64.9571 237.044 66.7571 237.104 69.5471H234.404C234.344 68.0771 233.354 67.1471 231.644 67.1471C229.874 67.1471 228.884 67.9271 228.884 69.2771C228.884 70.2671 229.604 70.9271 231.044 71.2871L233.624 71.9171C236.114 72.5171 237.344 73.6571 237.344 75.8471C237.344 78.6371 234.944 80.4071 231.464 80.4071C228.014 80.4071 225.824 78.5771 225.824 75.7871ZM239.512 72.7271C239.512 68.1371 242.422 64.9571 246.712 64.9571C250.402 64.9571 252.982 67.0571 253.492 70.3271H250.672C250.192 68.4671 248.692 67.4771 246.802 67.4771C244.132 67.4771 242.302 69.5171 242.302 72.6971C242.302 75.8471 244.012 77.8871 246.682 77.8871C248.692 77.8871 250.192 76.8371 250.702 75.0971H253.522C252.952 78.2771 250.222 80.4071 246.682 80.4071C242.362 80.4071 239.512 77.3471 239.512 72.7271ZM266.637 65.3771H269.427V80.0471H266.907L266.607 77.8271C265.767 79.3571 263.817 80.4071 261.657 80.4071C258.237 80.4071 256.317 78.0971 256.317 74.4971V65.3771H259.137V73.5671C259.137 76.7171 260.487 77.9171 262.647 77.9171C265.227 77.9171 266.637 76.2671 266.637 73.1171V65.3771ZM272.026 75.7871H274.726C274.726 77.2871 275.866 78.1871 277.726 78.1871C279.706 78.1871 280.846 77.3771 280.846 76.0271C280.846 75.0371 280.366 74.4371 278.836 74.0471L276.256 73.4471C273.646 72.8171 272.416 71.5271 272.416 69.3671C272.416 66.6671 274.696 64.9571 277.936 64.9571C281.146 64.9571 283.246 66.7571 283.306 69.5471H280.606C280.546 68.0771 279.556 67.1471 277.846 67.1471C276.076 67.1471 275.086 67.9271 275.086 69.2771C275.086 70.2671 275.806 70.9271 277.246 71.2871L279.826 71.9171C282.316 72.5171 283.546 73.6571 283.546 75.8471C283.546 78.6371 281.146 80.4071 277.666 80.4071C274.216 80.4071 272.026 78.5771 272.026 75.7871ZM285.473 75.7871H288.173C288.173 77.2871 289.313 78.1871 291.173 78.1871C293.153 78.1871 294.293 77.3771 294.293 76.0271C294.293 75.0371 293.813 74.4371 292.283 74.0471L289.703 73.4471C287.093 72.8171 285.863 71.5271 285.863 69.3671C285.863 66.6671 288.143 64.9571 291.383 64.9571C294.593 64.9571 296.693 66.7571 296.753 69.5471H294.053C293.993 68.0771 293.003 67.1471 291.293 67.1471C289.523 67.1471 288.533 67.9271 288.533 69.2771C288.533 70.2671 289.253 70.9271 290.693 71.2871L293.273 71.9171C295.763 72.5171 296.993 73.6571 296.993 75.8471C296.993 78.6371 294.593 80.4071 291.113 80.4071C287.663 80.4071 285.473 78.5771 285.473 75.7871ZM306.913 86.6171V84.3071H308.803C310.153 84.3071 311.233 84.0971 311.923 82.2371L312.433 80.8271L306.523 65.3771H309.493L313.753 77.1971L318.103 65.3771H321.013L314.083 83.3471C313.093 85.8671 311.623 86.9171 309.373 86.9171C308.443 86.9171 307.663 86.7971 306.913 86.6171ZM321.748 72.6971C321.748 68.1671 324.988 64.9871 329.398 64.9871C333.778 64.9871 337.018 68.1671 337.018 72.6971C337.018 77.2271 333.778 80.4071 329.398 80.4071C324.988 80.4071 321.748 77.2271 321.748 72.6971ZM324.598 72.6971C324.598 75.7571 326.548 77.8871 329.398 77.8871C332.218 77.8871 334.198 75.7571 334.198 72.6971C334.198 69.6371 332.218 67.5071 329.398 67.5071C326.548 67.5071 324.598 69.6371 324.598 72.6971ZM349.928 65.3771H352.718V80.0471H350.198L349.898 77.8271C349.058 79.3571 347.108 80.4071 344.948 80.4071C341.528 80.4071 339.608 78.0971 339.608 74.4971V65.3771H342.428V73.5671C342.428 76.7171 343.778 77.9171 345.938 77.9171C348.518 77.9171 349.928 76.2671 349.928 73.1171V65.3771ZM365.21 65.2571V67.8371H363.95C361.28 67.8371 359.63 69.4571 359.63 72.2771V80.0471H356.81V65.4071H359.45L359.63 67.6271C360.23 66.0971 361.7 65.0771 363.71 65.0771C364.22 65.0771 364.64 65.1371 365.21 65.2571ZM376.058 86.6171V65.3771H378.608L378.818 68.0171C379.808 66.0071 381.788 64.9571 384.128 64.9571C388.328 64.9571 390.938 68.1071 390.938 72.6071C390.938 77.0771 388.478 80.4371 384.128 80.4371C381.788 80.4371 379.838 79.4471 378.878 77.6471V86.6171H376.058ZM378.908 72.7271C378.908 75.7271 380.648 77.8871 383.528 77.8871C386.408 77.8871 388.118 75.7271 388.118 72.7271C388.118 69.6971 386.408 67.5371 383.528 67.5371C380.648 67.5371 378.908 69.6671 378.908 72.7271ZM402.446 65.2571V67.8371H401.186C398.516 67.8371 396.866 69.4571 396.866 72.2771V80.0471H394.046V65.4071H396.686L396.866 67.6271C397.466 66.0971 398.936 65.0771 400.946 65.0771C401.456 65.0771 401.876 65.1371 402.446 65.2571ZM403.603 72.6971C403.603 68.1671 406.843 64.9871 411.253 64.9871C415.633 64.9871 418.873 68.1671 418.873 72.6971C418.873 77.2271 415.633 80.4071 411.253 80.4071C406.843 80.4071 403.603 77.2271 403.603 72.6971ZM406.453 72.6971C406.453 75.7571 408.403 77.8871 411.253 77.8871C414.073 77.8871 416.053 75.7571 416.053 72.6971C416.053 69.6371 414.073 67.5071 411.253 67.5071C408.403 67.5071 406.453 69.6371 406.453 72.6971ZM424.545 80.0471H421.995V57.9671H424.815V67.8971C425.775 65.9771 427.755 64.9571 430.155 64.9571C434.355 64.9571 436.875 68.2571 436.875 72.7871C436.875 77.2271 434.235 80.4071 429.975 80.4071C427.665 80.4071 425.715 79.3871 424.755 77.3771L424.545 80.0471ZM424.845 72.6671C424.845 75.7271 426.585 77.8571 429.465 77.8571C432.345 77.8571 434.055 75.6971 434.055 72.6671C434.055 69.6671 432.345 67.5071 429.465 67.5071C426.585 67.5071 424.845 69.6671 424.845 72.6671ZM442.863 80.0471H440.043V57.9671H442.863V80.0471ZM453.345 80.4071C449.025 80.4071 446.055 77.2871 446.055 72.7271C446.055 68.1371 448.965 64.9571 453.225 64.9571C457.395 64.9571 460.125 67.8371 460.125 72.1871V73.2371L448.785 73.2671C448.995 76.3571 450.615 78.0671 453.405 78.0671C455.595 78.0671 457.035 77.1671 457.515 75.4871H460.155C459.435 78.6371 456.975 80.4071 453.345 80.4071ZM453.225 67.3271C450.765 67.3271 449.205 68.7971 448.845 71.3771H457.305C457.305 68.9471 455.715 67.3271 453.225 67.3271ZM466.094 80.0471H463.274V65.3771H465.794L466.064 67.2971C466.814 65.9171 468.374 64.9571 470.444 64.9571C472.724 64.9571 474.344 66.0971 475.094 67.9271C475.784 66.0971 477.554 64.9571 479.834 64.9571C483.194 64.9571 485.234 67.0571 485.234 70.4471V80.0471H482.474V71.1371C482.474 68.8271 481.184 67.5071 479.204 67.5071C477.074 67.5071 475.664 69.0071 475.664 71.3471V80.0471H472.874V71.1071C472.874 68.7971 471.614 67.5371 469.634 67.5371C467.504 67.5371 466.094 69.0071 466.094 71.3471V80.0471ZM487.768 75.7871H490.468C490.468 77.2871 491.608 78.1871 493.468 78.1871C495.448 78.1871 496.588 77.3771 496.588 76.0271C496.588 75.0371 496.108 74.4371 494.578 74.0471L491.998 73.4471C489.388 72.8171 488.158 71.5271 488.158 69.3671C488.158 66.6671 490.438 64.9571 493.678 64.9571C496.888 64.9571 498.988 66.7571 499.048 69.5471H496.348C496.288 68.0771 495.298 67.1471 493.588 67.1471C491.818 67.1471 490.828 67.9271 490.828 69.2771C490.828 70.2671 491.548 70.9271 492.988 71.2871L495.568 71.9171C498.058 72.5171 499.288 73.6571 499.288 75.8471C499.288 78.6371 496.888 80.4071 493.408 80.4071C489.958 80.4071 487.768 78.5771 487.768 75.7871Z" fill="white"/>
<path d="M82.3588 32.0041H53.5807C41.6643 32.0041 32.0042 41.6643 32.0042 53.5807V82.3587C32.0042 94.2751 41.6643 103.935 53.5807 103.935H82.3588C94.2752 103.935 103.935 94.2751 103.935 82.3587V53.5807C103.935 41.6643 94.2752 32.0041 82.3588 32.0041Z" fill="#F45F26"/>
<path fill-rule="evenodd" clip-rule="evenodd" d="M80.4486 57.071L84.2633 60.8857L64.3732 80.7758L53.4744 69.8771L57.2892 66.0624L63.1016 71.8748C63.8039 72.5771 64.9425 72.5771 65.6448 71.8748L80.4486 57.071Z" fill="#0B0D01"/>
<path d="M581 0.5H24C11.0213 0.5 0.5 11.0213 0.5 24V111.939C0.5 124.918 11.0213 135.439 24 135.439H581C593.979 135.439 604.5 124.918 604.5 111.939V24C604.5 11.0213 593.979 0.5 581 0.5Z" stroke="white" stroke-opacity="0.16"/>
</g>
<defs>
<linearGradient id="paint0_linear_186_2116" x1="302.5" y1="0" x2="302.5" y2="135.939" gradientUnits="userSpaceOnUse">
<stop stop-color="#343434"/>
<stop offset="1" stop-color="#111308"/>
</linearGradient>
<clipPath id="clip0_186_2116">
<rect width="605" height="136" fill="white"/>
</clipPath>
</defs>
</svg>
