<svg width="605" height="136" viewBox="0 0 605 136" fill="none" xmlns="http://www.w3.org/2000/svg">
<g clip-path="url(#clip0_186_2073)">
<path d="M581 0H24C10.7452 0 0 10.7452 0 24V111.939C0 125.194 10.7452 135.939 24 135.939H581C594.255 135.939 605 125.194 605 111.939V24C605 10.7452 594.255 0 581 0Z" fill="url(#paint0_linear_186_2073)"/>
<path d="M137.9 80.0471L131.45 58.3571H134.51L138.47 71.6171C138.77 72.7571 139.07 73.8971 139.37 75.5471C139.73 73.8071 140.06 72.7571 140.39 71.6171L144.5 58.3571H147.68L151.76 71.6171C152.12 72.7871 152.42 73.9271 152.75 75.5471C153.11 73.7171 153.41 72.6071 153.71 71.6471L157.7 58.3571H160.7L154.16 80.0471H151.34L146.09 62.8871L140.78 80.0471H137.9ZM166.006 80.0171H163.186V57.9671H166.006V67.6271C166.936 66.0371 168.706 64.9571 170.986 64.9571C174.736 64.9571 176.536 67.3271 176.536 71.0771V80.0471H173.716V71.7071C173.716 68.7371 172.306 67.5371 170.206 67.5371C167.476 67.5371 166.006 69.5171 166.006 72.0371V80.0171ZM184.732 80.4071C181.582 80.4071 179.722 78.6371 179.722 75.9671C179.722 73.2671 181.732 71.5871 185.182 71.3171L189.802 70.9571V70.5371C189.802 68.0771 188.332 67.2071 186.352 67.2071C183.982 67.2071 182.632 68.2571 182.632 70.0271H180.172C180.172 66.9671 182.692 64.9571 186.472 64.9571C190.102 64.9571 192.562 66.8771 192.562 70.8371V80.0471H190.162L189.862 77.6771C189.112 79.3571 187.102 80.4071 184.732 80.4071ZM185.542 78.2171C188.212 78.2171 189.832 76.4771 189.832 73.7171V72.9371L186.082 73.2371C183.592 73.4771 182.572 74.4371 182.572 75.8771C182.572 77.4371 183.712 78.2171 185.542 78.2171ZM200.373 80.0471H197.553V67.7471H194.673V65.3771H197.553V60.7871H200.373V65.3771H203.253V67.7471H200.373V80.0471ZM219.867 80.4071C215.607 80.4071 213.027 77.2271 213.027 72.7571C213.027 68.2571 215.637 64.9571 219.987 64.9571C222.237 64.9571 224.127 65.9471 225.117 67.7471V57.9671H227.907V80.0471H225.387L225.147 77.3771C224.187 79.3871 222.207 80.4071 219.867 80.4071ZM220.437 77.8571C223.317 77.8571 225.087 75.7271 225.087 72.6671C225.087 69.6671 223.317 67.5071 220.437 67.5071C217.557 67.5071 215.877 69.6671 215.877 72.6671C215.877 75.6971 217.557 77.8571 220.437 77.8571ZM231.016 72.6971C231.016 68.1671 234.256 64.9871 238.666 64.9871C243.046 64.9871 246.286 68.1671 246.286 72.6971C246.286 77.2271 243.046 80.4071 238.666 80.4071C234.256 80.4071 231.016 77.2271 231.016 72.6971ZM233.866 72.6971C233.866 75.7571 235.816 77.8871 238.666 77.8871C241.486 77.8871 243.466 75.7571 243.466 72.6971C243.466 69.6371 241.486 67.5071 238.666 67.5071C235.816 67.5071 233.866 69.6371 233.866 72.6971ZM255.737 80.4071C251.417 80.4071 248.447 77.2871 248.447 72.7271C248.447 68.1371 251.357 64.9571 255.617 64.9571C259.787 64.9571 262.517 67.8371 262.517 72.1871V73.2371L251.177 73.2671C251.387 76.3571 253.007 78.0671 255.797 78.0671C257.987 78.0671 259.427 77.1671 259.907 75.4871H262.547C261.827 78.6371 259.367 80.4071 255.737 80.4071ZM255.617 67.3271C253.157 67.3271 251.597 68.7971 251.237 71.3771H259.697C259.697 68.9471 258.107 67.3271 255.617 67.3271ZM264.467 75.7871H267.167C267.167 77.2871 268.307 78.1871 270.167 78.1871C272.147 78.1871 273.287 77.3771 273.287 76.0271C273.287 75.0371 272.807 74.4371 271.277 74.0471L268.697 73.4471C266.087 72.8171 264.857 71.5271 264.857 69.3671C264.857 66.6671 267.137 64.9571 270.377 64.9571C273.587 64.9571 275.687 66.7571 275.747 69.5471H273.047C272.987 68.0771 271.997 67.1471 270.287 67.1471C268.517 67.1471 267.527 67.9271 267.527 69.2771C267.527 70.2671 268.247 70.9271 269.687 71.2871L272.267 71.9171C274.757 72.5171 275.987 73.6571 275.987 75.8471C275.987 78.6371 273.587 80.4071 270.107 80.4071C266.657 80.4071 264.467 78.5771 264.467 75.7871ZM285.907 86.6171V84.3071H287.797C289.147 84.3071 290.227 84.0971 290.917 82.2371L291.427 80.8271L285.517 65.3771H288.487L292.747 77.1971L297.097 65.3771H300.007L293.077 83.3471C292.087 85.8671 290.617 86.9171 288.367 86.9171C287.437 86.9171 286.657 86.7971 285.907 86.6171ZM300.742 72.6971C300.742 68.1671 303.982 64.9871 308.392 64.9871C312.772 64.9871 316.012 68.1671 316.012 72.6971C316.012 77.2271 312.772 80.4071 308.392 80.4071C303.982 80.4071 300.742 77.2271 300.742 72.6971ZM303.592 72.6971C303.592 75.7571 305.542 77.8871 308.392 77.8871C311.212 77.8871 313.192 75.7571 313.192 72.6971C313.192 69.6371 311.212 67.5071 308.392 67.5071C305.542 67.5071 303.592 69.6371 303.592 72.6971ZM328.922 65.3771H331.712V80.0471H329.192L328.892 77.8271C328.052 79.3571 326.102 80.4071 323.942 80.4071C320.522 80.4071 318.602 78.0971 318.602 74.4971V65.3771H321.422V73.5671C321.422 76.7171 322.772 77.9171 324.932 77.9171C327.512 77.9171 328.922 76.2671 328.922 73.1171V65.3771ZM344.204 65.2571V67.8371H342.944C340.274 67.8371 338.624 69.4571 338.624 72.2771V80.0471H335.804V65.4071H338.444L338.624 67.6271C339.224 66.0971 340.694 65.0771 342.704 65.0771C343.214 65.0771 343.634 65.1371 344.204 65.2571ZM354.092 72.7271C354.092 68.1371 357.002 64.9571 361.292 64.9571C364.982 64.9571 367.562 67.0571 368.072 70.3271H365.252C364.772 68.4671 363.272 67.4771 361.382 67.4771C358.712 67.4771 356.882 69.5171 356.882 72.6971C356.882 75.8471 358.592 77.8871 361.262 77.8871C363.272 77.8871 364.772 76.8371 365.282 75.0971H368.102C367.532 78.2771 364.802 80.4071 361.262 80.4071C356.942 80.4071 354.092 77.3471 354.092 72.7271ZM370.117 72.6971C370.117 68.1671 373.357 64.9871 377.767 64.9871C382.147 64.9871 385.387 68.1671 385.387 72.6971C385.387 77.2271 382.147 80.4071 377.767 80.4071C373.357 80.4071 370.117 77.2271 370.117 72.6971ZM372.967 72.6971C372.967 75.7571 374.917 77.8871 377.767 77.8871C380.587 77.8871 382.567 75.7571 382.567 72.6971C382.567 69.6371 380.587 67.5071 377.767 67.5071C374.917 67.5071 372.967 69.6371 372.967 72.6971ZM391.329 80.0471H388.509V65.3771H391.029L391.299 67.2971C392.049 65.9171 393.609 64.9571 395.679 64.9571C397.959 64.9571 399.579 66.0971 400.329 67.9271C401.019 66.0971 402.789 64.9571 405.069 64.9571C408.429 64.9571 410.469 67.0571 410.469 70.4471V80.0471H407.709V71.1371C407.709 68.8271 406.419 67.5071 404.439 67.5071C402.309 67.5071 400.899 69.0071 400.899 71.3471V80.0471H398.109V71.1071C398.109 68.7971 396.849 67.5371 394.869 67.5371C392.739 67.5371 391.329 69.0071 391.329 71.3471V80.0471ZM414.378 86.6171V65.3771H416.928L417.138 68.0171C418.128 66.0071 420.108 64.9571 422.448 64.9571C426.648 64.9571 429.258 68.1071 429.258 72.6071C429.258 77.0771 426.798 80.4371 422.448 80.4371C420.108 80.4371 418.158 79.4471 417.198 77.6471V86.6171H414.378ZM417.228 72.7271C417.228 75.7271 418.968 77.8871 421.848 77.8871C424.728 77.8871 426.438 75.7271 426.438 72.7271C426.438 69.6971 424.728 67.5371 421.848 67.5371C418.968 67.5371 417.228 69.6671 417.228 72.7271ZM436.656 80.4071C433.506 80.4071 431.646 78.6371 431.646 75.9671C431.646 73.2671 433.656 71.5871 437.106 71.3171L441.726 70.9571V70.5371C441.726 68.0771 440.256 67.2071 438.276 67.2071C435.906 67.2071 434.556 68.2571 434.556 70.0271H432.096C432.096 66.9671 434.616 64.9571 438.396 64.9571C442.026 64.9571 444.486 66.8771 444.486 70.8371V80.0471H442.086L441.786 77.6771C441.036 79.3571 439.026 80.4071 436.656 80.4071ZM437.466 78.2171C440.136 78.2171 441.756 76.4771 441.756 73.7171V72.9371L438.006 73.2371C435.516 73.4771 434.496 74.4371 434.496 75.8771C434.496 77.4371 435.636 78.2171 437.466 78.2171ZM451.212 80.0471H448.392V65.3771H450.942L451.242 67.6271C452.172 65.9471 454.032 64.9571 456.102 64.9571C459.972 64.9571 461.742 67.3271 461.742 71.0771V80.0471H458.922V71.7071C458.922 68.7371 457.542 67.5371 455.382 67.5371C452.742 67.5371 451.212 69.4271 451.212 72.2771V80.0471ZM463.944 86.6171V84.3071H465.834C467.184 84.3071 468.264 84.0971 468.954 82.2371L469.464 80.8271L463.554 65.3771H466.524L470.784 77.1971L475.134 65.3771H478.044L471.114 83.3471C470.124 85.8671 468.654 86.9171 466.404 86.9171C465.474 86.9171 464.694 86.7971 463.944 86.6171ZM494.379 80.4071C490.119 80.4071 487.539 77.2271 487.539 72.7571C487.539 68.2571 490.149 64.9571 494.499 64.9571C496.749 64.9571 498.639 65.9471 499.629 67.7471V57.9671H502.419V80.0471H499.899L499.659 77.3771C498.699 79.3871 496.719 80.4071 494.379 80.4071ZM494.949 77.8571C497.829 77.8571 499.599 75.7271 499.599 72.6671C499.599 69.6671 497.829 67.5071 494.949 67.5071C492.069 67.5071 490.389 69.6671 490.389 72.6671C490.389 75.6971 492.069 77.8571 494.949 77.8571ZM505.527 72.6971C505.527 68.1671 508.767 64.9871 513.177 64.9871C517.557 64.9871 520.797 68.1671 520.797 72.6971C520.797 77.2271 517.557 80.4071 513.177 80.4071C508.767 80.4071 505.527 77.2271 505.527 72.6971ZM508.377 72.6971C508.377 75.7571 510.327 77.8871 513.177 77.8871C515.997 77.8871 517.977 75.7571 517.977 72.6971C517.977 69.6371 515.997 67.5071 513.177 67.5071C510.327 67.5071 508.377 69.6371 508.377 72.6971ZM530.429 74.7971H527.819V74.0471C527.819 71.4971 529.469 70.1171 531.089 68.8571C532.559 67.7171 533.909 66.6071 533.909 64.6271C533.909 62.3171 532.379 60.6071 529.919 60.6071C527.549 60.6071 525.779 62.4671 525.779 64.9271H522.869C522.869 60.9371 525.929 57.9671 529.979 57.9671C534.239 57.9671 536.879 60.6671 536.879 64.4771C536.879 67.6271 534.839 69.1571 533.099 70.4171C531.509 71.5571 530.429 72.5171 530.429 74.0471V74.7971ZM529.259 80.4671C528.059 80.4671 527.099 79.5071 527.099 78.3371C527.099 77.1671 528.059 76.2071 529.259 76.2071C530.399 76.2071 531.389 77.1971 531.389 78.3371C531.389 79.4771 530.399 80.4671 529.259 80.4671Z" fill="white"/>
<path d="M82.3588 32.0041H53.5807C41.6643 32.0041 32.0042 41.6643 32.0042 53.5807V82.3587C32.0042 94.2751 41.6643 103.935 53.5807 103.935H82.3588C94.2752 103.935 103.935 94.2751 103.935 82.3587V53.5807C103.935 41.6643 94.2752 32.0041 82.3588 32.0041Z" fill="#F45F26"/>
<path fill-rule="evenodd" clip-rule="evenodd" d="M80.4486 57.071L84.2633 60.8857L64.3732 80.7758L53.4744 69.8771L57.2892 66.0624L63.1016 71.8748C63.8039 72.5771 64.9425 72.5771 65.6448 71.8748L80.4486 57.071Z" fill="#0B0D01"/>
<path d="M581 0.5H24C11.0213 0.5 0.5 11.0213 0.5 24V111.939C0.5 124.918 11.0213 135.439 24 135.439H581C593.979 135.439 604.5 124.918 604.5 111.939V24C604.5 11.0213 593.979 0.5 581 0.5Z" stroke="white" stroke-opacity="0.16"/>
</g>
<defs>
<linearGradient id="paint0_linear_186_2073" x1="302.5" y1="0" x2="302.5" y2="135.939" gradientUnits="userSpaceOnUse">
<stop stop-color="#343434"/>
<stop offset="1" stop-color="#111308"/>
</linearGradient>
<clipPath id="clip0_186_2073">
<rect width="605" height="136" fill="white"/>
</clipPath>
</defs>
</svg>
