<svg width="24" height="24" viewBox="0 0 24 24" fill="none" xmlns="http://www.w3.org/2000/svg">
<path d="M12.7101 17.7099L17.7101 12.7099C17.8011 12.6148 17.8725 12.5027 17.9201 12.3799C18.0201 12.1365 18.0201 11.8634 17.9201 11.6199C17.8725 11.4972 17.8011 11.385 17.7101 11.2899L12.7101 6.28994C12.6169 6.1967 12.5062 6.12274 12.3844 6.07228C12.2625 6.02182 12.132 5.99585 12.0001 5.99585C11.7338 5.99585 11.4784 6.10164 11.2901 6.28994C11.1018 6.47825 10.996 6.73364 10.996 6.99994C10.996 7.26624 11.1018 7.52164 11.2901 7.70994L14.5901 10.9999H7.0001C6.73489 10.9999 6.48053 11.1053 6.293 11.2928C6.10546 11.4804 6.0001 11.7347 6.0001 11.9999C6.0001 12.2652 6.10546 12.5195 6.293 12.707C6.48053 12.8946 6.73489 12.9999 7.0001 12.9999H14.5901L11.2901 16.2899C11.1964 16.3829 11.122 16.4935 11.0712 16.6154C11.0204 16.7372 10.9943 16.8679 10.9943 16.9999C10.9943 17.132 11.0204 17.2627 11.0712 17.3845C11.122 17.5064 11.1964 17.617 11.2901 17.7099C11.3831 17.8037 11.4937 17.8781 11.6155 17.9288C11.7374 17.9796 11.8681 18.0057 12.0001 18.0057C12.1321 18.0057 12.2628 17.9796 12.3847 17.9288C12.5065 17.8781 12.6171 17.8037 12.7101 17.7099Z" fill="#F45F26"/>
</svg>
