<svg width="101" height="81" viewBox="0 0 101 81" fill="none" xmlns="http://www.w3.org/2000/svg">
<g clip-path="url(#clip0_1245_1204)">
<mask id="path-1-inside-1_1245_1204" fill="white">
<path d="M0.5 0H100.5V81H0.5V0Z"/>
</mask>
<path d="M58.7908 84.9018L9.01605 85V75.5752L32.4799 55.7438C34.9015 53.7149 36.9305 51.8496 38.5667 50.1479C40.2684 48.4462 41.6102 46.8426 42.5919 45.3373C43.5737 43.8319 44.2936 42.3266 44.7518 40.8212C45.2099 39.3159 45.439 37.6796 45.439 35.9125C45.439 31.8546 44.3918 28.713 42.2974 26.4877C40.203 24.2624 37.2577 23.1497 33.4616 23.1497C29.5346 23.1497 26.4258 24.4587 24.135 27.0767C21.8443 29.6947 20.6662 33.2945 20.6007 37.876H8.13248C8.19793 32.64 9.27785 28.0912 11.3723 24.2297C13.4667 20.3027 16.4119 17.292 20.208 15.1976C24.0041 13.0377 28.422 11.9578 33.4616 11.9578C38.5667 11.9578 42.9519 12.9068 46.6171 14.8049C50.3477 16.6375 53.2275 19.2882 55.2565 22.757C57.2854 26.2259 58.2999 30.382 58.2999 35.2253C58.2999 37.7124 57.9399 40.1013 57.22 42.392C56.5655 44.6173 55.551 46.8099 54.1766 48.9698C52.8021 51.0642 51.1004 53.1913 49.0715 55.3511C47.0425 57.511 44.6536 59.769 41.9047 62.1252L24.4295 77.0478L19.9135 73.219H58.7908V84.9018Z" fill="#FC4F1C" fill-opacity="0.3"/>
</g>
<path d="M100.5 80H0.5V82H100.5V80Z" fill="#313131" mask="url(#path-1-inside-1_1245_1204)"/>
<defs>
<clipPath id="clip0_1245_1204">
<path d="M0.5 0H100.5V81H0.5V0Z" fill="white"/>
</clipPath>
</defs>
</svg>
