<svg width="22" height="24" viewBox="0 0 22 24" fill="none" xmlns="http://www.w3.org/2000/svg">
<path d="M12.0844 3.77713C12.0844 2.67366 13.4263 2.12982 14.1945 2.92195L21.2731 10.2209C21.7393 10.7016 22 11.3449 22 12.0145V20.4629C22 21.5664 20.6581 22.1103 19.8898 21.3181L12.8113 14.0192C12.3451 13.5385 12.0844 12.8952 12.0844 12.2256V3.77713Z" fill="#F45F26"/>
<path d="M5.93927 3.53689C5.93927 2.43343 7.28122 1.88958 8.04944 2.68171L15.0236 9.87291C15.5567 10.4227 15.8549 11.1585 15.8549 11.9243V20.2227C15.8549 21.3262 14.513 21.87 13.7448 21.0779L6.66617 13.779C6.19998 13.2983 5.93927 12.655 5.93927 11.9853V3.53689Z" fill="#717CE3"/>
<path d="M3.05176e-05 3.77713C3.05176e-05 2.67366 1.34198 2.12982 2.1102 2.92195L9.18879 10.2209C9.65497 10.7016 9.91569 11.3449 9.91569 12.0145V20.4629C9.91569 21.5664 8.57373 22.1103 7.80551 21.3181L0.72693 14.0192C0.260745 13.5385 3.05176e-05 12.8952 3.05176e-05 12.2256V3.77713Z" fill="#F45F26"/>
</svg>
