<svg width="175" height="82" viewBox="0 0 175 82" fill="none" xmlns="http://www.w3.org/2000/svg">
<g clip-path="url(#clip0_189_2715)">
<g filter="url(#filter0_d_189_2715)">
<path d="M8.11528 32.7974L2.41016 3.13074L27.5127 17.9641L14.9614 21.3871L8.11528 32.7974Z" fill="#F45F26"/>
</g>
<g filter="url(#filter1_d_189_2715)">
<path d="M169.26 39.6427H29.5346C28.0215 39.6427 26.7949 40.6644 26.7949 41.9248V76.1555C26.7949 77.4159 28.0215 78.4376 29.5346 78.4376H169.26C170.773 78.4376 172 77.4159 172 76.1555V41.9248C172 40.6644 170.773 39.6427 169.26 39.6427Z" fill="#F45F26"/>
</g>
<path d="M38.6923 66V51.38H44.5123C47.3923 51.38 49.1523 52.88 49.1523 55.32C49.1523 56.94 48.4323 58.1 47.0523 58.68C48.5923 59.18 49.3723 60.34 49.3723 62.04C49.3723 64.54 47.6323 66 44.6123 66H38.6923ZM44.2923 53.64H41.2523V57.62H44.3523C45.7523 57.62 46.5323 56.88 46.5323 55.58C46.5323 54.32 45.7323 53.64 44.2923 53.64ZM44.5123 59.78H41.2523V63.74H44.5123C45.9523 63.74 46.7523 63.04 46.7523 61.72C46.7523 60.48 45.9323 59.78 44.5123 59.78ZM53.8196 66H51.3996V51.12H53.8196V66ZM60.7991 66.26C57.8591 66.26 55.7991 64.12 55.7991 61.06C55.7991 57.96 57.8191 55.82 60.7191 55.82C63.6791 55.82 65.5591 57.8 65.5591 60.88V61.62L58.1191 61.64C58.2991 63.38 59.2191 64.26 60.8391 64.26C62.1791 64.26 63.0591 63.74 63.3391 62.8H65.5991C65.1791 64.96 63.3791 66.26 60.7991 66.26ZM60.7391 57.82C59.2991 57.82 58.4191 58.6 58.1791 60.08H63.1391C63.1391 58.72 62.1991 57.82 60.7391 57.82ZM69.952 66H67.512V56.12H69.772L69.972 57.4C70.592 56.4 71.792 55.82 73.132 55.82C75.612 55.82 76.892 57.36 76.892 59.92V66H74.452V60.5C74.452 58.84 73.632 58.04 72.372 58.04C70.872 58.04 69.952 59.08 69.952 60.68V66ZM83.3493 66.26C80.4893 66.26 78.7093 64.16 78.7093 61.1C78.7093 58.02 80.5093 55.82 83.4893 55.82C84.8693 55.82 86.0893 56.4 86.7093 57.38V51.12H89.1293V66H86.8893L86.7293 64.46C86.1293 65.6 84.8493 66.26 83.3493 66.26ZM83.8893 64.02C85.5893 64.02 86.6893 62.8 86.6893 61.02C86.6893 59.24 85.5893 58 83.8893 58C82.1893 58 81.1493 59.26 81.1493 61.02C81.1493 62.78 82.1893 64.02 83.8893 64.02ZM92.8921 54.14C92.0521 54.14 91.3921 53.48 91.3921 52.66C91.3921 51.84 92.0521 51.2 92.8921 51.2C93.6921 51.2 94.3521 51.84 94.3521 52.66C94.3521 53.48 93.6921 54.14 92.8921 54.14ZM91.6721 66V56.12H94.1121V66H91.6721ZM99.073 66H96.633V56.12H98.893L99.093 57.4C99.713 56.4 100.913 55.82 102.253 55.82C104.733 55.82 106.013 57.36 106.013 59.92V66H103.573V60.5C103.573 58.84 102.753 58.04 101.493 58.04C99.993 58.04 99.073 59.08 99.073 60.68V66ZM107.85 60.84C107.85 57.96 109.73 55.8 112.55 55.8C114.03 55.8 115.19 56.42 115.77 57.48L115.91 56.12H118.17V65.5C118.17 68.8 116.19 70.86 112.99 70.86C110.15 70.86 108.21 69.24 107.91 66.6H110.35C110.51 67.88 111.49 68.64 112.99 68.64C114.67 68.64 115.75 67.58 115.75 65.94V64.3C115.13 65.22 113.91 65.8 112.49 65.8C109.69 65.8 107.85 63.7 107.85 60.84ZM110.31 60.78C110.31 62.44 111.37 63.68 112.97 63.68C114.65 63.68 115.69 62.5 115.69 60.78C115.69 59.1 114.67 57.94 112.97 57.94C111.35 57.94 110.31 59.16 110.31 60.78ZM129.006 51.38V63.64H135.126V66H126.446V51.38H129.006ZM139.788 66.26C137.688 66.26 136.408 65.04 136.408 63.18C136.408 61.36 137.728 60.22 140.068 60.04L143.028 59.82V59.6C143.028 58.26 142.228 57.72 140.988 57.72C139.548 57.72 138.748 58.32 138.748 59.36H136.668C136.668 57.22 138.428 55.82 141.108 55.82C143.768 55.82 145.408 57.26 145.408 60V66H143.268L143.088 64.54C142.668 65.56 141.328 66.26 139.788 66.26ZM140.588 64.42C142.088 64.42 143.048 63.52 143.048 62V61.48L140.988 61.64C139.468 61.78 138.888 62.28 138.888 63.08C138.888 63.98 139.488 64.42 140.588 64.42ZM150.065 66H147.805V51.12H150.245V57.56C150.885 56.46 152.205 55.8 153.705 55.8C156.525 55.8 158.245 58 158.245 61.12C158.245 64.16 156.385 66.26 153.545 66.26C152.065 66.26 150.805 65.6 150.225 64.46L150.065 66ZM150.265 61.02C150.265 62.8 151.365 64.02 153.045 64.02C154.765 64.02 155.785 62.78 155.785 61.02C155.785 59.26 154.765 58 153.045 58C151.365 58 150.265 59.24 150.265 61.02Z" fill="white"/>
</g>
<defs>
<filter id="filter0_d_189_2715" x="0.758341" y="2.02953" width="28.4062" height="32.9703" filterUnits="userSpaceOnUse" color-interpolation-filters="sRGB">
<feFlood flood-opacity="0" result="BackgroundImageFix"/>
<feColorMatrix in="SourceAlpha" type="matrix" values="0 0 0 0 0 0 0 0 0 0 0 0 0 0 0 0 0 0 127 0" result="hardAlpha"/>
<feOffset dy="0.550605"/>
<feGaussianBlur stdDeviation="0.825908"/>
<feColorMatrix type="matrix" values="0 0 0 0 0 0 0 0 0 0 0 0 0 0 0 0 0 0 0.35 0"/>
<feBlend mode="normal" in2="BackgroundImageFix" result="effect1_dropShadow_189_2715"/>
<feBlend mode="normal" in="SourceGraphic" in2="effect1_dropShadow_189_2715" result="shape"/>
</filter>
<filter id="filter1_d_189_2715" x="24.5925" y="37.9909" width="149.61" height="43.1997" filterUnits="userSpaceOnUse" color-interpolation-filters="sRGB">
<feFlood flood-opacity="0" result="BackgroundImageFix"/>
<feColorMatrix in="SourceAlpha" type="matrix" values="0 0 0 0 0 0 0 0 0 0 0 0 0 0 0 0 0 0 127 0" result="hardAlpha"/>
<feOffset dy="0.550605"/>
<feGaussianBlur stdDeviation="1.10121"/>
<feColorMatrix type="matrix" values="0 0 0 0 0 0 0 0 0 0 0 0 0 0 0 0 0 0 0.16 0"/>
<feBlend mode="normal" in2="BackgroundImageFix" result="effect1_dropShadow_189_2715"/>
<feBlend mode="normal" in="SourceGraphic" in2="effect1_dropShadow_189_2715" result="shape"/>
</filter>
<clipPath id="clip0_189_2715">
<rect width="175" height="81.1403" fill="white" transform="translate(0 0.85968)"/>
</clipPath>
</defs>
</svg>
