<svg width="16" height="16" viewBox="0 0 16 16" fill="none" xmlns="http://www.w3.org/2000/svg">
<path d="M12.66 7.25047L11.04 8.27047L7.73999 4.98047L8.76999 3.35047C9.23999 2.61047 10.2 2.57047 10.9 3.27047L12.75 5.12047C13.41 5.77047 13.37 6.80047 12.66 7.25047Z" fill="#803BDE"/>
<path opacity="0.6" d="M9.57995 12.6197L4.50995 13.2197C4.28995 13.2497 4.08995 13.2397 3.89995 13.1797C3.34995 13.0597 2.95995 12.6697 2.83995 12.1197C2.77995 11.9297 2.76995 11.7297 2.79995 11.5097L3.38995 6.43968C3.54995 5.16968 4.00995 4.75968 5.34995 4.83968L7.73995 4.97968L11.04 8.26968L11.18 10.6697C11.31 12.0097 10.85 12.4697 9.57995 12.6197Z" fill="#803BDE"/>
<path d="M5.87997 11.2004L3.89997 13.1804C3.34997 13.0604 2.95997 12.6704 2.83997 12.1204L4.80997 10.1404C5.10997 9.85035 5.57997 9.85035 5.87997 10.1404C6.16997 10.4304 6.16997 10.9104 5.87997 11.2004Z" fill="#803BDE"/>
</svg>
