<svg width="57" height="57" viewBox="0 0 57 57" fill="none" xmlns="http://www.w3.org/2000/svg">
<rect x="0.5" y="0.5" width="56" height="56" rx="5.5" stroke="#2C2C2C"/>
<path opacity="0.4" d="M28.0001 42.0268C35.3639 42.0268 41.3334 36.0572 41.3334 28.6934C41.3334 21.3296 35.3639 15.3601 28.0001 15.3601C20.6363 15.3601 14.6667 21.3296 14.6667 28.6934C14.6667 36.0572 20.6363 42.0268 28.0001 42.0268Z" fill="#FC4F1C"/>
<path d="M23.5732 28.5735L25.7732 29.1202L24.5066 34.2402C24.2133 35.4402 24.7999 35.8402 25.8132 35.1336L32.7199 30.3469C33.5599 29.7602 33.4399 29.0802 32.4399 28.8269L30.2399 28.2802L31.5066 23.1602C31.7999 21.9602 31.2132 21.5602 30.1999 22.2669L23.2933 27.0536C22.4533 27.6402 22.5732 28.3202 23.5732 28.5735Z" fill="#FC4F1C"/>
</svg>
