<svg width="57" height="58" viewBox="0 0 57 58" fill="none" xmlns="http://www.w3.org/2000/svg">
<rect x="0.5" y="0.913574" width="56" height="56" rx="5.5" stroke="#2C2C2C"/>
<rect x="12" y="13.4136" width="32" height="32" rx="5" fill="#712B17"/>
<path d="M19.6317 24.0527C19.2101 23.6613 19.0005 23.1768 19.0005 22.6004C19.0005 22.024 19.2112 21.5182 19.6317 21.1257C20.0532 20.7343 20.5958 20.5381 21.2606 20.5381C21.9255 20.5381 22.4468 20.7343 22.8672 21.1257C23.2888 21.5171 23.4984 22.0094 23.4984 22.6004C23.4984 23.1914 23.2876 23.6613 22.8672 24.0527C22.4457 24.4441 21.9109 24.6403 21.2606 24.6403C20.6104 24.6403 20.0532 24.4441 19.6317 24.0527ZM23.1441 26.2978V38.2973H19.3536V26.2978H23.1441Z" fill="#FC4F1C"/>
<path d="M35.7618 27.4829C36.5881 28.3801 37.0007 29.6115 37.0007 31.1792V38.0851H33.4008V31.6659C33.4008 30.8753 33.1956 30.2608 32.7864 29.8234C32.3772 29.386 31.8256 29.1662 31.135 29.1662C30.4444 29.1662 29.8928 29.3849 29.4836 29.8234C29.0744 30.2608 28.8692 30.8753 28.8692 31.6659V38.0851H25.248V26.2639H28.8692V27.8317C29.2358 27.3091 29.7303 26.8964 30.3514 26.5925C30.9725 26.2886 31.6709 26.1372 32.4478 26.1372C33.8313 26.1372 34.9367 26.5858 35.7618 27.4818V27.4829Z" fill="#FC4F1C"/>
</svg>
