<svg width="57" height="57" viewBox="0 0 57 57" fill="none" xmlns="http://www.w3.org/2000/svg">
<rect x="0.5" y="0.5" width="56" height="56" rx="5.5" stroke="#2C2C2C"/>
<path d="M40.3332 42.0269H15.6665C15.1198 42.0269 14.6665 41.5735 14.6665 41.0269C14.6665 40.4802 15.1198 40.0269 15.6665 40.0269H40.3332C40.8798 40.0269 41.3332 40.4802 41.3332 41.0269C41.3332 41.5735 40.8798 42.0269 40.3332 42.0269Z" fill="#FC4F1C"/>
<path opacity="0.4" d="M39.4532 30.9601L29.8132 40.6002C27.9198 42.4935 24.8665 42.4935 22.9865 40.6135L16.8398 34.4668L33.3198 17.9868L39.4665 24.1335C41.3465 26.0135 41.3465 29.0668 39.4532 30.9601Z" fill="#FC4F1C"/>
<path d="M33.3201 17.9869L16.8267 34.4669L15.6134 33.2536C13.7334 31.3736 13.7334 28.3202 15.6267 26.4269L25.2667 16.7869C27.1601 14.8936 30.2134 14.8936 32.0934 16.7736L33.3201 17.9869Z" fill="#FC4F1C"/>
<path d="M29.1864 36.1601L27.3864 37.9601C27.0131 38.3334 26.4131 38.3334 26.0398 37.9601C25.6664 37.5868 25.6664 36.9868 26.0398 36.6134L27.8398 34.8134C28.2131 34.4401 28.8131 34.4401 29.1864 34.8134C29.5598 35.1868 29.5598 35.7868 29.1864 36.1601Z" fill="#FC4F1C"/>
<path d="M35.0263 30.3201L31.4397 33.9068C31.0663 34.2801 30.4663 34.2801 30.093 33.9068C29.7197 33.5335 29.7197 32.9335 30.093 32.5601L33.6797 28.9735C34.053 28.6001 34.653 28.6001 35.0263 28.9735C35.3863 29.3468 35.3863 29.9468 35.0263 30.3201Z" fill="#FC4F1C"/>
</svg>
