<svg width="57" height="58" viewBox="0 0 57 58" fill="none" xmlns="http://www.w3.org/2000/svg">
<rect x="0.5" y="0.913574" width="56" height="56" rx="5.5" stroke="#2C2C2C"/>
<path opacity="0.4" d="M34.6665 40.7467H21.3332C17.3332 40.7467 14.6665 38.7467 14.6665 34.0801V24.7467C14.6665 20.0801 17.3332 18.0801 21.3332 18.0801H34.6665C38.6665 18.0801 41.3332 20.0801 41.3332 24.7467V34.0801C41.3332 38.7467 38.6665 40.7467 34.6665 40.7467Z" fill="#FC4F1C"/>
<path d="M27.9999 30.5735C26.8799 30.5735 25.7465 30.2269 24.8799 29.5202L20.7065 26.1869C20.2799 25.8402 20.1999 25.2135 20.5465 24.7869C20.8932 24.3602 21.5199 24.2802 21.9465 24.6269L26.1199 27.9602C27.1332 28.7735 28.8532 28.7735 29.8665 27.9602L34.0399 24.6269C34.4665 24.2802 35.1065 24.3469 35.4399 24.7869C35.7865 25.2135 35.7199 25.8535 35.2799 26.1869L31.1065 29.5202C30.2532 30.2269 29.1199 30.5735 27.9999 30.5735Z" fill="#FC4F1C"/>
</svg>
