<svg width="55" height="55" viewBox="0 0 55 55" fill="none" xmlns="http://www.w3.org/2000/svg">
<rect width="55" height="54.9999" rx="27.5" fill="#E4E4E4"/>
<g clip-path="url(#clip0_133_2819)">
<path d="M22.3367 15.8396C22.6611 14.988 23.1071 14.2041 23.7694 13.5688C26.4187 10.9871 30.798 11.6359 32.5957 14.8799C33.9474 17.3399 35.3802 19.7459 36.7724 22.1788C39.0972 26.2203 41.4491 30.2618 43.7469 34.3167C45.6798 37.7094 43.5847 41.9941 39.746 42.5754C37.3941 42.9268 35.1909 41.8455 33.9744 39.7369C31.9334 36.182 29.8789 32.6272 27.8379 29.0858C27.7974 29.0047 27.7433 28.9371 27.6892 28.8695C27.473 28.6938 27.3783 28.437 27.2432 28.2072C26.3376 26.6123 25.4049 25.0308 24.4993 23.4494C23.9181 22.4221 23.3099 21.4084 22.7287 20.3811C22.2015 19.462 21.9582 18.4618 21.9852 17.4075C22.0258 16.8668 22.0934 16.3262 22.3367 15.8396Z" fill="#3C8BD9"/>
<path d="M22.3367 15.8396C22.2151 16.3262 22.1069 16.8128 22.0799 17.3264C22.0394 18.4618 22.3232 19.5161 22.8909 20.5028C24.3777 23.0575 25.8645 25.6256 27.3378 28.1937C27.473 28.4235 27.5811 28.6533 27.7163 28.8696C26.9053 30.2753 26.0943 31.6675 25.2698 33.0732C24.1344 35.0331 22.999 37.0066 21.8501 38.9665C21.7961 38.9665 21.7826 38.9394 21.769 38.8989C21.7555 38.7907 21.7961 38.6961 21.8231 38.588C22.3773 36.5605 21.9177 34.7628 20.5255 33.2219C19.674 32.2893 18.5926 31.7621 17.3491 31.5864C15.7271 31.3566 14.2944 31.7756 13.0103 32.7894C12.7805 32.9651 12.6318 33.2219 12.3615 33.3571C12.3074 33.3571 12.2804 33.33 12.2669 33.2895C12.9157 32.1676 13.551 31.0457 14.1997 29.9239C16.876 25.2742 19.5523 20.6245 22.2421 15.9883C22.2691 15.9342 22.3097 15.8937 22.3367 15.8396Z" fill="#FABC04"/>
<path d="M12.3209 33.3301C12.5777 33.1003 12.821 32.857 13.0913 32.6407C16.3759 30.0456 21.3094 31.9244 22.0258 36.0334C22.2015 37.0201 22.1069 37.9663 21.8095 38.9124C21.796 38.9935 21.7825 39.0611 21.7555 39.1422C21.6338 39.3585 21.5257 39.5883 21.3905 39.8045C20.1875 41.7915 18.4169 42.7782 16.092 42.6295C13.4292 42.4403 11.3342 40.4398 10.9692 37.7906C10.7935 36.5065 11.0503 35.3035 11.7126 34.1951C11.8478 33.9518 12.01 33.7356 12.1587 33.4923C12.2263 33.4382 12.1992 33.3301 12.3209 33.3301Z" fill="#34A852"/>
<path d="M12.3209 33.3299C12.2668 33.384 12.2668 33.4786 12.1722 33.4921C12.1587 33.3975 12.2128 33.3435 12.2668 33.2759L12.3209 33.3299Z" fill="#FABC04"/>
<path d="M21.7555 39.1421C21.7014 39.0475 21.7555 38.9799 21.8096 38.9124C21.8231 38.9259 21.8501 38.9529 21.8636 38.9664L21.7555 39.1421Z" fill="#E1C025"/>
</g>
<defs>
<clipPath id="clip0_133_2819">
<rect width="33.6563" height="30.6826" fill="white" transform="translate(10.8611 11.9739)"/>
</clipPath>
</defs>
</svg>
