<svg width="150" height="38" viewBox="0 0 150 38" fill="none" xmlns="http://www.w3.org/2000/svg">
<path d="M47.146 16.7457V5.28418H49.3763V16.7457H47.146ZM48.9669 11.9875V10.0251H55.0748V11.9875H48.9669ZM54.6655 16.7457V5.28418H56.8958V16.7457H54.6655Z" fill="#DEDEDE"/>
<path d="M65.2315 17.0434C64.1647 17.0434 63.2641 16.84 62.5323 16.4307C61.8004 16.0213 61.2422 15.4507 60.8602 14.7114C60.4781 13.9746 60.2871 13.1088 60.2871 12.114V5.28418H62.5174V12.238C62.5174 12.7813 62.6216 13.2601 62.8325 13.6744C63.0409 14.0887 63.3485 14.4063 63.7504 14.6321C64.1523 14.8578 64.6485 14.9694 65.2339 14.9694C65.8095 14.9694 66.2982 14.8578 66.7026 14.6321C67.1045 14.4063 67.4096 14.0912 67.6131 13.6819C67.8165 13.2725 67.9182 12.7937 67.9182 12.238V5.28418H70.1485V12.114C70.1485 13.1088 69.9624 13.9746 69.5903 14.7114C69.2182 15.4482 68.6674 16.0213 67.9331 16.4307C67.1988 16.84 66.2982 17.0434 65.2315 17.0434Z" fill="#DEDEDE"/>
<path d="M73.5347 16.7457V5.28418H76.5812L79.454 12.1289H79.7368L82.5948 5.28418H85.6884V16.7457H83.4755V6.9662L83.7583 6.99845L80.6647 14.4088H78.3872L75.2787 6.99845L75.5764 6.9662V16.7457H73.5347Z" fill="#DEDEDE"/>
<path d="M89.2959 16.8227V5.20483H91.479V16.8227H89.2959ZM91.164 11.4715V10.1045H93.6126C94.146 10.1045 94.538 9.96311 94.791 9.68029C95.0416 9.39748 95.1681 9.02039 95.1681 8.54902C95.1681 8.07766 95.0416 7.70057 94.791 7.41775C94.5404 7.13494 94.1485 6.99353 93.6126 6.99353H91.164V5.20483H93.4092C94.7066 5.20483 95.694 5.47772 96.3688 6.02103C97.0436 6.56434 97.381 7.34581 97.381 8.36048V8.58128C97.381 9.29328 97.2098 9.8614 96.8699 10.2856C96.5301 10.7098 96.0612 11.0125 95.4658 11.1961C94.8704 11.3797 94.1832 11.4715 93.4092 11.4715H91.164ZM91.164 16.8227V15.034H94.0368C94.5603 15.034 94.9572 14.8901 95.2301 14.6023C95.503 14.3145 95.6394 13.9201 95.6394 13.4165C95.6394 12.9153 95.503 12.5234 95.2301 12.248C94.9572 11.9701 94.5603 11.8312 94.0368 11.8312H91.164V10.4667H93.8805C94.6446 10.4667 95.3269 10.5585 95.9297 10.7421C96.5326 10.9257 97.0014 11.2308 97.3413 11.66C97.6812 12.0892 97.8524 12.6648 97.8524 13.3867V13.6075C97.8524 14.2872 97.7035 14.8653 97.4058 15.3416C97.1081 15.8179 96.6616 16.1851 96.0711 16.4406C95.4807 16.6962 94.7488 16.8252 93.8805 16.8252H91.164V16.8227Z" fill="#DEDEDE"/>
<path d="M100.881 16.7457V5.28418H103.112V16.7457H100.881ZM102.797 16.7457V14.7834H107.741V16.7457H102.797Z" fill="#DEDEDE"/>
<path d="M110.348 16.7457V5.28418H112.531V16.7457H110.348ZM112.216 7.16963V5.28666H117.287V7.16963H112.216ZM112.216 11.8634V9.98045H117.004V11.8634H112.216ZM112.216 16.7457V14.8628H117.414V16.7457H112.216Z" fill="#DEDEDE"/>
<path d="M47.146 32.452V20.9929H49.3291V32.452H47.146ZM49.0141 22.8759V20.9929H54.085V22.8759H49.0141ZM49.0141 27.5697V25.6867H53.8021V27.5697H49.0141ZM49.0141 32.452V30.569H54.2115V32.452H49.0141Z" fill="#DEDEDE"/>
<path d="M57.2876 32.5141V20.9136H59.5179V32.5141H57.2876ZM59.2028 32.5141V30.4426H61.572C62.1674 30.4426 62.7008 30.3507 63.1647 30.1672C63.6311 29.9836 64.0256 29.7256 64.3506 29.3907C64.6756 29.0557 64.9237 28.6613 65.0973 28.2048C65.271 27.7508 65.3553 27.2447 65.3553 26.689C65.3553 26.1135 65.2685 25.5974 65.0973 25.1434C64.9237 24.6894 64.6756 24.2975 64.3506 23.975C64.0256 23.65 63.6311 23.4044 63.1647 23.2381C62.6983 23.0719 62.1674 22.9876 61.572 22.9876H59.2028V20.9161H61.4331C62.4701 20.9161 63.3731 21.0674 64.1496 21.3701C64.9237 21.6727 65.5687 22.0895 66.0798 22.6179C66.5933 23.1463 66.9778 23.7492 67.2334 24.424C67.4889 25.0988 67.6179 25.7984 67.6179 26.5203V26.8651C67.6179 27.5548 67.4889 28.2371 67.2334 28.9069C66.9778 29.5767 66.5933 30.1845 66.0798 30.7278C65.5662 31.2711 64.9237 31.7053 64.1496 32.0303C63.3756 32.3553 62.4701 32.5165 61.4331 32.5165H59.2028V32.5141Z" fill="#DEDEDE"/>
<path d="M75.1201 32.7497C74.0534 32.7497 73.1528 32.5463 72.421 32.137C71.6891 31.7276 71.1309 31.157 70.7489 30.4177C70.3668 29.6809 70.1758 28.8151 70.1758 27.8203V20.9905H72.4061V27.9443C72.4061 28.4876 72.5103 28.9664 72.7211 29.3807C72.9295 29.795 73.2372 30.1126 73.6391 30.3383C74.041 30.5641 74.5371 30.6758 75.1226 30.6758C75.6982 30.6758 76.1869 30.5641 76.5913 30.3383C76.9932 30.1126 77.2983 29.7975 77.5017 29.3882C77.7052 28.9788 77.8069 28.5 77.8069 27.9443V20.9905H80.0372V27.8203C80.0372 28.8151 79.8511 29.6809 79.479 30.4177C79.1069 31.1545 78.5561 31.7276 77.8218 32.137C77.0874 32.5463 76.1894 32.7497 75.1201 32.7497Z" fill="#DEDEDE"/>
<path d="M88.5885 32.7498C87.5515 32.7498 86.6633 32.5662 85.9191 32.2015C85.1748 31.8344 84.572 31.358 84.1056 30.7726C83.6392 30.1871 83.2968 29.547 83.0785 28.8574C82.8577 28.1677 82.7485 27.5028 82.7485 26.8628V26.5179C82.7485 25.8059 82.8602 25.1063 83.0859 24.4141C83.3117 23.7245 83.659 23.0943 84.1304 22.5312C84.6017 21.9655 85.1996 21.514 85.929 21.1741C86.6559 20.8343 87.5167 20.6631 88.5116 20.6631C89.5486 20.6631 90.4491 20.8492 91.2207 21.2213C91.9897 21.5934 92.605 22.1169 93.0664 22.7917C93.5279 23.4664 93.8032 24.2554 93.8975 25.1534H91.6523C91.568 24.63 91.3819 24.1884 91.0941 23.8262C90.8064 23.464 90.4417 23.1936 90.0026 23.01C89.5634 22.8264 89.0648 22.7346 88.5116 22.7346C87.9459 22.7346 87.4448 22.8314 87.0057 23.0249C86.5666 23.2184 86.1994 23.4937 85.9067 23.8485C85.6139 24.2033 85.3907 24.6225 85.2393 25.1038C85.088 25.5851 85.0111 26.1185 85.0111 26.704C85.0111 27.2696 85.088 27.7931 85.2393 28.2743C85.3907 28.7556 85.6189 29.1774 85.9216 29.5371C86.2242 29.8993 86.5988 30.1772 87.0429 30.3781C87.487 30.5766 88.003 30.6758 88.5885 30.6758C89.4469 30.6758 90.1713 30.465 90.7617 30.0407C91.3521 29.6165 91.7119 29.0236 91.8359 28.2595H94.0811C93.9769 29.0757 93.699 29.8249 93.25 30.5046C92.801 31.1844 92.1832 31.7302 91.3968 32.137C90.6153 32.5464 89.6776 32.7498 88.5885 32.7498Z" fill="#DEDEDE"/>
<path d="M95.5127 32.452L99.4225 20.9929H103.064L107.083 32.452H104.791L101.385 22.5162L102.186 22.861H100.224L101.04 22.5162L97.743 32.452H95.5127ZM98.2441 29.4055L98.9512 27.5225H103.598L104.287 29.4055H98.2441Z" fill="#DEDEDE"/>
<path d="M107.538 22.9553V20.9929H116.392V22.9553H107.538ZM110.85 32.452V22.6402H113.08V32.452H110.85Z" fill="#DEDEDE"/>
<path d="M118.981 32.452V20.9929H121.209V32.452H118.981Z" fill="#DEDEDE"/>
<path d="M130.237 32.7498C129.2 32.7498 128.305 32.5662 127.546 32.2015C126.787 31.8343 126.159 31.3555 125.663 30.7651C125.167 30.1747 124.794 29.5346 124.549 28.8499C124.303 28.1652 124.179 27.5028 124.179 26.8652V26.5204C124.179 25.8183 124.306 25.1212 124.556 24.424C124.807 23.7294 125.186 23.0968 125.695 22.5336C126.204 21.968 126.834 21.5165 127.585 21.1766C128.34 20.8367 129.223 20.6655 130.237 20.6655C131.242 20.6655 132.12 20.8367 132.875 21.1766C133.629 21.5165 134.259 21.9705 134.767 22.5336C135.276 23.0993 135.656 23.7294 135.906 24.424C136.157 25.1212 136.283 25.8183 136.283 26.5204V26.8652C136.283 27.5028 136.159 28.1652 135.914 28.8499C135.668 29.5346 135.296 30.1747 134.8 30.7651C134.304 31.3555 133.673 31.8343 132.917 32.2015C132.155 32.5662 131.262 32.7498 130.237 32.7498ZM130.237 30.6783C130.823 30.6783 131.349 30.5741 131.815 30.3632C132.282 30.1548 132.679 29.8645 133.009 29.4924C133.339 29.1203 133.589 28.6961 133.763 28.2197C133.936 27.7434 134.021 27.2398 134.021 26.7039C134.021 26.1284 133.934 25.6 133.763 25.1187C133.589 24.6374 133.339 24.2181 133.009 23.8634C132.679 23.5086 132.279 23.2307 131.808 23.0323C131.336 22.8338 130.813 22.7346 130.237 22.7346C129.652 22.7346 129.124 22.8338 128.652 23.0323C128.181 23.2307 127.781 23.5086 127.451 23.8634C127.121 24.2181 126.871 24.6374 126.697 25.1187C126.524 25.6 126.439 26.1284 126.439 26.7039C126.439 27.2373 126.526 27.7434 126.697 28.2197C126.871 28.6961 127.121 29.1203 127.451 29.4924C127.781 29.8645 128.181 30.1548 128.652 30.3632C129.124 30.5741 129.652 30.6783 130.237 30.6783Z" fill="#DEDEDE"/>
<path d="M139.215 32.452V20.9929H142.872L147.692 30.6013H148.211L147.896 30.8841V20.9929H150V32.452H146.325L141.505 22.8436H140.972L141.287 22.5608V32.452H139.215Z" fill="#DEDEDE"/>
<path d="M34.2705 0V4.38119H32.5786V21.0625V33.6975H34.2705V37.9571H25.9944V33.6975H27.8079V21.0625H6.55442V33.6975H8.27614V37.9571H0L0.0595381 33.6975H1.78125V4.32165H0.0297691V0.00248328H8.27614V4.38368H6.55442V16.5944H27.8079V4.38368H26.0267V0H34.2705Z" fill="#DEDEDE"/>
<path d="M12.0768 15.2125H15.1133V10.7147H20.3703V12.4067H23.3523V7.92627H10.9033V10.6751H12.0768V15.2125Z" fill="#DEDEDE"/>
<path d="M20.4102 27.319H15.1136V22.4417H12.077V27.319H10.9805V30.0306H23.3525V25.2624H20.4102V27.319Z" fill="#DEDEDE"/>
</svg>
