<svg width="123" height="30" viewBox="0 0 123 30" fill="none" xmlns="http://www.w3.org/2000/svg">
<g clip-path="url(#clip0_1106_1309)">
<path fill-rule="evenodd" clip-rule="evenodd" d="M1.80176 18.6224C1.10934 19.7192 0.505415 20.8774 0 22.0871V2.28223V0.480469H1.80176H5.40527H7.20703V2.28223V12.6465C6.58007 13.1367 5.97871 13.6581 5.40527 14.2085V2.28223H1.80176V18.6224ZM14.4141 27.5068V20.7587C14.9823 20.3624 15.5846 20.0117 16.2158 19.7119V27.5068H19.8193V18.6258C20.4078 18.5416 21.0094 18.498 21.6211 18.498V27.5068V29.3086H19.8193H16.2158H14.4141V27.5068ZM14.4141 8.81708C15.0048 8.62629 15.6057 8.45832 16.2158 8.31418V2.28223H19.8193V7.75577C20.414 7.71051 21.0148 7.6875 21.6211 7.6875V2.28223V0.480469H19.8193H16.2158H14.4141V2.28223V8.81708ZM1.88244 29.3086H0.0740071C0.124171 28.7005 0.199498 28.0996 0.298944 27.5068C1.91734 17.8602 9.92351 10.3797 19.8193 9.56325C20.4134 9.51424 21.0144 9.48926 21.6211 9.48926V11.291V14.8945V16.6963C14.2706 16.6963 8.2052 22.1983 7.31855 29.3086H1.88244ZM2.1283 27.5068C3.7163 18.8588 10.9202 12.1739 19.8193 11.3718V14.9935C12.9143 15.7566 7.31744 20.8547 5.80747 27.5068H2.1283Z" fill="#DEDEDE"/>
<path d="M32.4336 12.1875V0.481445H34.7107V5.3242H40.1147V0.481445H42.3917V12.1875H40.1147V7.32867H34.7107V12.1875H32.4336Z" fill="#DEDEDE"/>
<path d="M51.9898 12.4922C50.8886 12.4922 49.9637 12.2837 49.2156 11.8667C48.467 11.4498 47.9006 10.8672 47.5158 10.1188C47.1309 9.35985 46.9385 8.47257 46.9385 7.45695V0.481445H49.2156V7.58524C49.2156 8.42981 49.4505 9.10861 49.9209 9.62175C50.4023 10.1242 51.0918 10.3755 51.9898 10.3755C52.8662 10.3755 53.5398 10.1242 54.0102 9.62175C54.4911 9.11933 54.7318 8.44047 54.7318 7.58524V0.481445H57.0088V7.45695C57.0088 8.47257 56.8166 9.35985 56.4317 10.1188C56.0469 10.8672 55.4799 11.4498 54.7318 11.8667C53.9943 12.2837 53.08 12.4922 51.9898 12.4922Z" fill="#DEDEDE"/>
<path d="M61.5635 12.1875V0.481445H64.674L67.6087 7.473H67.8975L70.8159 0.481445H73.9749V12.1875H71.7139V2.91886L68.8435 9.79813H66.5181L63.6477 2.96697V12.1875H61.5635Z" fill="#DEDEDE"/>
<path d="M78.7515 12.2675V0.401123H82.9527C84.2783 0.401123 85.283 0.679075 85.9671 1.23498C86.6624 1.79088 87.0098 2.58731 87.0098 3.62429V3.84878C87.0098 4.41538 86.9026 4.88577 86.6888 5.25991C86.4861 5.6341 86.2026 5.93877 85.8389 6.17396C86.352 6.38776 86.7532 6.70314 87.042 7.12005C87.3413 7.537 87.4907 8.08219 87.4907 8.75571V8.98018C87.4907 10.0278 87.1433 10.8403 86.4486 11.4176C85.7644 11.9842 84.7592 12.2675 83.4336 12.2675H78.7515ZM83.1612 2.22919H80.9804V5.40424H83.1612C83.7065 5.40424 84.1072 5.25991 84.3638 4.97129C84.6204 4.68264 84.7487 4.29778 84.7487 3.81671C84.7487 3.33564 84.6204 2.95079 84.3638 2.66215C84.1072 2.37351 83.7065 2.22919 83.1612 2.22919ZM83.5941 7.16814H80.9804V10.4394H83.5941C84.1284 10.4394 84.5349 10.2951 84.8126 10.0065C85.0908 9.71784 85.2296 9.31161 85.2296 8.78775C85.2296 8.27461 85.0908 7.87909 84.8126 7.60114C84.5349 7.31247 84.1284 7.16814 83.5941 7.16814Z" fill="#DEDEDE"/>
<path d="M91.6797 12.1875V0.481445H93.9566V10.183H98.6873V12.1875H91.6797Z" fill="#DEDEDE"/>
<path d="M102.431 12.1875V0.481445H109.519V2.40572H104.66V5.27611H109.23V7.20038H104.66V10.2632H109.647V12.1875H102.431Z" fill="#DEDEDE"/>
<path d="M32.4316 29.3049V17.5989H34.7087V22.4416H40.1127V17.5989H42.3898V29.3049H40.1127V24.4461H34.7087V29.3049H32.4316Z" fill="#DEDEDE"/>
<path d="M51.9878 29.6095C50.8866 29.6095 49.9621 29.4011 49.2136 28.9842C48.4655 28.5673 47.8987 27.9846 47.5138 27.2363C47.129 26.4773 46.9365 25.5899 46.9365 24.5744V17.5989H49.2136V24.7027C49.2136 25.5472 49.449 26.226 49.9194 26.7392C50.4003 27.2416 51.0898 27.4928 51.9878 27.4928C52.8642 27.4928 53.5378 27.2416 54.0082 26.7392C54.4891 26.2367 54.7298 25.5579 54.7298 24.7027V17.5989H57.0068V24.5744C57.0068 25.5899 56.8146 26.4773 56.4297 27.2363C56.0449 27.9846 55.4784 28.5673 54.7298 28.9842C53.9923 29.4011 53.078 29.6095 51.9878 29.6095Z" fill="#DEDEDE"/>
<path d="M61.5615 29.3049V17.5989H65.2976L70.2205 27.4127H70.4291V17.5989H72.5777V29.3049H68.8257L63.9024 19.4911H63.678V29.3049H61.5615Z" fill="#DEDEDE"/>
<path d="M79.6647 29.3049V19.6033H76.2812V17.5989H85.3251V19.6033H81.9416V29.3049H79.6647Z" fill="#DEDEDE"/>
<path d="M89.0312 29.3049V17.5989H96.1186V19.5232H91.2601V22.3935H95.8304V24.3178H91.2601V27.3806H96.2469V29.3049H89.0312Z" fill="#DEDEDE"/>
<path d="M100.472 29.3047V17.5186H104.818C106.218 17.5186 107.335 17.8339 108.169 18.4646C109.003 19.0954 109.419 20.0522 109.419 21.335V21.6076C109.419 22.4842 109.217 23.2059 108.81 23.7724C108.415 24.339 107.864 24.756 107.159 25.0232L110.286 29.3047H107.623L104.866 25.392H104.818H102.749V29.3047H100.472ZM105.058 19.4589H102.749V23.548H105.058C105.678 23.548 106.175 23.3609 106.549 22.9867C106.923 22.6125 107.11 22.1208 107.11 21.5114C107.11 20.9021 106.923 20.4103 106.549 20.0362C106.175 19.6513 105.678 19.4589 105.058 19.4589Z" fill="#DEDEDE"/>
<path d="M117.8 29.6094C116.763 29.6094 115.886 29.4437 115.17 29.1123C114.454 28.7809 113.909 28.3265 113.535 27.7492C113.171 27.172 112.989 26.5092 112.989 25.7608H115.218C115.218 26.0815 115.304 26.3863 115.475 26.6749C115.646 26.9635 115.919 27.1987 116.293 27.3804C116.678 27.5622 117.18 27.6531 117.8 27.6531C118.634 27.6531 119.259 27.482 119.676 27.1399C120.093 26.7978 120.302 26.3809 120.302 25.8891C120.302 25.4829 120.125 25.1515 119.773 24.8949C119.42 24.6384 118.875 24.478 118.137 24.4138L117.111 24.3337C115.988 24.2375 115.09 23.89 114.417 23.2914C113.754 22.682 113.422 21.8802 113.422 20.886C113.422 20.1484 113.593 19.507 113.935 18.9617C114.288 18.4165 114.785 17.9996 115.427 17.711C116.068 17.4116 116.817 17.262 117.672 17.262C118.548 17.262 119.307 17.417 119.949 17.727C120.601 18.037 121.103 18.4753 121.456 19.0419C121.809 19.5978 121.986 20.2553 121.986 21.0143H119.757C119.757 20.5439 119.58 20.127 119.227 19.7635C118.885 19.4 118.367 19.2183 117.672 19.2183C116.988 19.2183 116.48 19.384 116.148 19.7154C115.817 20.0468 115.652 20.437 115.652 20.886C115.652 21.2495 115.78 21.5702 116.036 21.8481C116.304 22.1154 116.731 22.2704 117.319 22.3132L118.346 22.4094C119.179 22.4842 119.906 22.666 120.526 22.9546C121.157 23.2326 121.649 23.6174 122.001 24.1092C122.354 24.6009 122.53 25.1943 122.53 25.8891C122.53 26.6268 122.333 27.2789 121.938 27.8455C121.553 28.4014 121.007 28.8343 120.302 29.1444C119.596 29.4544 118.762 29.6094 117.8 29.6094Z" fill="#DEDEDE"/>
</g>
<defs>
<clipPath id="clip0_1106_1309">
<rect width="123" height="29.7891" fill="white"/>
</clipPath>
</defs>
</svg>
