<svg width="30" height="30" viewBox="0 0 30 30" fill="none" xmlns="http://www.w3.org/2000/svg">
<rect width="30" height="30" rx="7" fill="#FC4F1C"/>
<path d="M23.0388 16.7822C22.7638 16.5674 17.8504 12.7288 17.6098 12.5408L15.5267 7.38507L15.8462 7.256C16.2291 7.10129 16.4141 6.66544 16.2594 6.28255C16.1047 5.89963 15.6688 5.71465 15.2859 5.86935C15.0457 5.96639 9.05418 8.38714 8.84234 8.47273C8.45941 8.62744 8.27444 9.06329 8.42913 9.44618C8.58384 9.8291 9.0197 10.0141 9.40258 9.85938L9.72203 9.73031L11.805 14.8859C11.7599 15.2069 10.8931 21.3739 10.8461 21.7084C10.6176 23.3348 12.2339 24.5979 13.757 23.9826L18.1408 22.2114L22.5246 20.4402C24.0469 19.8252 24.3336 17.794 23.0388 16.7822ZM13.2668 14.5115L11.1087 9.17005L14.14 7.94533L16.2981 13.2868C16.3923 13.52 16.5027 13.5738 17.0174 13.9758L13.2281 15.5068C13.3188 14.8609 13.3612 14.745 13.2668 14.5115ZM15.2141 19.7443C14.8822 19.8784 14.5044 19.718 14.3703 19.3862C14.2362 19.0543 14.3966 18.6765 14.7285 18.5424C15.0604 18.4083 15.4381 18.5687 15.5722 18.9006C15.7063 19.2325 15.5459 19.6102 15.2141 19.7443ZM18.1955 19.1972C17.5514 19.4574 16.8184 19.1463 16.5581 18.5022C16.2979 17.8581 16.6091 17.125 17.2532 16.8648C17.8972 16.6046 18.6303 16.9158 18.8905 17.5599C19.1507 18.2039 18.8396 18.937 18.1955 19.1972Z" fill="#F0F0F0"/>
</svg>
