<svg width="30" height="30" viewBox="0 0 30 30" fill="none" xmlns="http://www.w3.org/2000/svg">
<rect width="30" height="30" rx="7" fill="#FC4F1C"/>
<path d="M21.4981 16.25C21.2746 16.0723 17.2808 12.8963 17.0851 12.7407L15.4168 8.50685L15.6791 8.40348C15.9936 8.27957 16.148 7.92418 16.0241 7.60976C15.9002 7.2953 15.5449 7.14085 15.2304 7.26475C15.0332 7.34247 10.1129 9.28128 9.93891 9.34983C9.62445 9.47374 9.47 9.82913 9.5939 10.1436C9.7178 10.458 10.0732 10.6125 10.3876 10.4886L10.6499 10.3852L12.3183 14.619C12.2791 14.8814 11.5263 19.9221 11.4854 20.1955C11.287 21.5249 12.6008 22.57 13.8516 22.0771L21.0516 19.24C22.3017 18.7474 22.5506 17.0872 21.4981 16.25ZM13.5172 14.3229L11.7887 9.93647L14.278 8.95557L16.0065 13.342C16.082 13.5335 16.1719 13.5783 16.5903 13.911L13.4785 15.1372C13.5573 14.6092 13.5927 14.5147 13.5172 14.3229ZM15.0738 18.619C14.8013 18.7264 14.4933 18.5925 14.3859 18.3199C14.2785 18.0474 14.4124 17.7394 14.6849 17.632C14.9575 17.5246 15.2655 17.6585 15.3729 17.931C15.4803 18.2035 15.3464 18.5116 15.0738 18.619ZM17.5176 18.1923C16.9887 18.4007 16.3909 18.1408 16.1825 17.6119C15.9741 17.083 16.2339 16.4853 16.7628 16.2769C17.2917 16.0685 17.8895 16.3283 18.0979 16.8572C18.3063 17.3861 18.0465 17.9838 17.5176 18.1923Z" fill="#F0F0F0"/>
</svg>
