<svg width="114" height="30" viewBox="0 0 114 30" fill="none" xmlns="http://www.w3.org/2000/svg">
<g clip-path="url(#clip0_6_88643)">
<rect width="30" height="30" rx="7" fill="#FC4F1C"/>
<g filter="url(#filter0_d_6_88643)">
<path d="M21.0887 21.5278L15.1547 23.9253C11.9173 25.2333 10.4862 23.5376 10.5755 20.7333L10.6673 17.7572C10.6673 17.7572 12.9942 16.7092 15.6243 16.5454C18.2545 16.3815 19.8511 14.0377 19.8511 14.0377L19.9604 13.8857L22.1762 16.0553C24.173 18.0168 24.2798 20.2386 21.0887 21.5278Z" fill="white"/>
<path opacity="0.4" d="M19.9604 13.8856L19.8511 14.0377C19.8511 14.0377 18.2545 16.3814 15.6243 16.5453C12.9942 16.7092 10.6673 17.7571 10.6673 17.7571L10.8391 11.9535L10.6073 12.0472C10.1051 12.2501 9.56033 12.2365 9.09386 12.0385C8.62738 11.8405 8.23919 11.4581 8.03628 10.9558C7.63045 9.95138 8.11544 8.79374 9.12762 8.38479L14.6212 6.16525C15.1311 5.95921 15.6713 5.98365 16.1378 6.18166C16.7453 6.43953 17.2253 6.98257 17.3269 7.72346C17.4632 8.63909 16.8813 9.51233 16.0159 9.86196L15.8923 9.91191L19.9604 13.8856Z" fill="white"/>
</g>
</g>
<path d="M42.508 11.228V20H40.972V11.228H42.508ZM44.452 16.268H42.04V14.972H44.368C44.792 14.972 45.116 14.868 45.34 14.66C45.564 14.444 45.676 14.14 45.676 13.748C45.676 13.372 45.56 13.084 45.328 12.884C45.096 12.684 44.76 12.584 44.32 12.584H41.992V11.228H44.452C45.324 11.228 46.008 11.44 46.504 11.864C47 12.288 47.248 12.868 47.248 13.604C47.248 14.132 47.12 14.576 46.864 14.936C46.608 15.288 46.228 15.544 45.724 15.704V15.536C46.268 15.664 46.68 15.904 46.96 16.256C47.24 16.608 47.38 17.064 47.38 17.624C47.38 18.12 47.268 18.548 47.044 18.908C46.82 19.26 46.492 19.532 46.06 19.724C45.636 19.908 45.124 20 44.524 20H41.992V18.644H44.452C44.892 18.644 45.228 18.54 45.46 18.332C45.692 18.124 45.808 17.824 45.808 17.432C45.808 17.064 45.688 16.78 45.448 16.58C45.216 16.372 44.884 16.268 44.452 16.268ZM50.0484 20H48.5964V11.072H50.0484V20ZM54.2361 20.156C53.6521 20.156 53.1321 20.024 52.6761 19.76C52.2281 19.488 51.8761 19.12 51.6201 18.656C51.3641 18.184 51.2361 17.644 51.2361 17.036C51.2361 16.42 51.3601 15.876 51.6081 15.404C51.8561 14.932 52.2041 14.564 52.6521 14.3C53.1001 14.028 53.6121 13.892 54.1881 13.892C54.7881 13.892 55.3041 14.02 55.7361 14.276C56.1681 14.524 56.5001 14.872 56.7321 15.32C56.9721 15.768 57.0921 16.304 57.0921 16.928V17.372L52.0041 17.384L52.0281 16.448H55.6401C55.6401 16.04 55.5081 15.712 55.2441 15.464C54.9881 15.216 54.6401 15.092 54.2001 15.092C53.8561 15.092 53.5641 15.164 53.3241 15.308C53.0921 15.452 52.9161 15.668 52.7961 15.956C52.6761 16.244 52.6161 16.596 52.6161 17.012C52.6161 17.652 52.7521 18.136 53.0241 18.464C53.3041 18.792 53.7161 18.956 54.2601 18.956C54.6601 18.956 54.9881 18.88 55.2441 18.728C55.5081 18.576 55.6801 18.36 55.7601 18.08H57.1161C56.9881 18.728 56.6681 19.236 56.1561 19.604C55.6521 19.972 55.0121 20.156 54.2361 20.156ZM59.7278 20H58.2638V14.072H59.6198L59.7398 14.84C59.9238 14.544 60.1838 14.312 60.5198 14.144C60.8638 13.976 61.2358 13.892 61.6358 13.892C62.3798 13.892 62.9398 14.112 63.3158 14.552C63.6998 14.992 63.8918 15.592 63.8918 16.352V20H62.4278V16.7C62.4278 16.204 62.3158 15.836 62.0918 15.596C61.8678 15.348 61.5638 15.224 61.1798 15.224C60.7238 15.224 60.3678 15.368 60.1118 15.656C59.8558 15.944 59.7278 16.328 59.7278 16.808V20ZM67.7662 20.156C67.1902 20.156 66.6942 20.028 66.2782 19.772C65.8702 19.508 65.5502 19.144 65.3182 18.68C65.0942 18.216 64.9822 17.676 64.9822 17.06C64.9822 16.444 65.0942 15.9 65.3182 15.428C65.5502 14.948 65.8822 14.572 66.3142 14.3C66.7462 14.028 67.2582 13.892 67.8502 13.892C68.2662 13.892 68.6462 13.976 68.9902 14.144C69.3342 14.304 69.5982 14.532 69.7822 14.828V11.072H71.2342V20H69.8902L69.7942 19.076C69.6182 19.412 69.3462 19.676 68.9782 19.868C68.6182 20.06 68.2142 20.156 67.7662 20.156ZM68.0902 18.812C68.4342 18.812 68.7302 18.74 68.9782 18.596C69.2262 18.444 69.4182 18.232 69.5542 17.96C69.6982 17.68 69.7702 17.364 69.7702 17.012C69.7702 16.652 69.6982 16.34 69.5542 16.076C69.4182 15.804 69.2262 15.592 68.9782 15.44C68.7302 15.28 68.4342 15.2 68.0902 15.2C67.7542 15.2 67.4622 15.28 67.2142 15.44C66.9662 15.592 66.7742 15.804 66.6382 16.076C66.5102 16.348 66.4462 16.66 66.4462 17.012C66.4462 17.364 66.5102 17.676 66.6382 17.948C66.7742 18.22 66.9662 18.432 67.2142 18.584C67.4622 18.736 67.7542 18.812 68.0902 18.812ZM72.7599 20V14.072H74.2239V20H72.7599ZM73.4799 12.884C73.2319 12.884 73.0199 12.8 72.8439 12.632C72.6759 12.456 72.5919 12.244 72.5919 11.996C72.5919 11.748 72.6759 11.54 72.8439 11.372C73.0199 11.204 73.2319 11.12 73.4799 11.12C73.7279 11.12 73.9359 11.204 74.1039 11.372C74.2799 11.54 74.3679 11.748 74.3679 11.996C74.3679 12.244 74.2799 12.456 74.1039 12.632C73.9359 12.8 73.7279 12.884 73.4799 12.884ZM77.2005 20H75.7365V14.072H77.0925L77.2125 14.84C77.3965 14.544 77.6565 14.312 77.9925 14.144C78.3365 13.976 78.7085 13.892 79.1085 13.892C79.8525 13.892 80.4125 14.112 80.7885 14.552C81.1725 14.992 81.3645 15.592 81.3645 16.352V20H79.9005V16.7C79.9005 16.204 79.7885 15.836 79.5645 15.596C79.3405 15.348 79.0365 15.224 78.6525 15.224C78.1965 15.224 77.8405 15.368 77.5845 15.656C77.3285 15.944 77.2005 16.328 77.2005 16.808V20ZM82.4669 16.904C82.4669 16.328 82.5829 15.816 82.8149 15.368C83.0549 14.912 83.3869 14.552 83.8109 14.288C84.2349 14.024 84.7269 13.892 85.2869 13.892C85.7909 13.892 86.2229 14.004 86.5829 14.228C86.9429 14.444 87.1949 14.748 87.3389 15.14L87.1829 15.272L87.3029 14.072H88.6589V19.7C88.6589 20.356 88.5309 20.924 88.2749 21.404C88.0269 21.892 87.6709 22.264 87.2069 22.52C86.7509 22.784 86.1989 22.916 85.5509 22.916C84.7029 22.916 84.0069 22.688 83.4629 22.232C82.9189 21.776 82.5989 21.152 82.5029 20.36H83.9669C84.0149 20.744 84.1749 21.044 84.4469 21.26C84.7269 21.476 85.0949 21.584 85.5509 21.584C86.0549 21.584 86.4549 21.436 86.7509 21.14C87.0549 20.852 87.2069 20.46 87.2069 19.964V18.488L87.3749 18.644C87.2309 19.02 86.9669 19.32 86.5829 19.544C86.1989 19.768 85.7549 19.88 85.2509 19.88C84.6909 19.88 84.2029 19.752 83.7869 19.496C83.3709 19.24 83.0469 18.888 82.8149 18.44C82.5829 17.992 82.4669 17.48 82.4669 16.904ZM83.9429 16.868C83.9429 17.204 84.0069 17.504 84.1349 17.768C84.2709 18.024 84.4589 18.228 84.6989 18.38C84.9389 18.532 85.2189 18.608 85.5389 18.608C85.8749 18.608 86.1629 18.536 86.4029 18.392C86.6509 18.24 86.8389 18.036 86.9669 17.78C87.1029 17.516 87.1709 17.212 87.1709 16.868C87.1709 16.524 87.1069 16.228 86.9789 15.98C86.8509 15.724 86.6629 15.524 86.4149 15.38C86.1749 15.236 85.8829 15.164 85.5389 15.164C85.2109 15.164 84.9269 15.24 84.6869 15.392C84.4469 15.536 84.2629 15.736 84.1349 15.992C84.0069 16.248 83.9429 16.54 83.9429 16.868ZM95.1603 11.228V20H93.6243V11.228H95.1603ZM93.8883 20V18.584H98.8203V20H93.8883ZM101.629 20.156C101.005 20.156 100.509 19.988 100.141 19.652C99.7814 19.308 99.6014 18.86 99.6014 18.308C99.6014 17.764 99.7894 17.332 100.165 17.012C100.549 16.684 101.093 16.492 101.797 16.436L103.573 16.292V16.16C103.573 15.888 103.521 15.672 103.417 15.512C103.321 15.344 103.181 15.224 102.997 15.152C102.813 15.072 102.597 15.032 102.349 15.032C101.917 15.032 101.585 15.12 101.353 15.296C101.121 15.464 101.005 15.704 101.005 16.016H99.7574C99.7574 15.584 99.8654 15.212 100.081 14.9C100.305 14.58 100.617 14.332 101.017 14.156C101.425 13.98 101.893 13.892 102.421 13.892C102.957 13.892 103.417 13.988 103.801 14.18C104.185 14.364 104.481 14.644 104.689 15.02C104.897 15.388 105.001 15.848 105.001 16.4V20H103.717L103.609 19.124C103.481 19.428 103.233 19.676 102.865 19.868C102.505 20.06 102.093 20.156 101.629 20.156ZM102.097 19.052C102.553 19.052 102.913 18.924 103.177 18.668C103.449 18.412 103.585 18.056 103.585 17.6V17.288L102.349 17.384C101.893 17.424 101.569 17.52 101.377 17.672C101.185 17.816 101.089 18.008 101.089 18.248C101.089 18.512 101.177 18.712 101.353 18.848C101.529 18.984 101.777 19.052 102.097 19.052ZM107.796 20H106.44V11.072H107.904V14.936C108.096 14.6 108.376 14.344 108.744 14.168C109.112 13.984 109.524 13.892 109.98 13.892C110.548 13.892 111.032 14.028 111.432 14.3C111.84 14.564 112.152 14.936 112.368 15.416C112.592 15.896 112.704 16.452 112.704 17.084C112.704 17.684 112.588 18.216 112.356 18.68C112.124 19.144 111.796 19.508 111.372 19.772C110.948 20.028 110.452 20.156 109.884 20.156C109.444 20.156 109.044 20.06 108.684 19.868C108.332 19.676 108.068 19.412 107.892 19.076L107.796 20ZM107.916 17.012C107.916 17.364 107.984 17.68 108.12 17.96C108.256 18.232 108.448 18.444 108.696 18.596C108.952 18.74 109.248 18.812 109.584 18.812C109.928 18.812 110.224 18.736 110.472 18.584C110.72 18.432 110.908 18.22 111.036 17.948C111.164 17.676 111.228 17.364 111.228 17.012C111.228 16.66 111.164 16.348 111.036 16.076C110.908 15.804 110.72 15.592 110.472 15.44C110.224 15.28 109.928 15.2 109.584 15.2C109.248 15.2 108.952 15.28 108.696 15.44C108.448 15.592 108.256 15.804 108.12 16.076C107.984 16.34 107.916 16.652 107.916 17.012Z" fill="white"/>
<defs>
<filter id="filter0_d_6_88643" x="-8.01791" y="-4.01788" width="46.0358" height="46.0358" filterUnits="userSpaceOnUse" color-interpolation-filters="sRGB">
<feFlood flood-opacity="0" result="BackgroundImageFix"/>
<feColorMatrix in="SourceAlpha" type="matrix" values="0 0 0 0 0 0 0 0 0 0 0 0 0 0 0 0 0 0 127 0" result="hardAlpha"/>
<feOffset dy="4"/>
<feGaussianBlur stdDeviation="5"/>
<feComposite in2="hardAlpha" operator="out"/>
<feColorMatrix type="matrix" values="0 0 0 0 0 0 0 0 0 0 0 0 0 0 0 0 0 0 0.25 0"/>
<feBlend mode="normal" in2="BackgroundImageFix" result="effect1_dropShadow_6_88643"/>
<feBlend mode="normal" in="SourceGraphic" in2="effect1_dropShadow_6_88643" result="shape"/>
</filter>
<clipPath id="clip0_6_88643">
<rect width="30" height="30" rx="7" fill="white"/>
</clipPath>
</defs>
</svg>
