<svg width="1212" height="841" viewBox="0 0 1212 841" fill="none" xmlns="http://www.w3.org/2000/svg">
<g clip-path="url(#clip0_1283_4794)">
<g opacity="0.4" filter="url(#filter0_f_1283_4794)">
<path d="M967 17C1031.67 74.3333 1166.9 196.3 1190.5 225.5C1190.5 225.5 1185.5 363 803.5 517C421.5 671 63 760 63 760C329.177 372.395 526.769 209.37 967 17Z" fill="url(#paint0_linear_1283_4794)"/>
</g>
<g style="mix-blend-mode:plus-lighter" filter="url(#filter1_f_1283_4794)">
<path d="M328.098 1328.5C289.931 1287.83 244.098 1195 366.098 1149C518.598 1091.5 765.098 1157.5 795.598 1123.5C826.098 1089.5 881.598 1048.5 838.598 944C795.598 839.5 617.598 726 614.098 631C610.598 536 538.598 541.5 644.598 442.5C750.598 343.5 1156.6 109.5 1191.1 99" stroke="#FC4F1C" stroke-width="11"/>
</g>
<g style="mix-blend-mode:overlay">
<circle cx="1.68536" cy="1.68536" r="1.68536" transform="matrix(0.406002 0.913872 0.913872 -0.406002 623.35 361.323)" fill="white"/>
</g>
<circle cx="0.843116" cy="0.843116" r="0.843116" transform="matrix(0.406002 0.913872 0.913872 -0.406002 658.94 375.02)" fill="white"/>
<g style="mix-blend-mode:overlay">
<circle cx="0.843116" cy="0.843116" r="0.843116" transform="matrix(0.406002 0.913872 0.913872 -0.406002 608.282 427.034)" fill="white"/>
</g>
<circle cx="0.843116" cy="0.843116" r="0.843116" transform="matrix(0.406002 0.913872 0.913872 -0.406002 760.11 424.195)" fill="white"/>
<g style="mix-blend-mode:overlay">
<circle cx="0.843116" cy="0.843116" r="0.843116" transform="matrix(0.406002 0.913872 0.913872 -0.406002 717.805 407.882)" fill="white"/>
</g>
<g style="mix-blend-mode:overlay">
<circle cx="1.68536" cy="1.68536" r="1.68536" transform="matrix(0.406002 0.913872 0.913872 -0.406002 675.367 411.981)" fill="white"/>
</g>
<circle cx="1.68536" cy="1.68536" r="1.68536" transform="matrix(0.406002 0.913872 0.913872 -0.406002 639.357 424.283)" fill="white"/>
<g style="mix-blend-mode:overlay">
<circle cx="1.68536" cy="1.68536" r="1.68536" transform="matrix(0.406002 0.913872 0.913872 -0.406002 727.209 449.811)" fill="white"/>
</g>
<g style="mix-blend-mode:overlay">
<circle cx="0.843116" cy="0.843116" r="0.843116" transform="matrix(0.406002 0.913872 0.913872 -0.406002 695.907 358.598)" fill="white"/>
</g>
<circle cx="0.843116" cy="0.843116" r="0.843116" transform="matrix(0.406002 0.913872 0.913872 -0.406002 706.17 398.296)" fill="white"/>
<circle cx="0.843116" cy="0.843116" r="0.843116" transform="matrix(0.406002 0.913872 0.913872 -0.406002 683.092 437.413)" fill="white"/>
<g style="mix-blend-mode:overlay">
<circle cx="0.843116" cy="0.843116" r="0.843116" transform="matrix(0.406002 0.913872 0.913872 -0.406002 639.085 413.346)" fill="white"/>
</g>
<g style="mix-blend-mode:overlay">
<circle cx="1.70868" cy="1.70868" r="1.70868" transform="matrix(0.999958 -0.0091533 -0.0091533 -0.999958 726.666 353.543)" fill="white"/>
</g>
<g style="mix-blend-mode:overlay">
<circle cx="0.854782" cy="0.854782" r="0.854782" transform="matrix(0.999958 -0.0091533 -0.0091533 -0.999958 753.76 325.951)" fill="white"/>
</g>
<g style="mix-blend-mode:overlay">
<circle cx="0.854782" cy="0.854782" r="0.854782" transform="matrix(0.999958 -0.0091533 -0.0091533 -0.999958 781.721 394.05)" fill="white"/>
</g>
<g style="mix-blend-mode:overlay">
<circle cx="0.854782" cy="0.854782" r="0.854782" transform="matrix(0.999958 -0.0091533 -0.0091533 -0.999958 849.561 338.747)" fill="white"/>
</g>
<circle cx="0.854782" cy="0.854782" r="0.854782" transform="matrix(0.999958 -0.0091533 -0.0091533 -0.999958 808.058 284.447)" fill="white"/>
<g style="mix-blend-mode:overlay">
<circle cx="1.70868" cy="1.70868" r="1.70868" transform="matrix(0.999958 -0.0091533 -0.0091533 -0.999958 794.76 325.578)" fill="white"/>
</g>
<g style="mix-blend-mode:overlay">
<circle cx="1.70868" cy="1.70868" r="1.70868" transform="matrix(0.999958 -0.0091533 -0.0091533 -0.999958 836.267 379.88)" fill="white"/>
</g>
<circle cx="1.70868" cy="1.70868" r="1.70868" transform="matrix(0.999958 -0.0091533 -0.0091533 -0.999958 850.85 292.601)" fill="white"/>
<circle cx="0.854782" cy="0.854782" r="0.854782" transform="matrix(0.999958 -0.0091533 -0.0091533 -0.999958 753.382 284.949)" fill="white"/>
<circle cx="0.854782" cy="0.854782" r="0.854782" transform="matrix(0.999958 -0.0091533 -0.0091533 -0.999958 794.449 291.407)" fill="white"/>
<g style="mix-blend-mode:overlay">
<circle cx="0.854782" cy="0.854782" r="0.854782" transform="matrix(0.999958 -0.0091533 -0.0091533 -0.999958 822.598 380.004)" fill="white"/>
</g>
<g style="mix-blend-mode:overlay">
<circle cx="0.854782" cy="0.854782" r="0.854782" transform="matrix(0.999958 -0.0091533 -0.0091533 -0.999958 781.407 359.876)" fill="white"/>
</g>
<circle cx="1.86462" cy="1.86462" r="1.86462" transform="matrix(0.484002 0.875067 0.875067 -0.484002 899.91 185.558)" fill="white"/>
<g style="mix-blend-mode:overlay">
<circle cx="0.932791" cy="0.932791" r="0.932791" transform="matrix(0.484002 0.875067 0.875067 -0.484002 934.366 186.959)" fill="white"/>
</g>
<circle cx="0.932791" cy="0.932791" r="0.932791" transform="matrix(0.484002 0.875067 0.875067 -0.484002 883.541 249.166)" fill="white"/>
<g style="mix-blend-mode:overlay">
<circle cx="0.932791" cy="0.932791" r="0.932791" transform="matrix(0.484002 0.875067 0.875067 -0.484002 971.853 285.55)" fill="white"/>
</g>
<g style="mix-blend-mode:overlay">
<circle cx="0.932791" cy="0.932791" r="0.932791" transform="matrix(0.484002 0.875067 0.875067 -0.484002 1002.4 217.514)" fill="white"/>
</g>
<g style="mix-blend-mode:overlay">
<circle cx="1.86462" cy="1.86462" r="1.86462" transform="matrix(0.484002 0.875067 0.875067 -0.484002 956.023 226.119)" fill="white"/>
</g>
<circle cx="1.86462" cy="1.86462" r="1.86462" transform="matrix(0.484002 0.875067 0.875067 -0.484002 925.589 307.115)" fill="white"/>
<g style="mix-blend-mode:overlay">
<circle cx="1.86462" cy="1.86462" r="1.86462" transform="matrix(0.484002 0.875067 0.875067 -0.484002 1016.81 262.814)" fill="white"/>
</g>
<g style="mix-blend-mode:overlay">
<circle cx="0.932791" cy="0.932791" r="0.932791" transform="matrix(0.484002 0.875067 0.875067 -0.484002 973.523 165.3)" fill="white"/>
</g>
<g style="mix-blend-mode:overlay">
<circle cx="0.932791" cy="0.932791" r="0.932791" transform="matrix(0.484002 0.875067 0.875067 -0.484002 988.661 208.066)" fill="white"/>
</g>
<circle cx="0.932791" cy="0.932791" r="0.932791" transform="matrix(0.484002 0.875067 0.875067 -0.484002 918.252 281.103)" fill="white"/>
<circle cx="0.932791" cy="0.932791" r="0.932791" transform="matrix(0.484002 0.875067 0.875067 -0.484002 916.174 231.115)" fill="white"/>
<g style="mix-blend-mode:overlay">
<circle cx="2.06695" cy="2.06695" r="2.06695" transform="matrix(-0.498843 0.866692 0.866692 0.498843 688.112 151.246)" fill="white"/>
</g>
<g style="mix-blend-mode:overlay">
<circle cx="1.03401" cy="1.03401" r="1.03401" transform="matrix(-0.498843 0.866692 0.866692 0.498843 700.279 196.401)" fill="white"/>
</g>
<g style="mix-blend-mode:overlay">
<circle cx="1.03401" cy="1.03401" r="1.03401" transform="matrix(-0.498843 0.866692 0.866692 0.498843 612.125 183.825)" fill="white"/>
</g>
<g style="mix-blend-mode:overlay">
<circle cx="1.03401" cy="1.03401" r="1.03401" transform="matrix(-0.498843 0.866692 0.866692 0.498843 628.206 288.475)" fill="white"/>
</g>
<g style="mix-blend-mode:overlay">
<circle cx="1.03401" cy="1.03401" r="1.03401" transform="matrix(-0.498843 0.866692 0.866692 0.498843 710.276 278.476)" fill="white"/>
</g>
<g style="mix-blend-mode:overlay">
<circle cx="2.06695" cy="2.06695" r="2.06695" transform="matrix(-0.498843 0.866692 0.866692 0.498843 675.534 239.396)" fill="white"/>
</g>
<circle cx="2.06695" cy="2.06695" r="2.06695" transform="matrix(-0.498843 0.866692 0.866692 0.498843 593.114 278.569)" fill="white"/>
<g style="mix-blend-mode:overlay">
<circle cx="2.06695" cy="2.06695" r="2.06695" transform="matrix(-0.498843 0.866692 0.866692 0.498843 675.264 287.418)" fill="white"/>
</g>
<g style="mix-blend-mode:overlay">
<circle cx="1.03401" cy="1.03401" r="1.03401" transform="matrix(-0.498843 0.866692 0.866692 0.498843 743.271 221.151)" fill="white"/>
</g>
<g style="mix-blend-mode:overlay">
<circle cx="1.03401" cy="1.03401" r="1.03401" transform="matrix(-0.498843 0.866692 0.866692 0.498843 711.361 260.019)" fill="white"/>
</g>
<circle cx="1.03401" cy="1.03401" r="1.03401" transform="matrix(-0.498843 0.866692 0.866692 0.498843 634.133 243.439)" fill="white"/>
<g style="mix-blend-mode:overlay">
<circle cx="1.03401" cy="1.03401" r="1.03401" transform="matrix(-0.498843 0.866692 0.866692 0.498843 647.95 204.444)" fill="white"/>
</g>
<g style="mix-blend-mode:overlay">
<circle cx="1.68536" cy="1.68536" r="1.68536" transform="matrix(0.406002 0.913872 0.913872 -0.406002 623.35 361.323)" fill="white"/>
</g>
<circle cx="0.843116" cy="0.843116" r="0.843116" transform="matrix(0.406002 0.913872 0.913872 -0.406002 658.94 375.02)" fill="white"/>
<g style="mix-blend-mode:overlay">
<circle cx="0.843116" cy="0.843116" r="0.843116" transform="matrix(0.406002 0.913872 0.913872 -0.406002 608.282 427.034)" fill="white"/>
</g>
<circle cx="0.843116" cy="0.843116" r="0.843116" transform="matrix(0.406002 0.913872 0.913872 -0.406002 760.11 424.195)" fill="white"/>
<g style="mix-blend-mode:overlay">
<circle cx="0.843116" cy="0.843116" r="0.843116" transform="matrix(0.406002 0.913872 0.913872 -0.406002 717.805 407.882)" fill="white"/>
</g>
<g style="mix-blend-mode:overlay">
<circle cx="1.68536" cy="1.68536" r="1.68536" transform="matrix(0.406002 0.913872 0.913872 -0.406002 675.367 411.981)" fill="white"/>
</g>
<circle cx="1.68536" cy="1.68536" r="1.68536" transform="matrix(0.406002 0.913872 0.913872 -0.406002 639.357 424.283)" fill="white"/>
<g style="mix-blend-mode:overlay">
<circle cx="1.68536" cy="1.68536" r="1.68536" transform="matrix(0.406002 0.913872 0.913872 -0.406002 727.209 449.811)" fill="white"/>
</g>
<g style="mix-blend-mode:overlay">
<circle cx="0.843116" cy="0.843116" r="0.843116" transform="matrix(0.406002 0.913872 0.913872 -0.406002 695.907 358.598)" fill="white"/>
</g>
<circle cx="0.843116" cy="0.843116" r="0.843116" transform="matrix(0.406002 0.913872 0.913872 -0.406002 706.17 398.296)" fill="white"/>
<circle cx="0.843116" cy="0.843116" r="0.843116" transform="matrix(0.406002 0.913872 0.913872 -0.406002 683.092 437.413)" fill="white"/>
<g style="mix-blend-mode:overlay">
<circle cx="0.843116" cy="0.843116" r="0.843116" transform="matrix(0.406002 0.913872 0.913872 -0.406002 639.085 413.346)" fill="white"/>
</g>
<g style="mix-blend-mode:overlay">
<circle cx="1.70868" cy="1.70868" r="1.70868" transform="matrix(0.999958 -0.0091533 -0.0091533 -0.999958 726.666 353.543)" fill="white"/>
</g>
<g style="mix-blend-mode:overlay">
<circle cx="0.854782" cy="0.854782" r="0.854782" transform="matrix(0.999958 -0.0091533 -0.0091533 -0.999958 753.76 325.951)" fill="white"/>
</g>
<g style="mix-blend-mode:overlay">
<circle cx="0.854782" cy="0.854782" r="0.854782" transform="matrix(0.999958 -0.0091533 -0.0091533 -0.999958 781.721 394.05)" fill="white"/>
</g>
<g style="mix-blend-mode:overlay">
<circle cx="0.854782" cy="0.854782" r="0.854782" transform="matrix(0.999958 -0.0091533 -0.0091533 -0.999958 849.561 338.747)" fill="white"/>
</g>
<circle cx="0.854782" cy="0.854782" r="0.854782" transform="matrix(0.999958 -0.0091533 -0.0091533 -0.999958 808.058 284.447)" fill="white"/>
<g style="mix-blend-mode:overlay">
<circle cx="1.70868" cy="1.70868" r="1.70868" transform="matrix(0.999958 -0.0091533 -0.0091533 -0.999958 794.76 325.578)" fill="white"/>
</g>
<g style="mix-blend-mode:overlay">
<circle cx="1.70868" cy="1.70868" r="1.70868" transform="matrix(0.999958 -0.0091533 -0.0091533 -0.999958 836.267 379.88)" fill="white"/>
</g>
<circle cx="1.70868" cy="1.70868" r="1.70868" transform="matrix(0.999958 -0.0091533 -0.0091533 -0.999958 850.85 292.601)" fill="white"/>
<circle cx="0.854782" cy="0.854782" r="0.854782" transform="matrix(0.999958 -0.0091533 -0.0091533 -0.999958 753.382 284.949)" fill="white"/>
<circle cx="0.854782" cy="0.854782" r="0.854782" transform="matrix(0.999958 -0.0091533 -0.0091533 -0.999958 794.449 291.407)" fill="white"/>
<g style="mix-blend-mode:overlay">
<circle cx="0.854782" cy="0.854782" r="0.854782" transform="matrix(0.999958 -0.0091533 -0.0091533 -0.999958 822.598 380.004)" fill="white"/>
</g>
<g style="mix-blend-mode:overlay">
<circle cx="0.854782" cy="0.854782" r="0.854782" transform="matrix(0.999958 -0.0091533 -0.0091533 -0.999958 781.407 359.876)" fill="white"/>
</g>
<circle cx="1.86462" cy="1.86462" r="1.86462" transform="matrix(0.484002 0.875067 0.875067 -0.484002 899.91 185.558)" fill="white"/>
<g style="mix-blend-mode:overlay">
<circle cx="0.932791" cy="0.932791" r="0.932791" transform="matrix(0.484002 0.875067 0.875067 -0.484002 934.366 186.959)" fill="white"/>
</g>
<circle cx="0.932791" cy="0.932791" r="0.932791" transform="matrix(0.484002 0.875067 0.875067 -0.484002 883.541 249.166)" fill="white"/>
<g style="mix-blend-mode:overlay">
<circle cx="0.932791" cy="0.932791" r="0.932791" transform="matrix(0.484002 0.875067 0.875067 -0.484002 971.853 285.55)" fill="white"/>
</g>
<g style="mix-blend-mode:overlay">
<circle cx="0.932791" cy="0.932791" r="0.932791" transform="matrix(0.484002 0.875067 0.875067 -0.484002 1002.4 217.514)" fill="white"/>
</g>
<g style="mix-blend-mode:overlay">
<circle cx="1.86462" cy="1.86462" r="1.86462" transform="matrix(0.484002 0.875067 0.875067 -0.484002 956.023 226.119)" fill="white"/>
</g>
<circle cx="1.86462" cy="1.86462" r="1.86462" transform="matrix(0.484002 0.875067 0.875067 -0.484002 925.589 307.115)" fill="white"/>
<g style="mix-blend-mode:overlay">
<circle cx="1.86462" cy="1.86462" r="1.86462" transform="matrix(0.484002 0.875067 0.875067 -0.484002 1016.81 262.814)" fill="white"/>
</g>
<g style="mix-blend-mode:overlay">
<circle cx="0.932791" cy="0.932791" r="0.932791" transform="matrix(0.484002 0.875067 0.875067 -0.484002 973.523 165.3)" fill="white"/>
</g>
<g style="mix-blend-mode:overlay">
<circle cx="0.932791" cy="0.932791" r="0.932791" transform="matrix(0.484002 0.875067 0.875067 -0.484002 988.661 208.066)" fill="white"/>
</g>
<circle cx="0.932791" cy="0.932791" r="0.932791" transform="matrix(0.484002 0.875067 0.875067 -0.484002 918.252 281.103)" fill="white"/>
<circle cx="0.932791" cy="0.932791" r="0.932791" transform="matrix(0.484002 0.875067 0.875067 -0.484002 916.174 231.115)" fill="white"/>
<g style="mix-blend-mode:overlay">
<circle cx="2.06695" cy="2.06695" r="2.06695" transform="matrix(-0.498843 0.866692 0.866692 0.498843 688.112 151.246)" fill="white"/>
</g>
<g style="mix-blend-mode:overlay">
<circle cx="1.03401" cy="1.03401" r="1.03401" transform="matrix(-0.498843 0.866692 0.866692 0.498843 700.279 196.401)" fill="white"/>
</g>
<g style="mix-blend-mode:overlay">
<circle cx="1.03401" cy="1.03401" r="1.03401" transform="matrix(-0.498843 0.866692 0.866692 0.498843 612.125 183.825)" fill="white"/>
</g>
<g style="mix-blend-mode:overlay">
<circle cx="1.03401" cy="1.03401" r="1.03401" transform="matrix(-0.498843 0.866692 0.866692 0.498843 628.206 288.475)" fill="white"/>
</g>
<g style="mix-blend-mode:overlay">
<circle cx="1.03401" cy="1.03401" r="1.03401" transform="matrix(-0.498843 0.866692 0.866692 0.498843 710.276 278.476)" fill="white"/>
</g>
<g style="mix-blend-mode:overlay">
<circle cx="2.06695" cy="2.06695" r="2.06695" transform="matrix(-0.498843 0.866692 0.866692 0.498843 675.534 239.396)" fill="white"/>
</g>
<circle cx="2.06695" cy="2.06695" r="2.06695" transform="matrix(-0.498843 0.866692 0.866692 0.498843 593.114 278.569)" fill="white"/>
<g style="mix-blend-mode:overlay">
<circle cx="2.06695" cy="2.06695" r="2.06695" transform="matrix(-0.498843 0.866692 0.866692 0.498843 675.264 287.418)" fill="white"/>
</g>
<g style="mix-blend-mode:overlay">
<circle cx="1.03401" cy="1.03401" r="1.03401" transform="matrix(-0.498843 0.866692 0.866692 0.498843 743.271 221.151)" fill="white"/>
</g>
<g style="mix-blend-mode:overlay">
<circle cx="1.03401" cy="1.03401" r="1.03401" transform="matrix(-0.498843 0.866692 0.866692 0.498843 711.361 260.019)" fill="white"/>
</g>
<circle cx="1.03401" cy="1.03401" r="1.03401" transform="matrix(-0.498843 0.866692 0.866692 0.498843 634.133 243.439)" fill="white"/>
<g style="mix-blend-mode:overlay">
<circle cx="1.03401" cy="1.03401" r="1.03401" transform="matrix(-0.498843 0.866692 0.866692 0.498843 647.95 204.444)" fill="white"/>
</g>
<g opacity="0.4" filter="url(#filter2_f_1283_4794)">
<path d="M988 0C1052.67 57.3333 1187.9 179.3 1211.5 208.5L872 433.5L84 743L988 0Z" fill="url(#paint1_linear_1283_4794)"/>
</g>
</g>
<defs>
<filter id="filter0_f_1283_4794" x="-100.4" y="-146.4" width="1454.3" height="1069.8" filterUnits="userSpaceOnUse" color-interpolation-filters="sRGB">
<feFlood flood-opacity="0" result="BackgroundImageFix"/>
<feBlend mode="normal" in="SourceGraphic" in2="BackgroundImageFix" result="shape"/>
<feGaussianBlur stdDeviation="81.7" result="effect1_foregroundBlur_1283_4794"/>
</filter>
<filter id="filter1_f_1283_4794" x="-39.6" y="-227.362" width="1553.4" height="1880.73" filterUnits="userSpaceOnUse" color-interpolation-filters="sRGB">
<feFlood flood-opacity="0" result="BackgroundImageFix"/>
<feBlend mode="normal" in="SourceGraphic" in2="BackgroundImageFix" result="shape"/>
<feGaussianBlur stdDeviation="160.55" result="effect1_foregroundBlur_1283_4794"/>
</filter>
<filter id="filter2_f_1283_4794" x="-79.4" y="-163.4" width="1454.3" height="1069.8" filterUnits="userSpaceOnUse" color-interpolation-filters="sRGB">
<feFlood flood-opacity="0" result="BackgroundImageFix"/>
<feBlend mode="normal" in="SourceGraphic" in2="BackgroundImageFix" result="shape"/>
<feGaussianBlur stdDeviation="81.7" result="effect1_foregroundBlur_1283_4794"/>
</filter>
<linearGradient id="paint0_linear_1283_4794" x1="1076" y1="118" x2="113" y2="744.5" gradientUnits="userSpaceOnUse">
<stop stop-color="#FC4F1C"/>
<stop offset="1" stop-color="#FC4F1C" stop-opacity="0.1"/>
</linearGradient>
<linearGradient id="paint1_linear_1283_4794" x1="1172.5" y1="99.5" x2="252.5" y2="662" gradientUnits="userSpaceOnUse">
<stop stop-color="#FC4F1C" stop-opacity="0.5"/>
<stop offset="1" stop-color="#962F11"/>
</linearGradient>
<clipPath id="clip0_1283_4794">
<rect width="1212" height="841" fill="white"/>
</clipPath>
</defs>
</svg>
