<svg width="70" height="71" viewBox="0 0 70 71" fill="none" xmlns="http://www.w3.org/2000/svg">
<rect x="0.614035" y="1.11404" width="68.7719" height="68.7719" rx="6.75439" stroke="#2C2C2C" stroke-width="1.22807"/>
<path opacity="0.4" d="M20.9505 41.5L28.5005 49.05C31.6005 52.15 36.6338 52.15 39.7505 49.05L47.0672 41.7333C50.1672 38.6333 50.1672 33.6 47.0672 30.4833L39.5005 22.95C37.9172 21.3667 35.7338 20.5167 33.5005 20.6333L25.1672 21.0333C21.8338 21.1833 19.1838 23.8333 19.0172 27.15L18.6172 35.4833C18.5172 37.7333 19.3672 39.9167 20.9505 41.5Z" fill="#FC4F1C"/>
<path d="M29.8338 36.6333C32.4848 36.6333 34.6338 34.4843 34.6338 31.8333C34.6338 29.1824 32.4848 27.0333 29.8338 27.0333C27.1828 27.0333 25.0338 29.1824 25.0338 31.8333C25.0338 34.4843 27.1828 36.6333 29.8338 36.6333Z" fill="#FC4F1C"/>
<path d="M35.6672 45.5833C35.3505 45.5833 35.0338 45.4667 34.7838 45.2167C34.3005 44.7333 34.3005 43.9333 34.7838 43.45L41.4505 36.7833C41.9338 36.3 42.7338 36.3 43.2172 36.7833C43.7005 37.2667 43.7005 38.0667 43.2172 38.55L36.5505 45.2167C36.3005 45.4667 35.9838 45.5833 35.6672 45.5833Z" fill="#FC4F1C"/>
</svg>
