<svg width="48" height="48" viewBox="0 0 48 48" fill="none" xmlns="http://www.w3.org/2000/svg">
<rect width="48" height="48" rx="8" fill="#F1F1F1"/>
<path d="M37.3332 21C36.7865 21 36.3332 20.5466 36.3332 20V17.3333C36.3332 13.8933 34.1065 11.6666 30.6665 11.6666H17.3332C13.8932 11.6666 11.6665 13.8933 11.6665 17.3333V20C11.6665 20.5466 11.2132 21 10.6665 21C10.1198 21 9.6665 20.5466 9.6665 20V17.3333C9.6665 12.7466 12.7465 9.66663 17.3332 9.66663H30.6665C35.2532 9.66663 38.3332 12.7466 38.3332 17.3333V20C38.3332 20.5466 37.8798 21 37.3332 21Z" fill="#1D1C1A"/>
<path d="M30.6665 38.3333H17.3332C12.7465 38.3333 9.6665 35.2533 9.6665 30.6667V28C9.6665 27.4533 10.1198 27 10.6665 27C11.2132 27 11.6665 27.4533 11.6665 28V30.6667C11.6665 34.1067 13.8932 36.3333 17.3332 36.3333H30.6665C34.1065 36.3333 36.3332 34.1067 36.3332 30.6667V28C36.3332 27.4533 36.7865 27 37.3332 27C37.8798 27 38.3332 27.4533 38.3332 28V30.6667C38.3332 35.2533 35.2532 38.3333 30.6665 38.3333Z" fill="#1D1C1A"/>
<path d="M29.8669 18.9467L24.8535 16.24C24.3202 15.96 23.6935 15.96 23.1602 16.24L18.1335 18.9467C17.7735 19.1467 17.5469 19.5334 17.5469 19.96C17.5469 20.4 17.7735 20.7867 18.1335 20.9867L23.1469 23.6934C23.4135 23.84 23.7069 23.9067 24.0002 23.9067C24.2935 23.9067 24.5869 23.84 24.8535 23.6934L29.8669 20.9867C30.2269 20.7867 30.4535 20.4 30.4535 19.96C30.4535 19.5334 30.2269 19.1467 29.8669 18.9467Z" fill="#1D1C1A"/>
<path d="M22.32 24.6267L17.6533 22.2934C17.2933 22.12 16.88 22.1334 16.5333 22.3467C16.2 22.56 16 22.92 16 23.32V27.7334C16 28.4934 16.4267 29.1867 17.1067 29.52L21.7733 31.8534C21.9333 31.9334 22.1067 31.9734 22.2933 31.9734C22.5067 31.9734 22.7067 31.92 22.8933 31.8C23.24 31.5867 23.44 31.2267 23.44 30.8267V26.4134C23.4267 25.6534 23.0133 24.9734 22.32 24.6267Z" fill="#1D1C1A"/>
<path d="M31.4534 22.3467C31.1067 22.1334 30.6934 22.12 30.3334 22.2934L25.6667 24.6267C24.9867 24.9734 24.5601 25.6534 24.5601 26.4134V30.8267C24.5601 31.2267 24.7601 31.5867 25.1067 31.8C25.2934 31.92 25.4934 31.9734 25.7067 31.9734C25.8801 31.9734 26.0534 31.9334 26.2267 31.8534L30.8934 29.52C31.5734 29.1734 32.0001 28.4934 32.0001 27.7334V23.32C32.0001 22.92 31.8001 22.56 31.4534 22.3467Z" fill="#1D1C1A"/>
</svg>
