<svg width="119" height="48" viewBox="0 0 119 48" fill="none" xmlns="http://www.w3.org/2000/svg">
<mask id="mask0_1106_1521" style="mask-type:luminance" maskUnits="userSpaceOnUse" x="0" y="0" width="48" height="48">
<path d="M0 0H47.7991V47.7991H0V0Z" fill="white"/>
</mask>
<g mask="url(#mask0_1106_1521)">
<mask id="mask1_1106_1521" style="mask-type:luminance" maskUnits="userSpaceOnUse" x="-2" y="-2" width="52" height="52">
<path d="M-1.76025 23.9762L23.8998 -1.68384L49.5631 23.9762L23.8998 49.6395L-1.76025 23.9762Z" fill="white"/>
</mask>
<g mask="url(#mask1_1106_1521)">
<mask id="mask2_1106_1521" style="mask-type:luminance" maskUnits="userSpaceOnUse" x="0" y="0" width="48" height="48">
<path d="M2.31064 19.9019L19.8252 2.3873C20.9055 1.30702 22.3725 0.700195 23.8996 0.700195C25.4267 0.700195 26.8937 1.30702 27.974 2.3873L45.4886 19.9019C46.5688 20.9821 47.1757 22.4492 47.1757 23.9763C47.1757 25.5033 46.5688 26.9704 45.4886 28.0507L27.974 45.5652C26.8937 46.6455 25.4267 47.2523 23.8996 47.2523C22.3725 47.2523 20.9055 46.6455 19.8252 45.5652L2.31064 28.0507C1.23036 26.9704 0.623535 25.5033 0.623535 23.9763C0.623535 22.4492 1.23036 20.9821 2.31064 19.9019Z" fill="white"/>
</mask>
<g mask="url(#mask2_1106_1521)">
<path d="M-1.76025 23.9762L23.8998 -1.68384L49.5631 23.9762L23.8998 49.6395L-1.76025 23.9762Z" fill="#DEDEDE"/>
</g>
</g>
</g>
<path d="M21.029 42.4415L9.70605 31.1186L16.3878 24.4368C17.2347 23.5933 18.0816 22.9831 18.9351 22.6097C19.7887 22.2363 20.6322 22.1262 21.4691 22.2763C22.3027 22.4296 23.1095 22.8898 23.8831 23.6633C24.3899 24.1701 24.7366 24.7002 24.9234 25.2504C25.1167 25.7939 25.1701 26.3407 25.0834 26.8908C25.0034 27.4343 24.82 27.9778 24.5366 28.5179C24.2498 29.0614 23.8964 29.5815 23.4696 30.0783L23.1762 30.1316C23.9231 29.4048 24.6033 28.858 25.2168 28.4912C25.8369 28.1178 26.4371 27.9711 27.0172 28.0511C27.6041 28.1245 28.2175 28.4779 28.8577 29.1181L31.6051 31.8654L29.6312 33.8393L26.9906 31.1986C26.5538 30.7651 26.1303 30.4984 25.7236 30.3984C25.3135 30.3017 24.87 30.395 24.3899 30.6785C23.9164 30.9552 23.3296 31.4453 22.6294 32.1455L18.6684 36.1065L23.0162 40.4543L21.029 42.4415ZM17.0413 34.4794L21.7359 29.7849C22.4294 29.0914 22.7795 28.3912 22.7895 27.6777C22.8061 26.9575 22.5294 26.314 21.9626 25.7438C21.4091 25.1937 20.8056 24.9536 20.1488 25.0236C19.4919 25.097 18.8151 25.4771 18.1216 26.1706L13.427 30.8652L17.0413 34.4794Z" fill="#292929"/>
<path d="M38.3768 19.3592L40.2439 17.4921C40.7507 18.1789 41.0475 18.9325 41.1375 19.7593C41.2242 20.5862 41.0875 21.4465 40.7241 22.3334C40.3573 23.2236 39.7371 24.1071 38.8569 24.9874C37.87 25.9743 36.803 26.6778 35.6561 27.0946C34.5158 27.5047 33.3888 27.5947 32.2685 27.3613C31.1482 27.1313 30.1213 26.5478 29.1877 25.6142C28.2742 24.7006 27.6873 23.6804 27.4273 22.5601C27.1705 21.4398 27.2372 20.3128 27.6273 19.1725C28.0208 18.0356 28.7143 16.9686 29.7079 15.9717C30.7481 14.9314 31.8017 14.2512 32.8687 13.9312C33.9256 13.6044 34.9826 13.6344 36.0428 14.0245C37.1098 14.408 38.1701 15.1815 39.2303 16.3451L31.5483 24.0271C32.1018 24.4539 32.702 24.734 33.3488 24.8673C34.0056 24.994 34.6692 24.934 35.336 24.694C36.0028 24.4539 36.6363 24.0338 37.2432 23.427C37.9167 22.7535 38.3501 22.0533 38.5368 21.3331C38.7302 20.6062 38.6769 19.9461 38.3768 19.3592ZM31.2283 17.5988C30.438 18.3923 29.9846 19.2392 29.8679 20.1461C29.7445 21.0464 29.9079 21.8732 30.3614 22.6268L35.9762 17.012C35.2726 16.3985 34.4991 16.1517 33.6556 16.2651C32.812 16.3818 32.0018 16.8253 31.2283 17.5988Z" fill="#292929"/>
<path d="M19.1197 5.76611L19.7465 6.39294L16.9191 9.22035L17.906 10.2073L20.2266 7.88667L20.8134 8.47349L18.4928 10.7941L19.9599 12.2611L19.213 13.008L15.5454 9.34038L19.1197 5.76611Z" fill="#292929"/>
<path d="M20.1143 3.99829L20.7545 4.63846L19.9009 5.49201L19.2607 4.85185L20.1143 3.99829ZM20.5544 6.03882L21.2879 5.3053L24.102 8.11937L23.3685 8.85289L20.5544 6.03882Z" fill="#292929"/>
<path d="M22.0234 4.57009L22.7703 3.82323L25.5844 6.63729L24.8375 7.38415L22.0234 4.57009ZM24.0106 2.44954C24.1907 2.27282 24.3707 2.13612 24.5574 2.03609C24.7508 1.9294 24.9509 1.86938 25.1576 1.84938C25.361 1.83271 25.5644 1.86938 25.7711 1.95607C25.9745 2.0461 26.1779 2.1928 26.3846 2.39619L28.105 4.11664L27.3715 4.85016L25.7844 3.26308C25.5444 3.02302 25.3076 2.90299 25.0776 2.90299C24.8442 2.90299 24.6008 3.03302 24.344 3.28975C24.1407 3.49648 23.9973 3.7132 23.9173 3.94326C23.8372 4.17665 23.8072 4.39671 23.8239 4.6101C23.8439 4.82349 23.9039 5.00353 24.0106 5.14357L23.7305 4.8635C23.6172 4.71346 23.5305 4.54341 23.4771 4.3567C23.4171 4.16332 23.3905 3.95326 23.3971 3.72987C23.4071 3.50981 23.4638 3.28975 23.5705 3.07637C23.6705 2.85631 23.8172 2.64625 24.0106 2.44954Z" fill="#292929"/>
<path d="M55.5262 27.2178V19.7509H59.9395C60.4927 19.7509 60.9728 19.8315 61.3799 19.9929C61.7871 20.1465 62.102 20.3885 62.3248 20.7188C62.5476 21.0414 62.659 21.4563 62.659 21.9633C62.659 22.3013 62.6014 22.5932 62.4861 22.839C62.3709 23.0772 62.2096 23.2731 62.0022 23.4267C61.7947 23.5803 61.5528 23.6994 61.2762 23.7839C61.0073 23.8684 60.7193 23.9222 60.412 23.9452L60.2968 23.8646C60.7884 23.8723 61.1956 23.9184 61.5182 24.0029C61.8408 24.0797 62.0867 24.2295 62.2557 24.4523C62.4247 24.6673 62.5092 24.9862 62.5092 25.4087V27.2178H61.2071V25.4778C61.2071 25.1859 61.1533 24.9593 61.0458 24.7979C60.9459 24.6289 60.7692 24.5137 60.5157 24.4523C60.2699 24.3831 59.9165 24.3485 59.4556 24.3485H56.8399V27.2178H55.5262ZM56.8399 23.2769H59.9395C60.4005 23.2769 60.75 23.1617 60.9881 22.9312C61.2263 22.7008 61.3454 22.3973 61.3454 22.0209C61.3454 21.6598 61.2263 21.3833 60.9881 21.1912C60.75 20.9915 60.4005 20.8916 59.9395 20.8916H56.8399V23.2769ZM68.8452 25.328H70.0782C70.0167 25.7198 69.8631 26.0693 69.6172 26.3766C69.3791 26.6762 69.0526 26.9143 68.6378 27.091C68.223 27.26 67.7275 27.3445 67.1513 27.3445C66.4984 27.3445 65.9145 27.2255 65.3998 26.9873C64.8851 26.7415 64.4818 26.3958 64.1899 25.9502C63.898 25.5047 63.752 24.9746 63.752 24.3601C63.752 23.7532 63.8942 23.2231 64.1784 22.7699C64.4626 22.3167 64.8544 21.9671 65.3537 21.7213C65.8607 21.4755 66.4446 21.3526 67.1052 21.3526C67.7889 21.3526 68.3574 21.4755 68.8106 21.7213C69.2716 21.9594 69.6134 22.3205 69.8362 22.8045C70.059 23.2807 70.1511 23.8838 70.1127 24.6136H65.0541C65.0925 24.9362 65.1963 25.2281 65.3653 25.4893C65.5419 25.7428 65.7801 25.9426 66.0797 26.0885C66.3793 26.2268 66.7288 26.2959 67.1283 26.2959C67.5738 26.2959 67.9464 26.2076 68.246 26.0309C68.5533 25.8542 68.753 25.6199 68.8452 25.328ZM67.0707 22.3896C66.5483 22.3896 66.1181 22.5202 65.7801 22.7814C65.4421 23.0349 65.2231 23.3614 65.1233 23.7609H68.8222C68.7914 23.3307 68.6186 22.9965 68.3036 22.7584C67.9887 22.5125 67.5777 22.3896 67.0707 22.3896ZM77.9829 19.7509V20.8801H72.7515V23.0464H77.0381V24.1296H72.7515V27.2178H71.4379V19.7509H77.9829ZM80.5385 19.048V20.2809H79.006V19.048H80.5385ZM79.1212 21.4793H80.4118V27.2178H79.1212V21.4793ZM81.9438 21.4793H83.2229V27.2178H81.9438V21.4793ZM85.6427 21.3526C85.973 21.3526 86.2764 21.3987 86.553 21.4908C86.8372 21.583 87.0792 21.7251 87.279 21.9172C87.4864 22.1016 87.6438 22.332 87.7514 22.6086C87.8666 22.8851 87.9242 23.2116 87.9242 23.588V27.2178H86.6452V23.8415C86.6452 23.3729 86.53 23.0272 86.2995 22.8045C86.0767 22.574 85.7233 22.4588 85.2394 22.4588C84.8706 22.4588 84.5326 22.5394 84.2254 22.7008C83.9258 22.8544 83.6799 23.058 83.4879 23.3115C83.2958 23.5573 83.1844 23.83 83.1537 24.1296L83.1422 23.5074C83.1806 23.2231 83.2651 22.9543 83.3957 22.7008C83.5263 22.4396 83.6991 22.2091 83.9142 22.0094C84.1293 21.802 84.3828 21.6406 84.6748 21.5254C84.9667 21.4102 85.2893 21.3526 85.6427 21.3526ZM91.8951 27.3445C91.3727 27.3445 90.8926 27.2178 90.4547 26.9643C90.0245 26.7108 89.6788 26.3612 89.4176 25.9157C89.1641 25.4624 89.0374 24.9439 89.0374 24.3601C89.0374 23.7609 89.168 23.2385 89.4292 22.7929C89.6903 22.3397 90.0437 21.9863 90.4893 21.7328C90.9348 21.4793 91.4342 21.3526 91.9873 21.3526C92.6018 21.3526 93.0896 21.487 93.4507 21.7559C93.8117 22.0247 94.0691 22.3858 94.2227 22.839C94.3764 23.2923 94.4532 23.7993 94.4532 24.3601C94.4532 24.675 94.4071 25.0092 94.3149 25.3626C94.2227 25.7083 94.0768 26.0309 93.877 26.3305C93.685 26.6301 93.4238 26.8759 93.0935 27.068C92.7708 27.2523 92.3714 27.3445 91.8951 27.3445ZM92.2869 26.2844C92.7171 26.2844 93.082 26.2037 93.3816 26.0424C93.6888 25.8734 93.9193 25.643 94.0729 25.351C94.2343 25.0591 94.3149 24.7288 94.3149 24.3601C94.3149 23.9529 94.2343 23.6072 94.0729 23.323C93.9116 23.0311 93.6811 22.8083 93.3816 22.6547C93.082 22.4933 92.7171 22.4127 92.2869 22.4127C91.6723 22.4127 91.196 22.5932 90.858 22.9543C90.52 23.3153 90.351 23.7839 90.351 24.3601C90.351 24.7365 90.4317 25.0707 90.593 25.3626C90.762 25.6545 90.9924 25.8811 91.2844 26.0424C91.5763 26.2037 91.9104 26.2844 92.2869 26.2844ZM94.3149 21.4793H95.6055V27.2178H94.4071C94.4071 27.2178 94.3994 27.1448 94.3841 26.9988C94.3687 26.8529 94.3533 26.6762 94.338 26.4688C94.3226 26.2537 94.3149 26.0501 94.3149 25.8581V21.4793ZM97.0115 21.4793H98.2905V27.2178H97.0115V21.4793ZM100.71 21.3526C101.041 21.3526 101.344 21.3987 101.621 21.4908C101.905 21.583 102.147 21.7251 102.347 21.9172C102.554 22.1016 102.712 22.332 102.819 22.6086C102.934 22.8851 102.992 23.2116 102.992 23.588V27.2178H101.713V23.8415C101.713 23.3729 101.598 23.0272 101.367 22.8045C101.144 22.574 100.791 22.4588 100.307 22.4588C99.9383 22.4588 99.6003 22.5394 99.293 22.7008C98.9934 22.8544 98.7476 23.058 98.5556 23.3115C98.3635 23.5573 98.2521 23.83 98.2214 24.1296L98.2099 23.5074C98.2483 23.2231 98.3328 22.9543 98.4634 22.7008C98.594 22.4396 98.7668 22.2091 98.9819 22.0094C99.197 21.802 99.4505 21.6406 99.7424 21.5254C100.034 21.4102 100.357 21.3526 100.71 21.3526ZM110.581 24.9938C110.535 25.4855 110.377 25.908 110.109 26.2614C109.84 26.6147 109.479 26.8836 109.025 27.068C108.58 27.2523 108.065 27.3445 107.481 27.3445C106.851 27.3445 106.279 27.2293 105.764 26.9988C105.257 26.7684 104.854 26.4304 104.554 25.9848C104.255 25.5393 104.105 24.9977 104.105 24.3601C104.105 23.7225 104.255 23.1809 104.554 22.7353C104.854 22.2898 105.257 21.9479 105.764 21.7098C106.279 21.4716 106.851 21.3526 107.481 21.3526C108.065 21.3526 108.58 21.4486 109.025 21.6406C109.471 21.825 109.828 22.09 110.097 22.4357C110.366 22.7814 110.523 23.2001 110.569 23.6917H109.394C109.264 23.2846 109.025 22.9696 108.68 22.7468C108.342 22.5164 107.942 22.4012 107.481 22.4012C107.105 22.4012 106.759 22.478 106.444 22.6316C106.129 22.7776 105.876 22.9965 105.684 23.2884C105.499 23.5727 105.407 23.9299 105.407 24.3601C105.407 24.7826 105.499 25.1398 105.684 25.4317C105.876 25.7236 106.129 25.9426 106.444 26.0885C106.759 26.2268 107.105 26.2959 107.481 26.2959C107.988 26.2959 108.403 26.1845 108.726 25.9618C109.056 25.7313 109.283 25.4087 109.406 24.9938H110.581ZM116.501 25.328H117.734C117.673 25.7198 117.519 26.0693 117.273 26.3766C117.035 26.6762 116.709 26.9143 116.294 27.091C115.879 27.26 115.384 27.3445 114.807 27.3445C114.155 27.3445 113.571 27.2255 113.056 26.9873C112.541 26.7415 112.138 26.3958 111.846 25.9502C111.554 25.5047 111.408 24.9746 111.408 24.3601C111.408 23.7532 111.55 23.2231 111.835 22.7699C112.119 22.3167 112.511 21.9671 113.01 21.7213C113.517 21.4755 114.101 21.3526 114.761 21.3526C115.445 21.3526 116.014 21.4755 116.467 21.7213C116.928 21.9594 117.27 22.3205 117.492 22.8045C117.715 23.2807 117.807 23.8838 117.769 24.6136H112.71C112.749 24.9362 112.852 25.2281 113.021 25.4893C113.198 25.7428 113.436 25.9426 113.736 26.0885C114.035 26.2268 114.385 26.2959 114.784 26.2959C115.23 26.2959 115.603 26.2076 115.902 26.0309C116.209 25.8542 116.409 25.6199 116.501 25.328ZM114.727 22.3896C114.204 22.3896 113.774 22.5202 113.436 22.7814C113.098 23.0349 112.879 23.3614 112.779 23.7609H116.478C116.448 23.3307 116.275 22.9965 115.96 22.7584C115.645 22.5125 115.234 22.3896 114.727 22.3896Z" fill="#DEDEDE"/>
</svg>
