<svg width="70" height="71" viewBox="0 0 70 71" fill="none" xmlns="http://www.w3.org/2000/svg">
<rect x="0.614035" y="1.11404" width="68.7719" height="68.7719" rx="6.75439" stroke="#2C2C2C" stroke-width="1.22807"/>
<path d="M19.6491 42.8684C18.9778 42.8684 18.4211 42.3117 18.4211 41.6404V29.3597C18.4211 28.6883 18.9778 28.1316 19.6491 28.1316C20.3205 28.1316 20.8772 28.6883 20.8772 29.3597V41.6404C20.8772 42.3117 20.3205 42.8684 19.6491 42.8684Z" fill="#FC4F1C"/>
<path opacity="0.4" d="M27.0175 46.962C26.3462 46.962 25.7895 46.4053 25.7895 45.7339V25.2661C25.7895 24.5948 26.3462 24.038 27.0175 24.038C27.6889 24.038 28.2456 24.5948 28.2456 25.2661V45.7339C28.2456 46.4053 27.6889 46.962 27.0175 46.962Z" fill="#FC4F1C"/>
<path d="M34.386 51.0556C33.7146 51.0556 33.1579 50.4988 33.1579 49.8275V21.1725C33.1579 20.5012 33.7146 19.9445 34.386 19.9445C35.0573 19.9445 35.614 20.5012 35.614 21.1725V49.8275C35.614 50.4988 35.0573 51.0556 34.386 51.0556Z" fill="#FC4F1C"/>
<path opacity="0.4" d="M41.7544 46.962C41.083 46.962 40.5263 46.4053 40.5263 45.7339V25.2661C40.5263 24.5948 41.083 24.038 41.7544 24.038C42.4257 24.038 42.9825 24.5948 42.9825 25.2661V45.7339C42.9825 46.4053 42.4257 46.962 41.7544 46.962Z" fill="#FC4F1C"/>
<path d="M49.1228 42.8684C48.4515 42.8684 47.8947 42.3117 47.8947 41.6404V29.3597C47.8947 28.6883 48.4515 28.1316 49.1228 28.1316C49.7942 28.1316 50.3509 28.6883 50.3509 29.3597V41.6404C50.3509 42.3117 49.7942 42.8684 49.1228 42.8684Z" fill="#FC4F1C"/>
</svg>
