<svg width="605" height="136" viewBox="0 0 605 136" fill="none" xmlns="http://www.w3.org/2000/svg">
<g clip-path="url(#clip0_186_2122)">
<path d="M581 0H24C10.7452 0 0 10.7452 0 24V111.939C0 125.194 10.7452 135.939 24 135.939H581C594.255 135.939 605 125.194 605 111.939V24C605 10.7452 594.255 0 581 0Z" fill="url(#paint0_linear_186_2122)"/>
<path d="M137.9 80.0471L131.45 58.3571H134.51L138.47 71.6171C138.77 72.7571 139.07 73.8971 139.37 75.5471C139.73 73.8071 140.06 72.7571 140.39 71.6171L144.5 58.3571H147.68L151.76 71.6171C152.12 72.7871 152.42 73.9271 152.75 75.5471C153.11 73.7171 153.41 72.6071 153.71 71.6471L157.7 58.3571H160.7L154.16 80.0471H151.34L146.09 62.8871L140.78 80.0471H137.9ZM166.006 80.0171H163.186V57.9671H166.006V67.6271C166.936 66.0371 168.706 64.9571 170.986 64.9571C174.736 64.9571 176.536 67.3271 176.536 71.0771V80.0471H173.716V71.7071C173.716 68.7371 172.306 67.5371 170.206 67.5371C167.476 67.5371 166.006 69.5171 166.006 72.0371V80.0171ZM184.732 80.4071C181.582 80.4071 179.722 78.6371 179.722 75.9671C179.722 73.2671 181.732 71.5871 185.182 71.3171L189.802 70.9571V70.5371C189.802 68.0771 188.332 67.2071 186.352 67.2071C183.982 67.2071 182.632 68.2571 182.632 70.0271H180.172C180.172 66.9671 182.692 64.9571 186.472 64.9571C190.102 64.9571 192.562 66.8771 192.562 70.8371V80.0471H190.162L189.862 77.6771C189.112 79.3571 187.102 80.4071 184.732 80.4071ZM185.542 78.2171C188.212 78.2171 189.832 76.4771 189.832 73.7171V72.9371L186.082 73.2371C183.592 73.4771 182.572 74.4371 182.572 75.8771C182.572 77.4371 183.712 78.2171 185.542 78.2171ZM200.373 80.0471H197.553V67.7471H194.673V65.3771H197.553V60.7871H200.373V65.3771H203.253V67.7471H200.373V80.0471ZM215.367 61.8971C214.347 61.8971 213.507 61.0571 213.507 60.0371C213.507 58.9871 214.347 58.1771 215.367 58.1771C216.387 58.1771 217.227 58.9871 217.227 60.0371C217.227 61.0571 216.387 61.8971 215.367 61.8971ZM213.987 80.0471V65.3771H216.807V80.0471H213.987ZM219.701 75.7871H222.401C222.401 77.2871 223.541 78.1871 225.401 78.1871C227.381 78.1871 228.521 77.3771 228.521 76.0271C228.521 75.0371 228.041 74.4371 226.511 74.0471L223.931 73.4471C221.321 72.8171 220.091 71.5271 220.091 69.3671C220.091 66.6671 222.371 64.9571 225.611 64.9571C228.821 64.9571 230.921 66.7571 230.981 69.5471H228.281C228.221 68.0771 227.231 67.1471 225.521 67.1471C223.751 67.1471 222.761 67.9271 222.761 69.2771C222.761 70.2671 223.481 70.9271 224.921 71.2871L227.501 71.9171C229.991 72.5171 231.221 73.6571 231.221 75.8471C231.221 78.6371 228.821 80.4071 225.341 80.4071C221.891 80.4071 219.701 78.5771 219.701 75.7871ZM241.142 86.6171V84.3071H243.032C244.382 84.3071 245.462 84.0971 246.152 82.2371L246.662 80.8271L240.752 65.3771H243.722L247.982 77.1971L252.332 65.3771H255.242L248.312 83.3471C247.322 85.8671 245.852 86.9171 243.602 86.9171C242.672 86.9171 241.892 86.7971 241.142 86.6171ZM255.976 72.6971C255.976 68.1671 259.216 64.9871 263.626 64.9871C268.006 64.9871 271.246 68.1671 271.246 72.6971C271.246 77.2271 268.006 80.4071 263.626 80.4071C259.216 80.4071 255.976 77.2271 255.976 72.6971ZM258.826 72.6971C258.826 75.7571 260.776 77.8871 263.626 77.8871C266.446 77.8871 268.426 75.7571 268.426 72.6971C268.426 69.6371 266.446 67.5071 263.626 67.5071C260.776 67.5071 258.826 69.6371 258.826 72.6971ZM284.157 65.3771H286.947V80.0471H284.427L284.127 77.8271C283.287 79.3571 281.337 80.4071 279.177 80.4071C275.757 80.4071 273.837 78.0971 273.837 74.4971V65.3771H276.657V73.5671C276.657 76.7171 278.007 77.9171 280.167 77.9171C282.747 77.9171 284.157 76.2671 284.157 73.1171V65.3771ZM299.438 65.2571V67.8371H298.178C295.508 67.8371 293.858 69.4571 293.858 72.2771V80.0471H291.038V65.4071H293.678L293.858 67.6271C294.458 66.0971 295.928 65.0771 297.938 65.0771C298.448 65.0771 298.868 65.1371 299.438 65.2571ZM320.426 65.3771H323.216V80.0471H320.696L320.396 77.8271C319.556 79.3571 317.606 80.4071 315.446 80.4071C312.026 80.4071 310.106 78.0971 310.106 74.4971V65.3771H312.926V73.5671C312.926 76.7171 314.276 77.9171 316.436 77.9171C319.016 77.9171 320.426 76.2671 320.426 73.1171V65.3771ZM330.188 80.0471H327.368V57.9671H330.188V80.0471ZM338.479 80.0471H335.659V67.7471H332.779V65.3771H335.659V60.7871H338.479V65.3771H341.359V67.7471H338.479V80.0471ZM345.27 61.8971C344.25 61.8971 343.41 61.0571 343.41 60.0371C343.41 58.9871 344.25 58.1771 345.27 58.1771C346.29 58.1771 347.13 58.9871 347.13 60.0371C347.13 61.0571 346.29 61.8971 345.27 61.8971ZM343.89 80.0471V65.3771H346.71V80.0471H343.89ZM353.624 80.0471H350.804V65.3771H353.324L353.594 67.2971C354.344 65.9171 355.904 64.9571 357.974 64.9571C360.254 64.9571 361.874 66.0971 362.624 67.9271C363.314 66.0971 365.084 64.9571 367.364 64.9571C370.724 64.9571 372.764 67.0571 372.764 70.4471V80.0471H370.004V71.1371C370.004 68.8271 368.714 67.5071 366.734 67.5071C364.604 67.5071 363.194 69.0071 363.194 71.3471V80.0471H360.404V71.1071C360.404 68.7971 359.144 67.5371 357.164 67.5371C355.034 67.5371 353.624 69.0071 353.624 71.3471V80.0471ZM380.963 80.4071C377.813 80.4071 375.953 78.6371 375.953 75.9671C375.953 73.2671 377.963 71.5871 381.413 71.3171L386.033 70.9571V70.5371C386.033 68.0771 384.563 67.2071 382.583 67.2071C380.213 67.2071 378.863 68.2571 378.863 70.0271H376.403C376.403 66.9671 378.923 64.9571 382.703 64.9571C386.333 64.9571 388.793 66.8771 388.793 70.8371V80.0471H386.393L386.093 77.6771C385.343 79.3571 383.333 80.4071 380.963 80.4071ZM381.773 78.2171C384.443 78.2171 386.063 76.4771 386.063 73.7171V72.9371L382.313 73.2371C379.823 73.4771 378.803 74.4371 378.803 75.8771C378.803 77.4371 379.943 78.2171 381.773 78.2171ZM396.604 80.0471H393.784V67.7471H390.904V65.3771H393.784V60.7871H396.604V65.3771H399.484V67.7471H396.604V80.0471ZM408.198 80.4071C403.878 80.4071 400.908 77.2871 400.908 72.7271C400.908 68.1371 403.818 64.9571 408.078 64.9571C412.248 64.9571 414.978 67.8371 414.978 72.1871V73.2371L403.638 73.2671C403.848 76.3571 405.468 78.0671 408.258 78.0671C410.448 78.0671 411.888 77.1671 412.368 75.4871H415.008C414.288 78.6371 411.828 80.4071 408.198 80.4071ZM408.078 67.3271C405.618 67.3271 404.058 68.7971 403.698 71.3771H412.158C412.158 68.9471 410.568 67.3271 408.078 67.3271ZM425.401 72.3371C425.401 68.1971 428.071 64.9571 432.331 64.9571C434.701 64.9571 436.531 66.0371 437.461 67.8671L437.671 65.3771H440.191V79.4471C440.191 84.0671 437.341 87.0071 432.841 87.0071C428.851 87.0071 426.121 84.7571 425.581 81.0371H428.401C428.761 83.1971 430.381 84.4571 432.841 84.4571C435.601 84.4571 437.401 82.6571 437.401 79.8671V76.9271C436.441 78.6371 434.521 79.6571 432.211 79.6571C428.041 79.6571 425.401 76.4471 425.401 72.3371ZM428.221 72.2771C428.221 75.0371 429.931 77.1971 432.691 77.1971C435.541 77.1971 437.281 75.1571 437.281 72.2771C437.281 69.4571 435.601 67.4171 432.721 67.4171C429.901 67.4171 428.221 69.5771 428.221 72.2771ZM443.301 72.6971C443.301 68.1671 446.541 64.9871 450.951 64.9871C455.331 64.9871 458.571 68.1671 458.571 72.6971C458.571 77.2271 455.331 80.4071 450.951 80.4071C446.541 80.4071 443.301 77.2271 443.301 72.6971ZM446.151 72.6971C446.151 75.7571 448.101 77.8871 450.951 77.8871C453.771 77.8871 455.751 75.7571 455.751 72.6971C455.751 69.6371 453.771 67.5071 450.951 67.5071C448.101 67.5071 446.151 69.6371 446.151 72.6971ZM465.982 80.4071C462.832 80.4071 460.972 78.6371 460.972 75.9671C460.972 73.2671 462.982 71.5871 466.432 71.3171L471.052 70.9571V70.5371C471.052 68.0771 469.582 67.2071 467.602 67.2071C465.232 67.2071 463.882 68.2571 463.882 70.0271H461.422C461.422 66.9671 463.942 64.9571 467.722 64.9571C471.352 64.9571 473.812 66.8771 473.812 70.8371V80.0471H471.412L471.112 77.6771C470.362 79.3571 468.352 80.4071 465.982 80.4071ZM466.792 78.2171C469.462 78.2171 471.082 76.4771 471.082 73.7171V72.9371L467.332 73.2371C464.842 73.4771 463.822 74.4371 463.822 75.8771C463.822 77.4371 464.962 78.2171 466.792 78.2171ZM480.598 80.0471H477.778V57.9671H480.598V80.0471ZM491.259 74.7971H488.649V74.0471C488.649 71.4971 490.299 70.1171 491.919 68.8571C493.389 67.7171 494.739 66.6071 494.739 64.6271C494.739 62.3171 493.209 60.6071 490.749 60.6071C488.379 60.6071 486.609 62.4671 486.609 64.9271H483.699C483.699 60.9371 486.759 57.9671 490.809 57.9671C495.069 57.9671 497.709 60.6671 497.709 64.4771C497.709 67.6271 495.669 69.1571 493.929 70.4171C492.339 71.5571 491.259 72.5171 491.259 74.0471V74.7971ZM490.089 80.4671C488.889 80.4671 487.929 79.5071 487.929 78.3371C487.929 77.1671 488.889 76.2071 490.089 76.2071C491.229 76.2071 492.219 77.1971 492.219 78.3371C492.219 79.4771 491.229 80.4671 490.089 80.4671Z" fill="white"/>
<path d="M82.3588 32.0041H53.5807C41.6643 32.0041 32.0042 41.6643 32.0042 53.5807V82.3587C32.0042 94.2751 41.6643 103.935 53.5807 103.935H82.3588C94.2752 103.935 103.935 94.2751 103.935 82.3587V53.5807C103.935 41.6643 94.2752 32.0041 82.3588 32.0041Z" fill="#F45F26"/>
<path fill-rule="evenodd" clip-rule="evenodd" d="M80.4486 57.071L84.2633 60.8857L64.3732 80.7758L53.4744 69.8771L57.2892 66.0624L63.1016 71.8748C63.8039 72.5771 64.9425 72.5771 65.6448 71.8748L80.4486 57.071Z" fill="#0B0D01"/>
<path d="M581 0.5H24C11.0213 0.5 0.5 11.0213 0.5 24V111.939C0.5 124.918 11.0213 135.439 24 135.439H581C593.979 135.439 604.5 124.918 604.5 111.939V24C604.5 11.0213 593.979 0.5 581 0.5Z" stroke="white" stroke-opacity="0.16"/>
</g>
<defs>
<linearGradient id="paint0_linear_186_2122" x1="302.5" y1="0" x2="302.5" y2="135.939" gradientUnits="userSpaceOnUse">
<stop stop-color="#343434"/>
<stop offset="1" stop-color="#111308"/>
</linearGradient>
<clipPath id="clip0_186_2122">
<rect width="605" height="136" fill="white"/>
</clipPath>
</defs>
</svg>
