<svg width="127" height="40" viewBox="0 0 127 40" fill="none" xmlns="http://www.w3.org/2000/svg">
<path d="M54.5975 2.37633H51.8071V0.444092H59.4371V2.37633H56.6467V10.6873H54.5975V2.37633Z" fill="#DEDEDE"/>
<path d="M60.274 0H62.2032V4.00849C62.7973 3.3124 63.6284 2.94036 64.6065 2.94036C66.3887 2.94036 67.5589 4.0985 67.5589 5.87772V10.6873H65.6296V6.50179C65.6296 5.47867 64.9756 4.80959 63.9824 4.80959C62.9143 4.80959 62.2002 5.49367 62.2002 6.5318V10.6873H60.271V0H60.274Z" fill="#DEDEDE"/>
<path d="M68.5732 6.90075C68.5732 4.64447 70.3255 2.93726 72.6387 2.93726C74.952 2.93726 76.7042 4.64447 76.7042 6.93075C76.7042 7.13778 76.6892 7.3778 76.6442 7.56982H70.6315C70.8835 8.55094 71.6696 9.18703 72.7107 9.18703C73.4968 9.18703 74.1509 8.82998 74.493 8.34092H76.5872C76.0082 9.8411 74.508 10.8642 72.6688 10.8642C70.3225 10.8642 68.5732 9.15702 68.5732 6.90075ZM70.6525 6.15966H74.646C74.409 5.23854 73.6379 4.61746 72.6417 4.61746C71.6456 4.61746 70.9195 5.22654 70.6525 6.15966Z" fill="#DEDEDE"/>
<path d="M52.4614 13.6458H55.0117L58.1141 19.1694L61.2315 13.6458H63.7548V23.889H61.7056V16.6611L58.6932 22.0468H57.5201L54.5077 16.6611V23.889H52.4614V13.6458Z" fill="#DEDEDE"/>
<path d="M65.0747 20.1024C65.0747 17.8461 66.6619 16.1389 68.7712 16.1389C69.7793 16.1389 70.6254 16.541 71.2345 17.2071V16.3159H73.1637V23.8859H71.2345V22.9948C70.6254 23.6638 69.7793 24.0629 68.7712 24.0629C66.6649 24.0629 65.0747 22.3557 65.0747 20.0994M71.2345 20.1024C71.2345 18.9143 70.3434 18.0081 69.1432 18.0081C67.9431 18.0081 67.064 18.9143 67.064 20.1024C67.064 21.2906 67.9551 22.1967 69.1432 22.1967C70.3313 22.1967 71.2345 21.2906 71.2345 20.1024Z" fill="#DEDEDE"/>
<path d="M74.712 16.3191H76.6412V17.1652C77.2353 16.4961 78.0664 16.1421 79.0445 16.1421C80.8267 16.1421 81.9969 17.3002 81.9969 19.0795V23.889H80.0676V19.7035C80.0676 18.6804 79.4136 18.0113 78.4204 18.0113C77.3523 18.0113 76.6382 18.6954 76.6382 19.7335V23.889H74.709V16.3191H74.712Z" fill="#DEDEDE"/>
<path d="M83.6383 13.6458H88.2978C90.2871 13.6458 91.8143 15.1159 91.8143 17.0602C91.8143 19.0044 90.2841 20.4746 88.2978 20.4746H85.6845V23.889H83.6353V13.6488L83.6383 13.6458ZM85.6875 15.578V18.5454H88.2558C89.0869 18.5454 89.711 17.9063 89.711 17.0602C89.711 16.2141 89.0869 15.575 88.2558 15.575H85.6875V15.578Z" fill="#DEDEDE"/>
<path d="M92.1289 20.1024C92.1289 17.8461 93.8811 16.1389 96.1944 16.1389C98.5077 16.1389 100.263 17.8461 100.263 20.1024C100.263 22.3587 98.5107 24.0659 96.1944 24.0659C93.8781 24.0659 92.1289 22.3587 92.1289 20.1024ZM98.2737 20.1024C98.2737 18.9143 97.3975 18.0081 96.1944 18.0081C94.9913 18.0081 94.1151 18.9143 94.1151 20.1024C94.1151 21.2906 95.0063 22.1967 96.1944 22.1967C97.3825 22.1967 98.2737 21.2906 98.2737 20.1024Z" fill="#DEDEDE"/>
<path d="M100.251 16.3191H102.462L103.992 21.4257L105.61 16.3191H107.584L109.186 21.4257L110.731 16.3191H112.883L110.179 23.889H108.193L106.573 18.6354L104.941 23.889H102.951L100.251 16.3191Z" fill="#DEDEDE"/>
<path d="M112.886 20.1024C112.886 17.8461 114.638 16.1389 116.954 16.1389C119.271 16.1389 121.02 17.8461 121.02 20.1324C121.02 20.3394 121.005 20.5795 120.96 20.7715H114.95C115.202 21.7526 115.988 22.3887 117.026 22.3887C117.812 22.3887 118.466 22.0316 118.808 21.5426H120.903C120.324 23.0428 118.823 24.0659 116.984 24.0659C114.638 24.0659 112.889 22.3587 112.889 20.1024M114.965 19.3613H118.958C118.721 18.4402 117.95 17.8191 116.954 17.8191C115.958 17.8191 115.232 18.4282 114.965 19.3613Z" fill="#DEDEDE"/>
<path d="M122.109 16.3189H124.038V17.4621C124.632 16.676 125.448 16.2019 126.441 16.2019H126.723V18.1911H126.441C124.899 18.1911 124.038 19.0072 124.038 20.2854V23.8918H122.109V16.3219V16.3189Z" fill="#DEDEDE"/>
<path d="M51.9664 32.0709C51.9664 29.0585 54.2827 26.7722 57.325 26.7722C59.6563 26.7722 61.5705 28.0924 62.2516 30.0066H60.7364C60.0974 28.8335 58.8372 28.0774 57.322 28.0774C55.0658 28.0774 53.3585 29.7996 53.3585 32.0709C53.3585 34.3421 55.0658 36.0644 57.322 36.0644C59.2963 36.0644 60.8565 34.7862 61.1205 32.977H57.6911V31.7438H62.5607V32.1879C62.5607 35.1552 60.3194 37.3695 57.322 37.3695C54.3247 37.3695 51.9634 35.0832 51.9634 32.0709" fill="#DEDEDE"/>
<path d="M64.0576 29.6227H65.3328V31.0629C65.9118 30.0818 66.863 29.5027 68.0481 29.5027H68.2851V30.8228H68.0481C66.3559 30.8228 65.3328 31.831 65.3328 33.3912V37.1896H64.0576V29.6197V29.6227Z" fill="#DEDEDE"/>
<path d="M68.5791 33.409C68.5791 31.1528 70.3163 29.4456 72.6176 29.4456C74.9189 29.4456 76.6411 31.1528 76.6411 33.409C76.6411 35.6653 74.9039 37.3725 72.6176 37.3725C70.3313 37.3725 68.5791 35.6653 68.5791 33.409ZM75.3179 33.409C75.3179 31.8519 74.1598 30.6787 72.6176 30.6787C71.0754 30.6787 69.9023 31.8519 69.9023 33.409C69.9023 34.9662 71.0604 36.1394 72.6176 36.1394C74.1748 36.1394 75.3179 34.9662 75.3179 33.409Z" fill="#DEDEDE"/>
<path d="M77.9043 34.3871V29.6226H79.1825V34.0151C79.1825 35.2933 79.9986 36.1364 81.2617 36.1364C82.5249 36.1364 83.473 35.2753 83.473 33.9851V29.6226H84.7482V37.1925H83.473V36.0944C82.8939 36.9105 82.0028 37.3725 80.8597 37.3725C79.0925 37.3725 77.9073 36.1844 77.9073 34.3901" fill="#DEDEDE"/>
<path d="M86.5664 29.6226H87.8416V30.9878C88.4806 30.0367 89.5188 29.4426 90.7789 29.4426C92.9452 29.4426 94.5774 31.1498 94.5774 33.4061C94.5774 35.6624 92.9452 37.3696 90.7789 37.3696C89.5188 37.3696 88.4776 36.7755 87.8416 35.8244V40.0099H86.5664V29.6196V29.6226ZM93.2602 33.4091C93.2602 31.8519 92.1021 30.6788 90.5449 30.6788C88.9877 30.6788 87.8445 31.8519 87.8445 33.4091C87.8445 34.9663 89.0027 36.1394 90.5449 36.1394C92.0871 36.1394 93.2602 34.9663 93.2602 33.4091Z" fill="#DEDEDE"/>
<path d="M96.8697 29.7695H95.9966V29.4065H98.1298V29.7695H97.2567V32.3048H96.8697V29.7695Z" fill="#DEDEDE"/>
<path d="M98.4507 29.4065H98.9367L99.9959 31.1587L101.055 29.4065H101.529V32.3048H101.148V29.9586L100.101 31.6958H99.8818L98.8377 29.9586V32.3048H98.4507V29.4065Z" fill="#DEDEDE"/>
<path d="M44.6755 22.3977C44.6755 23.4598 44.6035 24.504 44.4624 25.5241L27.3933 36.9195H0C0 35.8604 0.0690029 34.8162 0.21002 33.7931L11.9655 25.9471H27.3933L32.707 22.3977H44.6755Z" fill="#DEDEDE"/>
<path d="M44.6755 11.4224C44.6755 12.4845 44.6035 13.5286 44.4624 14.5517L32.707 22.3977H17.2821L11.9655 25.9471H0C0 24.885 0.0690029 23.8409 0.21002 22.8208L11.9685 14.9688H27.3933L32.707 11.4224H44.6755Z" fill="#DEDEDE"/>
<path d="M44.6755 0.447021C44.6755 1.50615 44.6035 2.55028 44.4624 3.57341L32.707 11.4224H17.2821L11.9685 14.9688H0C0 13.9097 0.0690029 12.8655 0.21002 11.8424L17.2821 0.447021H44.6755Z" fill="#DEDEDE"/>
</svg>
