<svg width="70" height="71" viewBox="0 0 70 71" fill="none" xmlns="http://www.w3.org/2000/svg">
<rect x="0.614035" y="1.11404" width="68.7719" height="68.7719" rx="6.75439" stroke="#2C2C2C" stroke-width="1.22807"/>
<path opacity="0.4" d="M39.2982 53.1023C38.856 53.1023 38.4467 52.8567 38.2338 52.4801C38.021 52.1035 38.021 51.6286 38.2502 51.252L39.9695 48.3865C40.3134 47.7971 41.0666 47.6169 41.6561 47.9608C42.2455 48.3046 42.4256 49.0579 42.0818 49.6474L41.6397 50.3842C46.159 49.3199 49.5484 45.2591 49.5484 40.4123C49.5484 39.7409 50.1052 39.1842 50.7765 39.1842C51.4479 39.1842 52.0046 39.7409 52.0046 40.4123C51.9882 47.4041 46.29 53.1023 39.2982 53.1023Z" fill="#FC4F1C"/>
<path opacity="0.4" d="M18.0116 31.8158C17.3403 31.8158 16.7836 31.2591 16.7836 30.5878C16.7836 23.596 22.4818 17.8977 29.4736 17.8977C29.9157 17.8977 30.3251 18.1433 30.5379 18.5199C30.7508 18.8965 30.7508 19.3714 30.5216 19.748L28.8023 22.6135C28.4584 23.203 27.7052 23.3831 27.1157 23.0392C26.5263 22.6954 26.3461 21.9421 26.69 21.3527L27.1321 20.6158C22.6128 21.6801 19.2233 25.741 19.2233 30.5878C19.2397 31.2591 18.683 31.8158 18.0116 31.8158Z" fill="#FC4F1C"/>
<path d="M32.208 38.5292L27.0665 35.7619C26.5262 35.4672 25.8712 35.4672 25.3309 35.7619L20.1893 38.5292C19.8127 38.7257 19.5835 39.1351 19.5835 39.5772C19.5835 40.0193 19.8127 40.4287 20.1893 40.6252L25.3309 43.3924C25.6092 43.5398 25.904 43.6053 26.1987 43.6053C26.4934 43.6053 26.7882 43.5398 27.0665 43.3924L32.208 40.6252C32.5847 40.4287 32.8139 40.0193 32.8139 39.5772C32.8139 39.1351 32.5683 38.7421 32.208 38.5292Z" fill="#FC4F1C"/>
<path d="M24.4794 44.3585L19.6982 41.9679C19.3379 41.7878 18.9122 41.8041 18.552 42.017C18.2081 42.2298 17.9952 42.6065 17.9952 43.0159V47.5351C17.9952 48.3211 18.4209 49.0251 19.125 49.369L23.9064 51.7597C24.0701 51.8416 24.2502 51.8907 24.4303 51.8907C24.6432 51.8907 24.8561 51.8252 25.0525 51.7106C25.3964 51.4978 25.6093 51.1211 25.6093 50.7117V46.1925C25.6256 45.4065 25.1835 44.7023 24.4794 44.3585Z" fill="#FC4F1C"/>
<path d="M33.8293 42.017C33.4854 41.8041 33.0597 41.7878 32.6831 41.9679L27.9018 44.3585C27.1977 44.7023 26.772 45.4065 26.772 46.1925V50.7117C26.772 51.1211 26.9848 51.4978 27.3287 51.7106C27.5252 51.8252 27.7381 51.8907 27.9509 51.8907C28.131 51.8907 28.3111 51.8416 28.4749 51.7597L33.2562 49.369C33.9603 49.0251 34.386 48.3211 34.386 47.5351V43.0159C34.386 42.6065 34.1731 42.2298 33.8293 42.017Z" fill="#FC4F1C"/>
<path d="M48.5823 22.1222L43.4408 19.355C42.9004 19.0602 42.2455 19.0602 41.7051 19.355L36.5636 22.1222C36.187 22.3187 35.9578 22.728 35.9578 23.1701C35.9578 23.6122 36.187 24.0216 36.5636 24.2181L41.7051 26.9853C41.9835 27.1327 42.2782 27.1982 42.573 27.1982C42.8677 27.1982 43.1624 27.1327 43.4408 26.9853L48.5823 24.2181C48.9589 24.0216 49.1882 23.6122 49.1882 23.1701C49.1882 22.7116 48.9425 22.3187 48.5823 22.1222Z" fill="#FC4F1C"/>
<path d="M40.8537 27.9351L36.0724 25.5444C35.7122 25.3643 35.2865 25.3807 34.9262 25.5936C34.5824 25.8064 34.3695 26.183 34.3695 26.5924V31.1117C34.3695 31.8977 34.7952 32.6017 35.4993 32.9456L40.2806 35.3363C40.4444 35.4182 40.6245 35.4672 40.8046 35.4672C41.0174 35.4672 41.2303 35.4017 41.4268 35.2871C41.7707 35.0742 41.9835 34.6977 41.9835 34.2883V29.769C41.9999 28.983 41.5578 28.2789 40.8537 27.9351Z" fill="#FC4F1C"/>
<path d="M50.2035 25.5936C49.8597 25.3807 49.434 25.3643 49.0574 25.5444L44.276 27.9351C43.572 28.2789 43.1462 28.983 43.1462 29.769V34.2883C43.1462 34.6977 43.3591 35.0742 43.703 35.2871C43.8995 35.4017 44.1123 35.4672 44.3252 35.4672C44.5053 35.4672 44.6854 35.4182 44.8492 35.3363L49.6304 32.9456C50.3345 32.6017 50.7603 31.8977 50.7603 31.1117V26.5924C50.7603 26.183 50.5474 25.8064 50.2035 25.5936Z" fill="#FC4F1C"/>
</svg>
