<svg width="16" height="16" viewBox="0 0 16 16" fill="none" xmlns="http://www.w3.org/2000/svg">
<path opacity="0.4" d="M10.32 1.33301H5.01997C2.7133 1.33301 1.33997 2.70633 1.33997 5.013V10.313C1.33997 12.6197 2.71997 13.993 5.01997 13.993H10.32C12.6266 13.993 14 12.6197 14 10.313V5.013C14 2.70633 12.62 1.33301 10.32 1.33301Z" fill="#EC6A2D"/>
<path d="M14.64 12.56L13.5534 12.9267C13.2534 13.0267 13.0134 13.26 12.9134 13.5667L12.5467 14.6533C12.2334 15.5933 10.9134 15.5733 10.62 14.6333L9.3867 10.6667C9.1467 9.87999 9.87336 9.14666 10.6534 9.39333L14.6267 10.6267C15.56 10.92 15.5734 12.2467 14.64 12.56Z" fill="#EC6A2D"/>
</svg>
