<svg width="151" height="42" viewBox="0 0 151 42" fill="none" xmlns="http://www.w3.org/2000/svg">
<g clip-path="url(#clip0_1106_1560)">
<g clip-path="url(#clip1_1106_1560)">
<g clip-path="url(#clip2_1106_1560)">
<path d="M151 19.1951H143.838V20.5731H150.538V22.7211H143.838V24.1211H150.984V26.2631H141.835V17.0461H151.001V19.1941L151 19.1951ZM62.0617 26.2631H59.4617L57.1617 23.2921L54.8617 26.2631H52.2617L55.8687 21.5921L52.3627 17.0461H54.9627L57.1627 19.9101L59.3627 17.0461H61.9627L58.4567 21.5921L62.0627 26.2631H62.0617ZM72.8487 26.2631H66.2037C65.8329 26.2691 65.4649 26.1983 65.1229 26.0549C64.7809 25.9115 64.4723 25.6987 64.2167 25.4301C63.9468 25.1556 63.7352 24.8295 63.5947 24.4712C63.4541 24.1129 63.3874 23.7298 63.3987 23.3451V19.9631C63.3874 19.5783 63.4541 19.1953 63.5947 18.837C63.7352 18.4787 63.9468 18.1525 64.2167 17.8781C64.4724 17.6096 64.781 17.397 65.123 17.2538C65.465 17.1106 65.833 17.0399 66.2037 17.0461H72.8487V19.1941H66.2037C65.6704 19.1941 65.4037 19.4504 65.4037 19.9631V23.3461C65.4037 23.8594 65.6704 24.1161 66.2037 24.1161H72.8487V26.2631ZM83.6197 19.1941H76.4577V20.5721H83.1527V22.7201H76.4577V24.1201H83.6037V26.2631H74.4547V17.0461H83.6207V19.1941H83.6197ZM93.8197 26.2631H85.2197V17.0461H87.2197V24.1161H93.8147V26.2631H93.8197ZM104.59 19.1941H97.4277V20.5721H104.123V22.7201H97.4277V24.1201H104.578V26.2631H95.4287V17.0461H104.594V19.1941H104.59ZM116.279 26.2631H113.541L109.25 21.0911H114.409C114.776 21.0911 114.96 20.7751 114.96 20.1431C114.96 19.5111 114.776 19.1947 114.409 19.1941H108.198V26.2631H106.198V17.0461H114.529C114.89 17.0371 115.247 17.1213 115.565 17.2905C115.884 17.4597 116.154 17.7082 116.349 18.0121C116.752 18.6492 116.966 19.3879 116.966 20.1421C116.966 20.8962 116.752 21.6349 116.349 22.2721C116.154 22.5759 115.884 22.8244 115.565 22.9936C115.247 23.1628 114.89 23.247 114.529 23.2381H113.761L116.282 26.2631H116.279ZM129.103 26.2631H127.103V23.3281H121.828V21.1801H127.104V19.8931C127.104 19.4264 126.959 19.1931 126.67 19.1931H120.993C120.714 19.1931 120.575 19.4264 120.576 19.8931V26.2631H118.576V19.8931C118.56 19.1678 118.799 18.4601 119.252 17.8931C119.456 17.6254 119.72 17.4096 120.023 17.2635C120.327 17.1173 120.66 17.0449 120.997 17.0521H126.674C127.013 17.0437 127.349 17.1156 127.655 17.2617C127.961 17.4078 128.228 17.6242 128.435 17.8931C128.887 18.4601 129.126 19.1678 129.111 19.8931V26.2631H129.103ZM140.224 19.1941H136.351V26.2631H134.351V19.1941H130.478V17.0461H140.228V19.1941H140.224Z" fill="#DEDEDE"/>
<path fill-rule="evenodd" clip-rule="evenodd" d="M33.8698 20.5259L57.9358 42.0029H45.4358L26.8198 25.39L2.75977 41.9999L24.1008 22.9549L33.8728 20.5229L33.8698 20.5259Z" fill="#DEDEDE"/>
<path fill-rule="evenodd" clip-rule="evenodd" d="M24.0709 21.477L0.00488281 0H12.5049L31.1209 16.613L55.1869 0L33.8459 19.045L24.0739 21.477H24.0709Z" fill="#DEDEDE"/>
</g>
</g>
</g>
<defs>
<clipPath id="clip0_1106_1560">
<rect width="151" height="42" fill="white"/>
</clipPath>
<clipPath id="clip1_1106_1560">
<rect width="151" height="42" fill="white"/>
</clipPath>
<clipPath id="clip2_1106_1560">
<rect width="151" height="42" fill="white"/>
</clipPath>
</defs>
</svg>
